<mxfile host="app.diagrams.net" agent="Mozilla/5.0 (Windows NT 10.0; Win64; x64) AppleWebKit/537.36 (KHTML, like Gecko) Chrome/130.0.0.0 Safari/537.36" version="24.7.17">
  <diagram name="Page-1" id="2YBvvXClWsGukQMizWep">
    <mxGraphModel dx="1480" dy="489" grid="1" gridSize="10" guides="1" tooltips="1" connect="1" arrows="1" fold="1" page="1" pageScale="1" pageWidth="850" pageHeight="1100" math="0" shadow="0">
      <root>
        <mxCell id="0" />
        <mxCell id="1" parent="0" />
        <mxCell id="BVkjyiNbRaI8w9RZ-NBm-1" value="" style="shape=image;verticalLabelPosition=bottom;labelBackgroundColor=default;verticalAlign=top;aspect=fixed;imageAspect=0;image=data:image/png,iVBORw0KGgoAAAANSUhEUgAABNMAAAMFCAYAAABeUbD0AAAAAXNSR0IArs4c6QAAAARnQU1BAACxjwv8YQUAAAAJcEhZcwAADsMAAA7DAcdvqGQAAP+lSURBVHhe7J0HnFTV2YffBaT33qsUFVFU7L1ib1hjiV1jjUmM+RKDxp5YE2tU7IqoWLAgih0sCIL03pt0pJflm+fde8gwzi6zu7OwM/t/fr9hmTv3nn7PPed/3/ecnNzc3E0mhBBCCCGEEEIIIYTYKuWiv0IIIYQQQgghhBBCiK0gMU0IIYQQQgghhBBCiBSRmCaEEEIIIYQQQgghRIpITBNCCCGEEEIIIYQQIkUkpgkhhBBCCCGEEEIIkSIS04QQQgghhBBCCCGESBGJaUIIIYQQQgghhBBCpIjENCGEEEIIIYQQQgghUkRimhBCCCGEEEIIIYQQKSIxTQghhBBCCCGEEEKIFJGYJoQQQgghhBBCCCFEikhME0IIIYQQQgghhBAiRSSmCSGEEEIIIYQQQgiRIhLThBBCCCGEEEIIIYRIEYlpQgghhBBCCCGEEEKkiMQ0IYQQQgghhBBCCCFSRGKaEEIIIYQQQgghhBApIjFNCCGEEEIIIYQQQogUkZgmhBBCCCGEEEIIIUSKSEwTQgghhBBCCCGEECJFJKYJIYQQQgghhBBCCJEiEtOEEEIIIYQQQgghhEgRiWlCCCGEEEIIIYQQQqSIxDQhhBBCCCGEEEIIIVJEYpoQQgghhBBCCCGEECkiMU0IIYQQQgghhBBCiBSRmCaEEEIIIYQQQgghRIrk5Obmbor+n7Xk5ORE/xNCCCGEEEIIIYQQW2PTpqyXi4qMLNOEEEIIIYQQQgghhEgRiWlCCCGEEEIIIYQQQqSIxDQhhBBCCCGEEEIIIVJEYpoQQgghhBBCCCGEECmiDQiKyfr1623VqlW2evVqX5wvrM9XrlyOVa1aLfapYhUqVMg7KIQQQgghhBBCCJEBaAOC/JGYVkRi5eZC2s8//2yjR4+xSZMm27p162PH84qzUqWK1rnzLtaxYwerX7+e7bDDDtpVVAghhBBCCCGEEBmBxLT8kZhWBBDSFi5caO+//4GtW7fRWrduby1atLaKFStGZ5itWbPGJkwYazNmTLXGjevbkUcebvXr149+FUIIIYQQQgghhCi9SEzLH4lphQSRbMqUKfbNN99au3a7WO3add2ds1Klylau3P+WoENwW7VqpbuAzp07yxYunGv7779v7Jo2Vr58+egsIYQQQgghhBBCiNKHxLT8kZhWCNatW2ezZ8+2L7/82lq0aGfNm7e2ypWrFBg+jW/58mU2bdpkmz9/th133DHWoEE9raMmhBBCCCGEEEKIUovEtPzRbp6FYMGCBTZmzFirX7+JtW3bwapUqbpVoY7fa9Wqbe3adbCaNeva4MHf2vLlv0S/CiGEEEIIIYQQQohMQmJaiqxdu9bmz//ZFixYZLvuuoeVL184y7Jq1apbly5dbdKkqR4GmxUIIYQQQgghhBBCiMxCYlqKLFq0yFasWGFNmrSwnJzCFxsWajvsUNFatWprs2fPtWXLlkW/CCGEEEIIIYQQQohMQWJairBW2uLFy6xDh52jI4WHddJ2331PmzJlmi1cuCg6KoQQQgghhBBCCCEyBYlpKbJhwwbbuHGj7bBDpehI4cE6rWrVqrZ27ToPTwghhBBCCCGEEEJkFhLTUoRdLNjIori7WSCoaUcMIYQQQgghhBBCiMxEYloh2drunamQhiCEEEIIIYQQQgghxHZAYlqKlC9f3sqVK+eunsVh/fp1vnYaYQkhhBBCCCGEEEKIzEKKTorUrFnTqlatbIsWzY+OFB6EODYyqFu3jlWrVi06KoQQQgghhBBCCCEyBYlpKdK0aVOrU6eWTZo0PvataGuesenAyJHDrU2bVlavXt3oqBBCCCGEEEIIIYTIFCSmpUitWrWsevVqtmzZIlu7dk2hNxHIzc21lStX2OLFP1uTJg2tRo3q0S9CCCGEEEIIIYQQIlOQmFYIWrVqZXvssbu9//6bvvZZYVi0aIF9+OE7dvLJJ8gqTQghhBBCCCGEECJDkZhWCKpWrWpt2rSxXXbZyT799ANbvHjhVi3UsEibNm2KDRnyjXXrtqe1bdvaKlWqFP0qhBBCCCGEEEIIITKJnNzc3KItAJZB5OTkRP8rPqx7tmTJEpswYYLNmfOz7bBDZWvSpLk1aNA49v8dorPM1q1bZ7NmzbB58+bE4s+1Fi2aWMeOHaxOndppTY8QQgghhBBCCCFEuins8lZlCYlpRYAGtXLlShszZowtX77CNmzAAi1PaFu2bJnVrZvnxpmTs8nKlzdr2LC+dejQXjt4CiGEEEIIIYQQIiOQmJY/EtOKCeLZ1KlTbc6cubZw4SIbMWK47bvvfpFLaGtr2bKFVa+uzQaEEEIIIYQQQgiROUhMyx+JaWlk7ty51rdvX7vkkkuscuXK0VEhhBBCCCGEEEKIzEJiWv5oAwIhhBBCCCGEEEIIIVJEYpoQQgghhBBCCCGEECkiMU0IIYQQQgghhBBCiBSRmCaEEEIIIYQQQgghRIpITBNCCCGEEEIIIYQQIkUkpgkhhBBCCCGEEEIIkSI5ubm5Wb/XaU5OTvS/rbNu3TpbsWKFbdiwITqSOvPnz7cPPvjAzj33XKtUqVJ0NHV22GEHq1mzppUvXz46IoQQQgghhBBCCLHt2bQp6+WiIiMxLYGZM2faoEGDbMGCBdGR1Fm+fLmNHj3aunXrZhUqVIiOpka5cuWscePGdvjhh1udOnWio0IIIYQQQgghhBDbHolp+SMxLYGNGze6dVqsXKIjqTNv3jzr16+fXXDBBUWyTMMirWLFii6sCSGEEEIIIYQQQmwvJKblj8S0NDJ37lzr27evXXLJJVa5cuXoqBBCCCGEEEIIIURmITEtf2QCJYQQQgghhBBCCCFEikhME0IIIYQQQgghhBAiRSSmCSGEEEIIIYQQQgiRIhLThBBCCCGEEEIIIYRIEYlpQgghhBBCCCGEEEKkiMQ0IYQQQgghhBBCCCFSRGKaEEIIIYQQQgghhBApIjFNCCGEEEIIIYQQQogUkZgmhBBCCCGEEEIIIUSKSEwTQgghhBBCCCGEECJFJKYJIYQQQgghhBBCCJEiEtOEEEIIIYQQQgghhEgRiWlCCCGEEEIIIYQQQqSIxDQhhBBCCCGEEEIIIVJEYpoQQgghhBBCCCGEECkiMU0IIYQQQgghhBBCiBSRmCaEEEIIIYQQQgghRIpITBNCCCGEEEIIIYQQIkUkpqWRTZs2+UcIIYQQQgghhBBCZCcS09LExo0bbenSpTZmzBhbuXKl5ebmRr8IIYQQQgghhBBCiGwhJzc3N+tNqXJycqL/lQxYo02aNMm++eYbq1evns2fP99OOOEEa9CgQYnHLYQQQgghhBBCCJFu5HmXPxLT0gBCGp9q1apZp06dbPjw4W6Z1qVLF2vSpEl0lhAim5k9e45NmTLNFi9eEh0RmUSzZk2sbds2VrduneiIEGWLdevWxfqwqTZ16vTY/9dHR4UovdSrV8fatGkd67+bRkdESbF48WIf48yZMzc2sY4Oiqynfv26fo81bZr6fJZnyeTJU/3DfFhCTHHJsfLly8XqoJHtssvOVqlSpej4tkN1mD8S04rJrFmzbMKECVauXDnbfffdrVatWv7A+e677/z/7du3t4YNG0ZnCyGykenTp8cGDdNt2TJcvKODIqMoX95ifXVda9u2lTVu3Dg6KkTZgOUppk6dFuvHZtjGjQycox+EKKUwtI8Nva1mzWqxyX6L2KdN9ItIN3jcILLPn79I/UMZItxjtWpxj7W01q1bR78UzNix42PtZYatWrUudn15CTHFhHqgDCtVqmDNmjW0rl13j37ZdqgO80diWjFANMMKDSGtY8eOW1ihMbkeO3as1a5d23baaScX1oQQ2Um/fu/FBpgVrFWrtla/vsTzTGT69Gk2e/YUa968sR1wwP7RUSHKBrNnz7YvvvjK6tRpah06dLKKFStGvwhRelm4cEGs754Ym+ittVNPPTU6KtLNt99+G+sjfo7Nc1paixapCSoiO1iwYH7sHpts5ctvsJNOOik6WjD9+n1gGzbkWJcue+pZkiY2bNhgU6dOtFmzJtsFF5wXHd12SEzLH21AUARoUGvWrLGRI0fa+vXrYxPoVr9y5+RY8+bNfVOCiRMn2tq1a6NfhBDZxoIFC61hw8YS0jKYVq1aW6VKlW358uXRESHKDoxRli1bbp07d9HkR2QM9es3iD17m9jChYuiI6IkWLZsmT8fJaSVPRo0aOQfDEhShU35cnLK6VmSRipUqOCfDRs2RkdEaUFiWhFAHca1ExfPdu3a5Wta3rlzZ9+EACu1adOmSdUVQohSDIM/XBKEKItoiCIyEbxPyuOnL0oM+gb1D2UX7rHCjI3UVkRZQmJaIcESLc8d4gvbf//9t+o/vuuuu1rbtm19p8+ff/7ZF2IUQgghhBBCCCGEEJmJxLRCgEXanDlzbMCAAXb00Ue7aycmlwWBieuOO+7oolq/fv3cVFqCmhBCCCGEEEIIIURmIjEtRRDAZs6cacOGDXNhDNfOypUrR78WTPXq1V1QY2fPTz75xBYtWiSXTyGEEEIIIYQQQogMRGJairA+2qRJk6xGjRq2xx572A477BD9snXwNY+/btSoUbZw4cLoVyGEEEIIIYQQQgiRKUhMS4EFCxa4kIZ1Wrdu3axSpUoukBWGcuXKuYXawQcf7DuiEB47fQohhBBCCCGEEEKIzEFi2lZYsWKFDR8+3Lf57dKli9WqVSv6pfAgwNWtW9f22msvF+jGjh1rq1evjn4VQmQ79CPr1q3z9RcTwfWb42vXromOcP6GAs/nN/qo5cuX26pVK/28THUhZ3OXJUsW+7qSlBOsWrXKli5dYitXrvTvQojtT14/tdbWrFnjH/4f7llhXiZLliyJ9c2/REdKBvp6yp54eAbQT9KPbq9nAM8g+mv+irIJbY82GPoGPnxPXCv6l1+Wu0EBv5dmEu8x2jb52V5wj+fdY6uiI5kJz5D4NpLsw1g42di3ONAOk8WV+Fm/fl2sjf7iZb16dWaXtSh5yvfs2fPW6P9ZS2GtyALcdIMHD/aOtEOHDtayZcvol+JRu3ZtnwTPnTvXO8SmTZsWOY1CiO3Pjz8Ot/r1G1utWrWjI8lhMDZnziy//3H9jr/vOYbIPnPmjFhYDa1cuRxbtGih/fzzfB9QVK9eIzozr2/i/OnTp9nIkSNs/PixtnjxIitfvoJVqlQ59rd8ifQpxMukmQEm1rbpZP78udav31s2a9bMWF/byvMxbNiQWB/8lQ9mWrVqE51ZcsydO8sqVChnO+7YLjoiRNkA8WfSpCnWseMu0ZH8WbDgZ79P586dbQsXLnABPDbtjN07O3i/UFbGM/SDyfrDsWNH22effeIvB3bcsUN0NL0QJy9jp06d7M+AiRPHx54BC2PpqGBVq1YtsWdAQXz33Texz2B/NrVo0So6WvIsX7401g7nWdeuXaMjIt1MmjQ59vzPscaNm0VHkoPQxBhn5szpsbHLPB/DIE6UL1/Oxyehf/j44w+93bL0TaNGjaOrSxd599gqmzx5oqd10qQJPs7Ku8eqxP5u+3vs22+/tu+//y42JlxvzZunZ06aCsuWLYn1Zwtst912i44UzLhxE2JlUz42v20eHfkflOv8+fNsypRJsWfJ/M0fxrrx3/Hi2rgx17260jHejEXrYujYsaO2iId4E+Neu3adDR06xEaM+NHH382bt4hC2b4sXbo4Vi4LYn3d7tERURrIiU2Osn4l/KJ0dtw8rG2GOyYWaW3btt3qzp2FgQfOTz/9ZLNnz3ahrlOnTtEvQohMo1ev52L38O6xCUTr6EhyPv98oPXu/ULs3F3smmt+75PPwIwZ0+3dd9+099572/r0ec/Fttdee8knJ3vssZedf/4l0ZnmItOLL/aK9SE/+mC0du26sYf/aps3b77tvfe+dvnl19guu+wanZ0+vvhiYKxf/CnWZ3Wyo446NjqaHhAEH3nkAWvQoKFdddX1/rdv3z42ePCXsQHcHrH8XxydWXIMG/atVa5c3o455qjoiBBlgylTplj//p/YiSeeGR3JH/oe+qo5c2bH+p+KsQlPnkXtTjvtapdeepXtuWe32GSzWnR29sIk+913+1rDhg3t5JN7bH7h8cUXn9qHH/aLjRt3jPXFV/uxdMJkdPz4cfb44w/5xLBy5Spe3suWLXUBj77ytNPOsiZNmkZXbBtef/3V2ORzaGyit5edfvrZ0dGSZ9asabFy+NEuvvii6IhIN/37fxSbt+TY7rvvHR1Jzrx5c/05zliBF4KxGZjPd2rWrGkHHXSYP9tr165jDz/8Lxcwjjyyux1xxNF5F5cieHHIPfbII/fbhAnjrEqVqrFPFb/HVqxYbuedl3ePNWzYKLpi29C794s+Bttrr33slFN6REdLnhkzpsT6u9F2wQXnR0cK5q23+sXm3hVjz4J9oiP/Y9269fbCC0/bs88+GR3BK2Ojz7t32KGCi65Qp04dO/ro4/2Zko7nCS8+KLurr77Y+9BwjOcX7bRixYp+DA4++PDNwi9j6pNOOj36ZfsydepEmzRpTKyvuzA6su0IZSZ+jSzTksBbNTYc+P77733TgFatWm1xk6UD3hrycMHqbfz48e7+Wa1atSIJf0KI7UuqlmkMyr79dlBskFDXDjjgEO8HAkyCfvxxqA0b9r0LZ6zN+MMP37rFQcOGjX3wxKCU7w88cI/3U8cdd5Kdffb5dthhR8UGqofGztnbJ7iIdY0aNUl7f8Kbup9+Gh7ru2pZly7pfTOGtcugQV/4xHCfffaP9YfVYwOfEW55wZvrrl33jM4sOWSZJsoqhbFM++67QW55wn169dU32OGHHx2bZO/lx+fMmeMiTrNmv7ZIyDawzvvkk/7+/z326OZ9F7AcyE477WI777yrj/PSDRP9+++/y/vM4447OfYMuMAOPfQIFyuYvGLF26xZi5R3nE8X9es38Jc47dt38v57WyHLtJInVcu05cuXuVUmFl2XXXa1nXHGubbffgfG5lCV3MocK9YuXbr6S0LORXBu1659dHXpYd26tfavf93plmgIKWeffV7sHjvSx1ldu+5tLVu29nuMcdq2pEGDRtE91tHnjNuKdFqm5eSU8zHd/vsfZMccc7wdccQxsb6qaqyNjbfTTz/HXwZzHKG1a9dusflxvbRYpjEepszoqwmfD88p+tHGjZva3/9+5+bjpI2XAnywLt6WZV0QskwrnUhMS4DJ6rx589y9c5dddol18u38bURJgEBH2EyKsVJr1qyZH0tHpyGE2HakKqZhyTB8+FAXxxLFNNZmGD16pFsaXHDBpT5I41ws1hi0IaatXLnCevX6r7scMIlCTMNKrHHjJj4YwOyfsFu1au2uPvR9rE2CJdtHH73nYhUWYJjO16hR0/sbLEo4vmjRInfPQOzDsgLhjxdRvHklHK777LOPXeBi/RDSSzrq1m3gcWGyj3vTwoU/u+D34YfveX55UUBcDFi+//4bGzDgfbc2w+qX+Jl0YV2Huxhx8z2IaWPGjIzlf5pPzuPFtNmzZ9o33wyyTz/9yMOkjBD4SAeuF3nnzLIRI4bFBh4Lbfr0qfbxx/0jK47KVq9efT8nEYlpoqxSGDFt6NDv3QJlt9262vHHn+z9E30P9/24caNj909H69RpZz+X8c3EieNi999H9tVXn7k1LWvRYHnL/Rog/h9++M4GDvzIvv76C+/7pk2b4i7vuHwzLuKFA8dxEfvqq8+9j8J9jL4ivPBk6Yyvv/7cz8VlfvDgr23IkG/drQgXn++//9ZatGjpFnUB+jLceejj6GuYQJNHrGsGDfoyluZhnl/EorAB1dy5c7zfJE+//LLM1qxZHcv7mFhoOW5lQXy8yY+3XKEvI7yBA/sbLpHTpk31ZwZWL+FZQD84ZMh3niYEy88//9hFCIQ7vCN4EcNE/8EH7/G+v3v3E2333ffwZwBppx7q16/vZRLCpL/m2dK///ux+D+P9aujfayLJV0Q3EjrN9987fnkOUD+qQf62tzcjV43WBTFTypxM6U+KLdater4hJt+HotrJsAB6uGbb76K9dcDPA7Ox/UP6+Pg8UGZE9aAAR96/VG3/BZft/khMa3kSVVMY7xBe6WN9uhxbqxt7ultskKF8n5/UPeMW3hxyHgGoQIxjX6C5zRjjy+//MzFNtoA4xPuu9BOuIeGDx/mYh3tJx7GH3ywcKL9ce2ECWNjbaq/36eMXVhzjHbPPRdgfMQYYt68Od4PIAbSl7355que/mOPPdFfHubdY808P4wh4t0Pyffo0T/5PUb7JR3BRZH+C7CComywyGN8Qr/Ed+433Da57wk3Pm30Z5TV+PFj/N7nPlm4cKGPmfgeIP30LdxjjKPyym6t9z+hH8Dl9scff/D+k36AcwiHe4y/BZFeMS3Hx2u4TvJh7Eq/Q71S1kcd1d2PU9YsixTKmGUFGO8NHDjAX9ww5qQusVoLeUSgxfrso4/y6oE2R/9VrVpeX0f/HeLlQ/mOGzfWyxILuHCceqAvyyvriv47dZRXfz97v0haPv/8Ey9HwqYPZExMHQwa9JU/Iyhb8hoPffywYdRD/9h5X3hbI45U6kFiWulEYloCDOgmT57sD++9995780CjpEBMo7NlrSRu6nr16m114CCEKF1sCzGNt2n0E/fdd6dPVk855YzY3/ab+zf+8iBmQsUkle8MvHjg9+37mr8RZoDLOmtYe/E7b1eZEL300nM+AJk1a4YPHnjYM5FlYsyEjcEKgwcGAEyMggjGJI3BMNYXDAwZpDHowzoOdwgsKBgoM6j98stP/XeuYeDM+iOkhf6PQSppTUVMmzp1ir3//js+6CUsJsjEx0C5efNWPriiXClHXLD4y0SU8PPWvmjp8SVDYpooqxRWTOOewgKKySZ9CX0C/QMTHCxPsJ5gssx9ibs64hKCE/HQtzCx43rGWPQT3NMI5PQ93KdcyzX0H1h6cT4CGoI+a+kwseF3JjJYvTCxJg30oy+99Kz3pUzO89a/Wet9I5PZXr2etD333Nv76tD/Tpky2fr0ednj3WWXLrF+eoL3h0zemLST5vASgYkffQzp4RiTJyZ7TKTIH5NXfuOFAf3errvmTXrIM66f9JMrVqyMfVZ4X0mfS/9GegiHPvHNN3t738dkjLCYvDHhYnKHJQ8WcK+88oK/pGjTpp0LjuSd6/nL7yFv9HvE+f77b3tYLKxNGfMsogybxCasPGuoA5YgoA55PjDhp28lHNL2/PNPeX2RvyBs8ALm6acf83zyHKDMf/jh+9g1FdxyBoFu8uRJ9s47b3p/jehIXSCm8n/aCHXHRBqxg4kpk0WEvlC3tI8GDRr4ZDM/JKaVPIUV07hXDjnkiM2CKd9pH9wHWKsxtokX0xC5EJMYc9A2+I7gxPmI04x1gDHQBx+8E2vXC2PHOm6eo9F+6Wc4H6unmjVre5t7441Xoz5gjfcbtG3GJqzLGq599923XORlTMLardyb9BVcT1h591h9b4PhHmPuFkQe7ivEP9LFPUH75R7D0op00Wdwj3G/cd+S92nTwj22ysuH8c5zzz0VK4sOW4jMnIM7ZN7a3Z1iaRrmghhpoUwIn3S//fbr3hdR/nn32HIvc/oz+j76El4OMA6jj2QMlnePjfXxXb163GP5CznpFNMSoawRHxHsGfth1ZsI40AEMvoXBDPGreSJ8R3jafoo6pV66N+/n/d79HX0mZTPpk3UQxPvb+IJ4iz10737CdHRPMJLnUqVKm4WfF9++Xl/ucI4OK9vnh8Lf6L35fR3vCxCHOXZwfFFixb4M4B+lOdkqAf6uy3rYVysDVSL2ln+9SAxrXQiE6gEGExxUx1yyCHeYW4LUN4PPvhgv6noVIQQIhH6JgYIPKgZbGDxVRA82BlEsAYbA0RcsU477WwfrDDJ7N//PRfqCJcBxfffD/YBCuuzYW3CIBdxCwsKJpQIelh0MHBhooRbER/e4DFQwBKEN7NjxjC4aeRhMJjmDTFvVnGHYrJ5zDEnbH5jPXTod76OHJOpVCBPWLYx8GWC3b378e6CgRUM1h4M4kkHMJhkgMNEkkkn67LgDks+hBDFgwkjkwnEbYQZJnncb9z7TAhit6qL3Agp9AtYT7HGT1hrkbf3XAOINghNS5YsclfFHj3OifUfp8QmDHv5RA9rL6xHsFpDiOFePuOM39iBBx7icWPJQp8GTFix+ELM4uUBwtnRRx/rf+vWrR87f0Js0omws9zPp89DAGQi17p1G5/E8mECTZ956qln+vUIVkzWEbXIO/1vmzY7xo43cIH+gAMO9v6wdeu2PnGfPXuGT/yBfgsRkP6JCROWOSeffLpPjt977y3vo5hYAX0t/TZWJkyqWLsHaw0s+bDGGDlyuB+nH+dZQD9OH49FD5N/rGvCOJJ4maRhJYwwccghh/taZrirIUYgXmEpFOAcXr6QFlxUmVwSD30mk0dc/KlzoGzJI5Zz1DfiAs8nXrqEPph0kDYsROiv6ftPP/2sWD98pD9HsCImjSwfgLUJIgZlfuaZ53rdknYmndOnT/fwRObAuIJ7jLaAsICoyoYEvMALQm88CA2IW9zz3Pu8LMQan/b2+usve9ugrdC/IBYxzkCsAo4jajBe4f5nzIFIzYZGWCbh+kx4uBOSLu5FhKcA4w+W1yCdjHuOP/6k2H13mN97jI0QZ9577x3vZxBLOD/+HkMIGjDgAxdF6AO4xxj7kF/GN9zPwBLlpAvBh5ebu+66m99je++9n4vaxMX9zX0E5JMxGgIYoh7lw33LPYaoAswb6WMRfsg3lqqs5ZYnZDZywY800seQbyxC6T/pY+mzSDsvKbi/Syuk/9NPP/Y+sUqVyrF+5Dh/ljCGpG+hX0U0o0189NH/6oE80ufRJyJgIW4VBtpeXlnn9c0Il7xEoiwRQWmreIggtLGG6BtvvBI7Z2Os7zo09sw4ztPKc41ruJZ80L9i+Ujd0h5JIy6lvLyhHjhXZB4S0xJo3LixdevWbZsJacBDhAEWglpJrK8hhMh8mMCxlTwPZDYcSHzDlghvcxnEMfk766wL3HSeCe2ZZ/7G9tvvIJ/osTNUgIHYCSec4oM7Hu486BlYMshkgscglgkQk0h2amNyyoeXAWFwjDvDTjt1tksvvdoHiLiB4bLAmz8Gw4hoTKQYRF544WX+l4ksA8itQb5Xr17jg5OmTZv5YBERjcE5a7KwtsbgwV/4wCnA21s2hbjyyut9kk7+mfwKIYoH9zPiChYRLIrNOo6IY/vue4B17LhTbLK5wUWtL78cGJtwnOLH6Td23rmz9w1YpCKOcV9jhYLQjuUAIhbjMM476aTT3IIEcM/EOgIxjkkU1hvduu3rE24mwViJxUMfycsD+jQmPaSpefPm1qXLHpst4ABLASbcvESlX2TCSvj77XeAW4ExJqO/OfHEU93ChQkvFh+47rA0B66P9I1skkJ/yLnBqiTAznBMdul7mNSz7lK3bvv5Yuy4FGHpR1kFsOyiLH7zm9/6pJ4JIRN78hQs4X77W/rP3WP5Hm6PPvqA3XXX3/0vE2smxkyyeWYwScPNFiGL8sJKhn5wr732dSERgS4e8suaQUzIsYamHkgLfTlWQ+QfsPKhX8eVbY898iz94mHySL2+915fDyNPYDjc08wk/tRTz3ALatJJGhBeWCMpr24bRXW7t08uR4/esm5F6YZ7GushRFJE3g8+6OdW6VgOsaB8WFswHvoDxgZsXsL9hPjK+IBnPOMYhFsELNonx+lfEMBpZxxHUEGUR6DGGgrxjvENYgeCMIJ3585dvO9h7ISwFA9ugIggrD/IfUw7vPLKa92yC+skNiLIu8cesn79+rqQzf3Fh/EL4xjuG/oj7hcs6bnH6CsQUOIhbwjqCPW8vOTlaJMmTbxvoh9DcAPEHIR/ypOweCkYD3knfIQc7mmEavoLXFIRoxHs6c/of3Cz5n5nXMe9jDhHWZDX6dOnuIVXaYS8IwDyMpY+5tBDj/L+hPrMW9esm/ef1DcvE2bMmOr1QL7II30/dUJ7ZA3idIAVH4IeY2X6cl524AaKpSUiGkIefRljTuqIfjNvk551LgjysiWvHnb3NNI+SS/WipwrMg+JaUIIUQqIjRkikrulI7oHtwLevvKQLggmJwzGsGJgoBWu5W+LFi1cBMMSIYDLBIO8AJNLJn9525OnZjGLlRoT0FhSN8NbPSxOmHx26LBTdJQJYzl/o4cQx1vlrcEbZQaZedZ5s30w/MILvWKfZ6xPn1c2v0VE+AvgjsVAlbiEEOkDFxosALBswH0L1xcmsnvvvX9sgtDELcgQueg/sBpjp0fuVT68gceSgN+BfgYRDeukO+/8m4tzCHMIbPRzuDkiZM2fP9/dEEM4zz//tFtWIaAHa6gA933iy0lcqZgEYSnL2rgIQbiFMRFGOArr82A1MnDgx+5S/8c/XmPXXHOJ/eUvN3he6H+wSkgVJoOsI0k/yCQ/7PhMH4no1rnzbrGJ3nIXGgK8lGASTx8cIO0IDoTDs4AXHbfddq/9978v2a233u2TONL2z3/ebo899qCLUJQJVskIh0zSQrmxkx6uYljO8BtpDLRt29778fg+nPh4eYGQhqUMzwP6bKwF9913f6+/RAERkYFzeQHECxZEvGQQDm2Bv6Qpvm4nTBgfq6fZnmeROdCeZs+ebc8996Q98MDdvswEO3teccV1vmESImoitCnuyZdffi7Wrv9i119/hd1wwxWx78/6sz/vfs0bhyB0IX5hJYZgy+8ff/yBW4q2bt3ORSP6FsYEuHViURraFRareX3JltbwWN3jbh3aPf0AFvh33HGfPfnki/b3v9/lAght9Z//vCN2jz0U9W+LvB/kPqIfjG+/pI94cPWLv8dw5eTlZTwI6IiJiEIzZ86MyoM13Ia52IL1Z+I9hhA9Y8YMF4oQmBBmksF9TrpJJ26SYdxEGrHU5YVCfP9TmshrS7O8Lkkn1oEh/bQVrAQRNllfMuTz1/Uw3PNOGHHVUGSwPsatP8AYu2HDJtapU+fIkjqvzwzLONEPY5WY105CPXy3OR+kkWdQXj0s8+tFZqEZhhBCbCMYDGEtxWAvEQaEuM6weHPemglbimpYy2KxwaCLAVqyMOJBcGMLch7qiVZsxMHglvgCpIs1LuJh1yXM1lMdgJC/xLfODPjIG6JZxYpbrgVBnAyWmJhvHd5QrvbzmWTyxpUy4f+4QDHA5i10/KSNOOMX8xVCpAcEF6y17r77gdiE+THr1Yt1GZfaW2/1cYGNN/Hc1/Q/WN5zn4YP1lv773+wT075nfv0uuv+aH/601+tY8edfcL75z/fYOef38Mtq1asWO6TS/rFqlWrbL7v6QM6dOhohx9+jFurBMJEJmxGEmCic9hhR/v/x41jLcUZPtlmco3lV+CZZx6zfv3edOs3diS85Za77NZb73HRCAFuay8yElmzZq1fl9f/bzkhpm+mrPgEQp/N30Def3O2iJtjWMFghcIOeHfeeb+dcsqZ7lrGRD++76U8Qrkh1jEhJM9M1OPjoUx5PsTD71iT0ZfiWsfEjwksAh0Wb2ECGU9ev87zZZPXGwvQJ4M0UreUTXwaSUfHjp1ibaS7C4sic0CIou7uv/9Re/319+zZZ3tbz553u3U8bTEZtNe//e0PLnywnuwNN/w5ds09bilGeIxnAgjvCF0IaSzgjtiC9RgWV1iy5vU96/06hDvWvAp9Dy7LhI+rczzcb4xHEuHWQGQ7+OBD7corr7M77viXu6GyeDzifvw9Rlzx7Zd0YqWEleWv77Et+wG+Y+XEb1iS0i/xchCrvKOOOs7Tl0i4x/hL2vMr23CPcR/++h7b2a2okq1TVhogb1hyseYZ6cZ1MqSf5wrWXViI0Q/SRpL1I7zgpb6x/oqrhiJDOdK24uE7cTKujod6p+yB8XaoB8bJ8WnEApN64K/IPMq0mMagZNasWf7GAzPSeLiBcWOYOnWqvzUUQojiwqSDz5w5M31wEA8m4ryBZwLHgznxoc9ACTN3FvfmrRaL5Seb1DGwo//CkgGRiQc4A1WOBYgHMQ4XpQAP/a0NNBgocF58WPHkhbFlIHm7bFbzgS9v5eLhO+WQ6L6QDCbGuJkyEMHCA5cM1s3gg8sQ6+zgQsXAN57EwY0QovjQHzGZQVTDIgLLiO7dT3KrgLAWGm6JTBbat+/kbk3hfsUdqUePs33yEKDfw23n/PMvsT/96RYX17AkwAKVPo2JKq40uPWEcPiw5szpp5/p7oPxJOvPSDMWHrhTYfWE6IRlGuHibgWM9xDwcEll0ozYtMsund21h/Dy+u28/o846Kvz+sP8+0Q2lqIc6Hex1ApwHX0zkykmgPEk9qP/Y8t4yBMTM/pZ6gF3Vtbj4cVD3jOgpj8HOnfePaHcznbXS/IXT7Jy4xjPCjYMwIKM9YtwjaVfxzWWvCXCpJb+mr9YjIQ16hKh7KlbLHVwF90yjefYaaed6e55IrNAKOCewUoVt03qGTE2WbNG+MJaB0GMtVZZ0wvhAxEE63IECCx7QttnDICYRrisOYi7OH0NQgTx0C9hZcp9wf2QtwZbXpsKfU+imJbX7pPfc7Th/91jTTxM7i9EnjyL0Rp+n9EHbdl+z3ZXc8S0ePLi2TIujpF27jEslFhXa/x4FqWv7taflGcipAuXaP7ygpU5azLCPUZfjctjfBrPOCPvHqP/Lo3Qv/JsQEzkRel++x2ckP5z3V2WPiKvHmr5GDn+nLx6OMtdZdNBXluJvsSRX/sJ0MdxD/BSJr96kJiWmZRpMQ0BrVevXta7d283q42HwdtPP/1k//rXv2zo0KGblWUhhCgqvD3DFYqFUL/88nM3z0cQY/2ysEMQk5tkb/F5UDMpOuecC9zN6P333/WFbJmkMJfj7SOLcWMyTvhYH7AeDwLcRx+95+bjxMUbT97+8n8GHYWBgQBxMXBD/GPSljfIzR8GtlhB8NYQ9y6uAyZjrP/DAJWB8dZgUMV6bVgp8CYaV8/q1Wv6m2YGWQy2EAjpu4UQ2w76JgShY489wfso3JtYA6xZs+budsUi0fRPLOLP/Zrn4pTjAjsgYOESSF/CGohMKJnc8Z01geh3cGskHhaZrlixsofDB3ev9etZj+Z/Vrb5wfVMPA888GC3+mAzEwR93BCZcAL9DGnFqo4JLBO0VatW+6Q9cbKKNQiCEv0ReWBMmWysSJnQxxHnjz8O8X6Kc1lzjDWScE9r0qTgXRID9L+IDyzsTz+ONSB9OfnHWgwhE/EuuIWyAyc7G+KSmbcWW1MvN45hdZz4Ijk/EO0QOEj7J5986JsDIB4QF78lwjHqmf4a98283Tx/cQGRtLJrKX01ZUPdki/WbeK59b+6re55TaVuRaaT420LqzLqHXF5ypSJ/uIwGbQZ3CX5/YMP3nFxghdpweqHNbX4DB78td+TiE60qXCfxy8HkUhoo6w/iLAexml5G4vM9P4NgQeBivbbpk1b7ydwH8eqk3s57x6rVeh7DOGNMR1rzJF/LG65j+iXEqEvQyDDVZxyYO02+ijST5zBJRt3d15o0E+ySUylSlU232NVq1aP9XfcY6l4B2x76LMR8nGhxJUWd076fNLOS1X6C/KKoI8lIONN+tX4ekBgoxzWri3Ym6OkyauHjl7eeTsVx9dDNT/Os0dkHuV79ux5a/T/rIWbMRl03Pfdd5+/KezSpUus4/3fFr485IcMGWJPPvmksRUwvyfrzIQQ4scfh8cminnbcxcEgg/9CJsC8DBlYMBgjcVhg7DEGyoGAfRbvKllQMTDlsEigy0EOSahTEZY7wIBjd3y2FYecY3FZJmMMrAkLgaNDLRYSwK3HNacwBqCiVCem5X5luO82WXhWgZnwDoPrE/Eor68xWUgwKCFdTzCWjb8jjUEg18sUnCbwqIj3uWKNJAXrEwY7PHWFTcwdvNjIojLBessMWlmNy7CQlDk75gxI2P5n+Z5YSFZ8s8EljWYsCjhgyjHJglDhnzjA2DeHDOJxBWJNHEtZZdK/421X4UK5WID9XbRESHKBkuWLLFJk6ZYx45bd/dhwWfW5EKowb06wKSHPoC+DSGKRfnp8xCQsDyhr6Kfoz/ClYkJDzto0jexKyULRNNH0U8g/iB0sbhzp047+YQIy67x4/MWwafvo/9hZzWup+9kgks/ws56vP0n/jB5joeJLztZ0m82bdrC1xtD8Af6CVyrWIuIiTN9DGIQfSbHw6L89PWME5loM3mjL2OSzfWkk7ximYNVSV4fWM77LfLNSxPySB8IWM7gbkWZ0T+ygzJ5od9CpASeFfR1TKBZZJy1pEj/uHFjXZCjTtjlmDSyIyZutLx8QFygX2SjAuqG30eMGOrlRjoQKnG7ZQLOc4BJKflLtPAFzqVeqD/65xNOONWtdALkn5ccPK94luT11zt4nIir5J++n3rjO/WKaEI7oMyoe+qW8/Pq9ht/0YSVEUJsfixfvjTWVubFnhGFezkkUmfSpMmWm5sTG38ULPoiBLEZAPdh3o6SyeuNhdh5sYYoxgehin6DfgVLRsZFiKu0e8IkrFatWnv7B+4LBGzi4p657LJrXKig/XK/cd6mTXljKO5d7kfaJ22X/zOOQLgHNklAxOBFZ+gHuGdeeunZWBpGxj5jonvsO9+8hBeSWNVilUmfR/vFUo37kfEa7Zd4ucfwfkLg4X6iv+AeQ4RDZE62xhmiCu2e+wzBm76BdAUIl76UNd4Q0XjxSh9L2TEmZPzHCwf6LNKC+yZlQhpZu5Y1JjkPd23iII2s+0Y+wtgvGWz+smTJAp8Pp8K4cRNifV55F7y2BkIX/QJ1w9gv0eU09CP0x9QdfTL5YNzH5g6rV6/0smS35pUrV3k90G54RoR6oF+iz0pcu5H+hv6bMsJdNB7KkLaI6zBjaoR96o9wsITD8hYoP9b7JK+4GgdPC9JJv0z7pq6Ig3bHjqyImnl93Zb1wPOqoHpgF9fFixfE+rotLbHF9qVMi2l0ln369PGObp999tlCTOPmHj9+fOwGGRjrxA9xMY1jixYtit30Y2MDoomxG2FG7EbDTWmTDwi44QMsVDt58uRYB5c3KMMqJPhxk565c1kUdqG/qcPNdNy4cR42C4DTaQghModUxTTubSZ9PDB5kE6dOin2meL9BYMtJnUM0MKC+TxcsSZgoX4eyPQdTGh4I0u3xiAyDC4QuTjG2jYM1PJM3mv4AINwGGDRFyHEsdMUg0EGp7wJJhwmtaw/FAYC9I9MFOvUqeNCFvEiUoXBAHFiCbHbbnv6m1MGvPSB7drt6JPseJjUMQBhbSLSwUCH8Fmzh4khAiGDaSakvE1mMsdgmYEDA2MGuLh8AGId/SjWcQxaGRgyyCJfDKYZIDMgJT0MkLH6aN8+r+y2hsQ0UVYpjJiGME5fxv2GNUAg9E/ci/SF9Bv0XVhnhHsVQQXxiwkgYgrWa1jaMqFh8szvWHpx/7IDaPfu7JRWxyfl9JtMoBFdpk1jMfxp3mcwqaF/oB8KLmPc90xC6bPiIY30wQh19GVYW7HrGuNAoL+h30TcmTIlb90iXiKwdhcu44hp5Jk+hskRk1BeyOK6z7lMqOjvCId+MEyEmewR95w5c2Jjy3E+wcdt7eSTe7g1Snh2YAXHGnHEwbpTpBEQHujPCAeXTYQxJohMnhGm6IuxLkGAwz2SFzL0x6SvUaNGPtnn5QR9L/XAM4dFtOkbcZcDhAyENeo1PxGStGExiDUf66VRVgEm67SLtm3bed7Jb96zgHznCRrET/1TRkw8KUPqlnTm1e2YLeqWZ0ObNu39/PyQmFbypCqmcf8xPqhTB7fdvfIdEyFS8IJuxx3b+9iHdsP9O3EiO3fO9Gcx9zVjGc5j91u+h3kWf7lHEZEYI7GDOP1EeM7TVhF1Gd8gYNPmaVNYNzEX476krQNjCdo7Y6y8e4G1CVn4nntslt9feffYbMPCnrTw0jOkh2uxfEPUyRtnTfe4uMdCuLRxXMSD2Mw9RptPBGt7xl1A3tm9mLwEGMvRd3KPMdZh+QvuMeahlBvWbNxj5BOrUV4oULZ5O6TW9nsKISfcY8RFX0F/k+yeD5SkmEbaSRdLkrCbK0JhIpQZ9Ua+eBlNfdIH0i/mbTzR1q9r0KCBv0CmHqZPz6sHxpF59dDR6yEerqdvJPzg6h+gHdM/ET6CGtaJ1B9j1Lz6y2vbjGVJF/XMcdIJWAnybMN1kzqirdB/I5JSngiC8fVAWRFXsnYRkJhWOsmJNY6CfXSygNC5JsKDu0ePHn7zXXfddS6oBbg53nnnHfvLX/5it9xyi/3mN7+JdbjzXVz7+OOPfeDJYInO+9hjj40N+Lr7/+kUCHfAgAH21Vdf+c2cN6BoFRuMHWGHHZY3aHv99dddkOOmYyA2cuRIP+fGG2/0v0KIzKFXr+diD8zdYw/zvDedqcCC1Awo6WsYLBVFSM8TvJa7lW3NmoRRO2l/xyCAgR0DByZQNWpU3zwo3ZYw0KbvJB0MPllMnH60KBAWLymwnONNL4P34u7aOWzYt1a5cvnYJPGo6IgQZYMpU6ZY//6f2IknnhkdSS/0UfRBCEgI9vR5iesZMvlgUsGwlPFUELji4aUmYh2CHuMnJh5MePIb5xUVhCvSgusNQk6wECsulANjPiblTHDDC9aiQFnQ/9OfYqGCdXF+6eQZgCjIpI/nDIIi/Wa6yy0/iDtvwrzO447fOTrw67plzb2tl8+sWdNs7Ngf7eKLL4qOiHTTv/9HsWduju2++97RkfQTmz65EIJVfN4aZTWTjoloJ4x92KikV68nY3O3A+zSS6/0F3bJ4J7DWIFmRNvjvFTXUt3yHqvg/U1B9xhxcY9xXzMeox1vq3uMuBkTMTaqVaum5zUR8kM/iyjH/U9+UumDZsyYYpMnj7YLLjg/OlIwb73VLxYmLyv+N69OB+QNIxRetvxv3Ffe6zawveshFbBSpK/jmcg4mL6ODbq2lsapUyfapEljYn3dhdGRbQf6hkiO/BZThA4Iceyee+7xt3w33HCDXXvttbb33nt7x8oAAfiLCHf77bd7B3zmmWfaOeec48evuuoq+/HHH31QgdXaG2+8YS+++KJbt51//vkuyAWlWwiR3SD88EYWizAWxS6skAZ5b/UbWMuWLX1QlN+DGMGKOLBEq1271nYR0iDvDWlDy1tjpFqRhTQgLPLEG0NcuoorpAkhSg4mM82asYZNc58kJ5vMYkWGtQheAsmENKDv4nr6EKyWGH+VxCSJSRj9StOmTfOdPBcFyqFJkyZuRVFcEZCyQHRkbUzclwpKJ30tk0/6S547lO+2nFySNqwyyHcyIQ1+XbfpF0lF6YWqpo3SR2BVld+YiBdyuMbhJo0oxALuiG/5wT1Hn0K4WFIWZlOiLe+xvP4mP7jHuK8YZ3GPbUuxGsgnO763aJG3XlsyyA/3H/cY92NJvIgoSWgTvNygjLEy4yVCYvK3dz2kAsJsXj20ieqh6C9VxPZHs48UQcnHMo2O9PLLL7cDDjjADjroILvwwgvtmGOO8Ukdqi2K+SOPPGKHH364XX311bFO/hQ74YQT/BrOf/nll108AwZruJDeeeedbt126KGHbmEyL4QQQgghhBACq6c+9tBD/3TLo0sv/Z2LZIhEQgixPZCYliIo2yj+mJjeeuut9uyzz9oPP/zgpsYIbHTkWJ+xJhE+0JgUDx482K3PcOn87LPPXJAbPXq0+1ADbyc7duzoQhzh81ahOJYaQgghhBBCCJGNdO9+vP31r7fZ739/sx1++FFu5SOEENuLMq/cYOKK7zJunIkglGF2iVDGebh0/u53v3PTTIQ0LNBuu+02++CDD9wijXDwV0dU4/8IauzkwofjmHOyQGpwX8ClQW6dQgghhBBCCFEwbELE5ibs+simBUIIsT0p02IaVmBYhSF0sVhhPCxgiFsn1mJYnnFu69atff2z8847zzcS6NSpk1uaffjhh77zJ6JbWIcCKzZ2Pdlvv/1s//33d3fOU0891a9nLQDgfJkmCyGEEEIIIYQQQmQOZVpMQ8jq0qWLW5BNmjTJ/yKi4co5b948GzZsmC/kiOCGpRlumsB6aRdccIHddNNNfv3cuXNt6tSpvjAii9VyDeezKDjnsn4aYlq3bt2sQ4cOBS5gKYQQQgghhBBCCCFKL2VaTGMDABb+Z/eggQMHurvmqFGjXETr16+fDRkyxMWwVq1auZA2ZswY+/jjj23s2LE2ceJE/4t7Jzu9ILghzrHLyGmnnWbDhw93izXcQbFaI9yvv/7avv/++82inBBCiNKGtv8WQgghhBBCFEyZt0zDVfPaa6/1rZavueYa22effeyII47wTQZw5Tz77LPdvRNrNYSw66+/3s856qij/DNu3Dg/H9ENcAvFYu3oo4+23r172/HHH++/ERbrrWEBR1i4jRK/NhwQIhtAgJEII4TIZNSHCSGEKB45OdF/hCgD5OTm5mb96Ik1zAqC3TWXLl3qrp2LFy/2nWHYaZO1zdhsAPdNNihYuXKlLViwwH7++We/hs0DsEjjvLBWGmzatMnXYcNtlPNZj61GjRrWoEEDt2LjXKzTENUQ38KGBEKIzKRPn9djfUFza968td/TIvPAynjChFFWt241O/jgg6OjQpQN2Il84MDPrWvXA3xso/VcRSawZs1qmzVrWmxcPtPOOuvM6KhIN1988UVsXrPa2rffxapXrxEdFWUB5rAzZ06NzZPn2umnnx4dLZi33+4X+7ei7bHHPhLW0siUKRNjnzF20UUXRke2HWgbIjkS0yJoJIhbfDif3TuTDSZZUy3s1ombKMJbftZl4VyEOM7j/FTSIoTILGbPnmNffjnIqlWrYx077mxVq1aNfhGZAELaDz98Y40b17M999x98yYxQpQVmDBNmjTZBgz4zA488HBr0KChv0gUorTCS+0JE8baihWL7JBDDvQ1i0XJgHHA0KE/2s8/L3WBBAMBkf1wj40fP8rWrPnFDjpofzc0SQXayqxZ82JjqcbWqlWb6KgoDvPnz7V582ZarVpVYnVxUHR02yExLX8kpgkhRDFBOGdtxOnTZ8cGH2uioyKTqFWrunXsuKM1a9ZMzwxR5mCgzMTpxx+HxybOy2zjxtzoFyFKL1WrVraWLZtZp04dtWxKCcIYZ/bs2TZhwmRbtkzrPpclqlWrbK1atbAOHdqnfI8tWbI0NiaeYDNnzrby5fVSprhw/23cuMEaNKhrXbp0dq+4bY3EtPyRmJZGsELDTbRhw4Z6qAtRxuBhh6vUzJmz3MI1m8BdnTfR2boTMZbIHTt2cIs0CWmiLIMl/YgRP9ny5cu9TxPFh6VBWDKEfkakDywnmzdvHpvot9SYexvAZHrhwkU2YcJ4W7t2XXQ0+2EZINoXm9WVNbjHWrZsYS1atCj0PUa/N336dPvll9ItvuKZgLcZyzCVVngWV61axV/2sini9kBiWv5ITEsjdLhsUsBmA3KPEEJkC19++aV17NjRGjVqFB0RQgixNZiAfP7557brrrtuF2sCIUTxGDFihL9IZAwkso+JEyf6OuZdu3aNjohkSEzLH73KSSOsOcJNyZtdIYTIFqZOnepv74QQQqQOE5DJkyf7BlZCiMyDzemwzhfZCesBzpkzJ/omROGRmCaEEEIIIYQQQgghRIpITBNCCCGEEEIIIYQQIkUkpgkhhBBCCCGEEEIIkSIS09IIOzWxy0b58uWjI0IIkfmwg1DVqlWjb0IIIVKBDbDYCa9KlSrRESFEJtGgQYNSvdOjKB61a9e2hg0bRt+EKDzazTONrF271ubPn+9bdWubbiFEtjB79mwfTEpQE0KIwjFr1iyrV6+eBDUhMpCFCxe6kYQEtexk6dKltn79ehdNRf5oN8/8kZgmhBBCCCGEEEIIIbZAYlr+yHxKCCGEEEIIIYQQQogUkZgmhBBCCCGEEEIIIUSKSEwTQgghhBBCCCGEECJFJKalkdWrV9v48eNt48aN0REhhMh8Jk+ebL/88kv0TQghRCqwzsykSZNs5cqV0REhRCYxZ84c+/nnn6NvIttggwk22RKiqEhMSyMMlkaOHCkxTQiRVYwbN853PBJCCFE4Ro0aZcuXL4++CSEyiRkzZrigJrKTuXPn2rRp06JvQhQeiWlphK1158+fb7m5udERIYTIfHhzt3bt2uibEEKIVMAyjf5z3bp10REhRCaxbNkyW7FiRfRNZBsYwuhlsSgOEtOEEEIIIYQQQgghhEgRiWlCCCGEEEIIIYQQQqSIxLQ0k5OTE/1PCCGEEEIIIYQQQmQbEtPSSNWqVW3XXXe1ChUqREeEECLz6dSpk9WqVSv6JoQQIhV4wbrLLrtYjRo1oiNCiEyiZcuW1rRp0+ibyDYaN25srVu3jr4JUXjK9+zZ89bo/1nLtrIWQ0SrW7euValSpcxZqG3YsMEX6YTy5cv/Kv/scDpz5kz78ssvfSHz6tWrW8WKFaNfk8M17KBz0003Wdu2ba1OnTpWrtyv9V8WBn388cdt1qxZfh6LSQ4ePNi+++473111woQJvjEE19auXTu6yuypp56yqVOnelpKm1CwZs0a30GRNHbo0MHTuHr1av9AvGD7xhtv2NChQ61y5cpWv3796Gjp55dffrEHH3zQdzmjbhGjSwtTpkyxb775xttHkyZNbIcddoh+MW9P1A2UlnbDblMvvviitwvKMt2Cfs2aNX0yyL0thBAiNRgL8ZzgGZ5s/CKEKN1Uq1bNxz/x40CRPTB3oo/e2pxUiPzQkz2NMIHlhixrQhqwtfBjjz1m3377ra1atSo6+j8Q0N555x178skn7c0337TJkydHv+QPu6IitPTr188WLFiQ7y6p7JJFvKNHj3ZRb/Hixfb22297PBxHFHn11VdduOE4u2sBAhTXlMZdXBD/Xn/9dc9PAIGQfIwfPz46kgdiIsIUu8lmEtTb119/7eIUAmhpgnbx0ksvuZj5+eefu7AbGDFihH344Yee7tICkzTK87nnnvP2n24Q0zSQFEKIwkP/me4XHEKIbQMvejGSENkJYhqCqRBFRWLadoKJLwITAghCAhZYiFAIRog9CCQIKmypnkwkYXLPObNnz3aLMEQXrJkIN4hF/CVMrg/HgHOJM/4Y/8fq6eeff/Z448MJcN2SJUs8Ts7hfM4hLfPmzbMPPvjARo0aZYsWLfJ4gxBEnhB73nrrLU8rAteYMWN+FT6QVsQAwid/XMtfwgrnJ8s7aaE8Qz4QOvi7884725577mktWrRwa6NXXnnFhT/Oo7y4Jl6k4zhp5RwEvJBHzuFcrok/H0gP5RmfxpCO/MqTcwmL/BIu5Rfywncsoj777DM79NBDfSDOeVjZIexMmjTJ80/4pKVz587WtWtXt0rjO8dDuOSB+uD/wO/UIWmijuLTFOAYaeEcziVNhSU+f/wlf9Qr5RAgHtLAsfgypTyJn/ql/Ye0A+fxnTAT0851od2F3/gb6oFPqvXA/Ug5I5whYCLqhjRyDu2Lco2HeChvfuf8xPSFsuAv6Yxvv0D8hEk64/MA/J+08xvhh7oPYBHbrVs3++KLL1yo5nchhBBCCCGEECWD3Dy3Ez/99JNP1plQM2FHKAmujxMnTrQhQ4a4MIWogqiBas6bESxQmCgzYR40aJCHg3sjk3T+z4QcUQV3LCbfH3/8sVuU8GaFv0zSmYx/+umn1qZNGz/GeYRHnKSF/yMmVKpUyePkjSqTfH7DdRIXN4QphBYUfUQMrh0wYIDngUk+1l7kBUs90ot49swzz9j5559v06dP93B33313vz6AsDBs2DD7/vvvPQ6EA8LBwuzss8/2dQsQIhLzjpD1ySefWPPmze2ggw5yIYPv7dq1s9/+9rd2wAEH+Fp25GHgwIG2zz77uLj27rvvuuk265ngM084lPkPP/zg6aUeKCsgndOmTbMff/zRGjVqtDndpIc6xH2V+CmzUJ7kgzKjrDiHa0J58p14KEPqnnxTjpQXYh75I64bb7zR00iZUWeIOIRDHOSHug6Wdbj3cRxrL8qAMhw+fLj/JUziJS2hnilfwkKs4x5BsEHkId5QBsRLGkkDaU/1XqJeCIM0UqbEFyzQaIu0Z+LC+m7HHXf0OiD9CG6UB1aDxE85IqjRTkkD+SMPlFdiPRDnV1995fVA2+NeiG/XyeqBa4grxEveab+cy33HedyDtFXiI1zqFbdKhFqETCBvXEub5P/8Tv7CvUi5cZw8ES5lwvnEQzoQR/ktlDv3AtcSX8gb8ZJv8kQ+CJf0UTZ8aHtYXjZo0MBatWrl9SqEEEIIIYQQIv1ITEsjwWom2Zphifz73/+23r17+0QfIQbRAYEH4eLpp5+2999/34WMsWPHuuiD+ID4hRDBpJz1kXBB43wm4JzHdwSR/fbbzyfWCCrnnnuur/nE5BqhC9ENseXKK6+08847zwUKRL3nn3/eXn75ZReMEA9Yh4s8kCauQ6S45557PL2EixiAK1y9evU8rvfee8/dEBFtSDeWXQhUpBnxAEEMweC6667zOBAvmjVr5uEHSNdDDz3k5YEYgdiAcIBA8Zvf/MbFNASuF154wYU5wiA94RyEjSCmISJirYOQhkAFpBdBAmsvBJxEMQ0BETfU/v37e/oRohCwEHNIJ99vueUWO/jgg11YQdjkN/J+++2321lnneVlFcoTK7hQnohGlCd5YN02LMzuuOMOTxMug5QZxxGCKC+s0ojjuOOOc6GEsiVd1DNthTCxgsIi7dlnn/V8cT4Czh/+8AdvI4SBSyh/KUt+++ijj9wykO+In4g15J86RLRBWKKeiY86oG1RL5Qha7elumYWcd55551eL5QhZYuQSX4po44dO3pbTBTTELTID9eQT9KKMEpZt2/f3tOI9dXf/vY3O+ywwzbXA2WBO/Ddd9/twitx0FYI67XXXvN6QLgiPsQr6oE8kc677rrL2zPlSz2QDuqV9BEnghX5wPKLa2hziWIa7pW4MVM/xEsacS/ea6+9vF4pN+4v7lHySBtHICNt3BcInqSFsPkQFqJvw4YNXTjr06ePt03ywXX8jjDJoricQ9uibMgjeSBt3Pfpgn6NOChrIYQQqcOzhL5za+NCIUTpg7EV87tUx78is8DIhI/qVxQVzYzSCJNbJt1YGKUCognWU4gACC/HH3+8i2QMuG677TafMCMG3HDDDXbvvfe6aMQNjyiBpc0f//hHd53EvRIRht8KC+IbbmxsDoAIQ1pIA6JE3759fWJPOskXVkEIPwgHiGOIfsccc4xP3LEA4y8iHb8/+uijdvjhh3sciF4IN5yLtQ0CAw8nhJoADyo2EcCqhrwidP3rX//yMg3ubvwl7wgfIe+kB0EhWd45P3y4hrwgjCCQJBMFCOfPf/6ziyqUCWkgPwg1iEuIcIgKiGoIPYCohQCFsEPag2iCAPKnP/3JyxPxj/KkzMhzSCt5Q2RCVMWiiLgQHwmb+ogXr2gb3bt3t0MOOcSFJMQVyinZDkOEj6AX6vCf//yni0u9evXyskcopdz23XdfF7eoW0CE7Nmzp7fJRx55xK9FwDnyyCNd+ON36ilVEIkQJWnb5JF2gbUUeaVNJQNRDWGS9kK5kc6TTz7ZRSoEXQRS6oHJCYJgqAdEJL7zG22M+mXNM+IJ9UC7RjgjLVh4hXognZxHmZK2K664YvPOPoioF1xwgbcFhMn83CcRpomPMqN8KT/KnDzQ/gNYnCHIcW/THkgbwhrtk3hIJ+HQZjlO+XF/03Yvv/xyF9lpm9wbtDuERu4lQHTlHqQs0r0OIOVP2oUQQqQOfTnPWZ6fQojMgxeUjNVFdoIHEi+qhSgqEtPSCJY/WJ2kKqYx8cVyikk3IgWdNZNqRBlEHyawiDJY3zDx52ZHUGOyjEUVVkuA+IbYghBTWHD1wyoGCyXiJU7i4P+AFQyiD65xTOyZyPM7ohLHuK4gGEAiQmDJc/TRR7uVDhY+WEIhSjHpp7x4WJEv1jfbbbfd/FryjbVXiIO0Il4hyCAsAXk/8cQTf7WtMelDmMAyD2s1xD7SgCBBOSUT0xAjguURFkNYESF+IdhQ9pT5SSedtNnNjzqhLLACO+WUU/z6UJ7kD1GH8iRfwXqI8gziCr+Tdqz74t+IIBQh8GAhVZQ32dQL4WJtR7hYAGKJRXinnXaaW2aRVnY+5S9iIeVFnhBpEfFIA2mnfhCwaNtYXHFeqpC/E044wa8nHYh0Xbp08d+CgJcI7Z5zEc4QvxDzgrst9wL1Rv1T3rgcU56ISYiHnIfwRv6oB9JPWVC+oV3TpiC+HmjryeoBsAilPSKWIqgRRjK4ljZCm0O0RCyjrIiXsgzQThFEySdg2Ua7olywRCN/WJ/yPYiqtC+EbNot4fGhDEgrImAQJvlOWSN6xceZDohTYpoQQhQOxDRc97HaF0JkHoyNmf+I7ERimiguEtPSCIIYk1gGT6mAsMREngk01zIpRrRAzMG66YknnnBBBwsWxBDOQ9zAOoZJPhP4AIIJk/LCgjsbgzzenCIgEScCBkIGIh+TfoQhBKkzzzzTLWGuvvpqu+SSS9zqhsl+QfA7Vl1M9FkHDOsf3AZ5MPEbYhV5Jx38RfAhb0C8Id+AMJcs71hnkdZ4EFQQhU499VQX0P7xj3+4xRNiGAJSMhBYsOb6z3/+46Im5YKYRbqIG2Hm9NNPd3EDgQyBgf9Tjwgh5JF8IIRRnlhAxZcn6SaMYBHF/7F8Iq3x0H74FEVIA8oLIQ0RkjCIh7ipS8QWjoXjgFDDh/aHAIQLKlZkpB13WiykEN44h7JIFcLHYjIIVKSH+iW/CHjJQMzD4o52j8DK/cD5xI2oC4hNPXr0cNEyvh4IOwhShE/9UY+hHv773/96PSBE0baC6J2YzngIizKjDZE2BOBkohLpZbfY4BZM2LQzBLt4cZ2003ZD3YY2wb0b2jDp4P/UBfkgPvKJxRv54IMbMeFyXbBMA8JNtf8pDJR/fD6EEEKkBn15YZ6dQojSA2OsMG4X2Qd1Gz+OFqKwSEzbjjBpjhdSEDuYDLOGFOLVEUcc4R+ssG666SbbY489XDDgOm78+JsfkSmxsycsBAwmwWGCzTXxrmpM5AkPMeHAAw/cHCef66+/3q1osDBijSvWLcNSDOsf0oEVDkJLSEfiRJ7/I4ggmCHGYNWDuIEFEflmgMnaUkA6OD9+0s7gk7SGMMkL4kZi3hEwE/NOnlgnDhdFrI6w4sOtEZEpGaSFdGFRxJpoRx11lJcBGxcgWJAmxBEshrAywxIKF0QEuL333nuzSIVIQxqTlSfuuoSN9RuE8xPhGKILYlB8eXI+xB9LBueR1nA+f0lT+ATC/yln/k8dANZS1HtIN4Lk73//e2+XydKbH5QZYlg8oX6ThcO5iFWIybgEU3fEH9YtC+2CvGEthhAd6gFxlnqgXZLf0K4RK5PVA/dXqAfyXlC+aHf777+/5x/XSsS7AGWHBRnuoYhkWF+Sbtoa9w1pjq8v4oq/5/nOh7SG+gKOcR1xcz55JQ3x+bjqqqu8XQdhmbQg+iLE5ScYCyGEEEIIIYQoPhLTSglMplkwHBEG8QbxCtdNLKn4y1pXCAOcw8Qa6yeEB2ASjWAV3L0CTM4RfnAfZZLN5Bxz1nAdEBaWXVhXYQXG5Jw4+SAI4JbGxBxRAOs33OtYUwqBClc6BCiELNKP4MGGCEHYwioHiyEsihDiEAOwHOJDnrAcQ5xAjEDkQhTAAgeTatJKWFixhfAQrMgPIlNwEwx5Jy2JBEssBBb+j0CRH4hzxEcZIiSxiQN1QDqCOyDliVUT4gzCIGIiYh8ugAHSRx1Snoh58eVJvnHVC5Z3+YHIQziUQxCQAGEFsFSKF2jSAWIS9cuH9OFui4sm6UbYYjdL6ghhB2sp3JkRsgqCeqJ+aXvUE2WLuAqIq4kESyzEUcQiygvXUMqYMAKhHhAmaV/UAyId66UFaNfkhXqgDSfWA8cQLFOBdkM4iMhYU4bNHIB64F7keBDBEWA5n/uuuPVE+yUf3Bu4qMbnAxdxyoeyAO4T3KA5PxwTQgghhBBCCJF+JKalEQQlJtHxFiapwjVci0UUVjasz8SOlFhu8RfBAFEHoQ2rHKxPcF9jB0BcL9n1MCzGHkAEQxTCHQ73Mxbvx5KM9TsCTLoRAJj0Y13Dwu+cQ5jsUonlFeIN4hWLn+MCiNsm4gGWN4g+CCwIMJ06dXKrnRAPaUPsYMLP4uq4SLJmFx/WMkMMQMBCcCHvQRwhHaSXvCP8BUEp5J24WLst5J1dE4PgVVTIAyIWIgzlTT75i1CH2148iGfB9Y4yCOuAQRDbSHNieVJ+lOfWBBZEE8oMV1FEvnA+QiplQJoIl3wH18fiQv4Ry7BCwzKMuqceKQd2AOUT0sIaeLRP3HYLAlEMwY20Eg7uypQZQhZCaiKIhYhGtFuszSg3rqXtJXOtZIML2g9rHVAPiFgB6hJRFJGNeqAuCY+/5I311wordCHw0d5payE93LeIcgio3FfUc2i73COFjSMR7nPWGERUY3MD6iG+PSFmhzgQI9lYYaeddtpsrZYuaHeydhNCiMLDuIBnrBAi82CMFzw3RPZB3W7NyEGIgijfs2fPW6P/Zy1FEbeKChNORImCrKAAkYhzcalDJAkgSDFZRyhCQGMhdnaXRGBDbGKSjOCDSMDvQfhhMwMEAkQYxDEsjYKbG2EwweeDhQ/nIrwhaDFZx0oI8Yfz2CETkQTBASsiLJIQJhAHHnvsMU8XYhofLM2wMCP95AULMOJg90Gsd0gPnRRiAFZu8TCwxLoHayVEGlz0goCEgIJYgPCCGIgAhQCHxQ1CE6IB6Qt5R0QhDHaCJC7CRYAhXXxHCEgGeaAsKXPORczBCordJ1ncHtGKvGOhhtiHiEZbQrihHKjjY4891uOIh/LESii/8sRiDaslviMOku/49kKZIZK9/vrrbh3GQJy6pK6w9kJQQcxCSEGQREyi/KlXHvoIKl27dnVLKcKiPLBYwoIKy8IAwiX5Rdwij4RB+rC6Q8yifIMwxLVYRXEO+aJ8SBdtIBkIuKwxRv5oD5QX4h91hKswZUQ9YnlI3NQB5Uo+aRPsaEn586F8qB8sJ+PLmvNJH22JtGG9GQ9WgLQLxKf4esDij/IhPNoWoldiPSACsj4hx0gzUJbcdxynLrBwI+08hIknXoDlHuY+5Hws+2g/CM2UN+2VuAExkLZKOJQ9cA1lRxykC7EWy0oEc9YcpByDkEb6KDss/8gL67axniFpTnRd5R4nftow+Sxsv0h5UwZCCCEKB2OXgpYTEEKUXhjD5TeXEJkP43jmsEIUhZzYJKx4phMZwLYU09JFmLQjniCgIerE54PJM4ILogzWMkzmWUOJ9aX+7//+z4WOAJNoBAqup7PIb0KMAITYhiUWE2fiRNwArF+wNCIc0oZgSOcTfk8XpBVXP4QW8o2gkEh83hmg8oBLVzoIO1geUQaUY2L7QZzC1ZXyufbaa10ISQZ1QnkiXCaW59ZAeLnzzjtdsDnnnHP8+m0JdU26aRNYRcUPItjMAVEGKzZE0GRgDfb000/bRRdd5Gv+4V5MXTIg2dqEgnKjDig7LL5or8nuYerh0ksv9bK55pprklq7QXHqoTAQB/csoiz35NYE9cLCvYGoSVlSJ5Ql4ibg5oy4ziYibHiRuLMv15J/hDjaK79rYieEEEIIIYQoiOJ62mQzskwrpTARxxoFMSfZel/kiYk0wgDWSIgfWN0gQAXLtEAIC/GLa/IrD45zHWGGOMO5/MUCCEEkCHIlIUiEtBIPaUmWVo6FvHNuOtMRyoByJ4/x5Y4og9XRiy++6K6OWAriaphf/FwbX56FSSdxs5Yd4geCVbw4ui0grbQrRLTEekDsxPIJS7Ag5iSCZVqwkMNijjKg/dGGktVpPKENcA3CVOL5iLm4or7wwgtuXYfFIOulba0eEJ/S3V7ioSxotyUhMgP5oDxCWRJHKBtEbizvzjjjDLdU47x4uJY2hQgddghGgONe1ts4IYQQQgghhCgcEtNKKaSZCXD8hDkRjoffEXpwkcR9jMXjE0UOwuJTUFnEx5ns3BBfQWlKB1vLN4S0lEQ68osfS6j//ve/7nIbdrvEMi4/uD6+PAsD9YcVFW58uLfmJ1qVFPFpTywH0oX7cEEm71hPYeGI6yJupIhohJdKfRUUNyAIYX2FGISIhqCJJVh+xIdX2HooDCGeko4j5CO+bBDPcB9GSEPQS1ZuXMNvtCUsH3G9xXUUYRJLUEQ1RMeSTL8QQgghhBBCZANy88wSENNYZwmLFVw9ES9EekFwYF0sxAbKmHW8EB/Er0FwZC0yRDdcgtN5D2KFST3QxqkHwlc9pA7rtFF+rL+GmIbFGiIcrp+ss8c6bXxP9yYGQgghhBBCiMxCbp75IzEtjYS1nljUXtYdQojSCv0UGzOw2QaCGmsFAgIxYhqbJLBJBOIaIhvrwQXXZyGEEKmDFTXu+XrpI0TmwRrKzOm0AUF2wlrErA/NUjAifySm5Y/EtDSCaxsLrzMBxRVLCCFKK2yWwK6svXv39nXowoMSiz8mfQhrrAvIjq38zmYYrOMnhBAiNehXw67j23ojISFE8WHHdcZE+W02JjIbdu9HUAs76ovkSEzLH4lpaQQ3S3ZeTLYDpBBClCZ4E8c6gLh9xj8k6bt4Cxs2VMDdE7fPq6++2ieEQgghUgOr3169etlRRx3l61oKITKLjz76yJfQOfDAA6MjIpvAO4Pd7o8//vjoiEiGxLT8kZiWRlgnqm/fvnbxxRfLHUoIUaphB1B2AL7zzjt9HTrAopY3sOzkyuYXPXr0sGOPPdbeeecdt1LD6lYIIURqSEwTIrORmJbdSExLDYlp+aOFvUoAxDt99NFHn9L6Qfh/44037LHHHvO1HrFA4wUAlmdXXnmlPfHEE/7bSSed5OtIaA1IIYQQQgghhPgfmiEJIUQZYtasWb5O2quvvuounqyDdtppp9k999xjt956q5199tnWtWtXP47LOtZqCHBCCCGEEEIIIfKQmJZGcI9q2bKlNh8QQpRKZs+e7a7oQ4YM8d06sUK7+eab7bzzzrPjjjvOunXrZi1atHA3z3gQ1hKPCSGEKBheRDRv3tyqVKkSHRFCZBJsHFKnTp3om8g28L5o0KBB9E2IwqM109LI2rVrfUdPJqNyixJClBZY64B10X744QcbOnSo79i588472y677GKNGjWKzsofrNnq1q0rQU0IIQrJzJkzfUIuQU2IzGPBggU+ZpKglp2wsz071jds2DA6IpKhNdPyR2KaEEJkOSyCvXz5chs7dqxbSTRu3Nh36xRCCCGEEEKI/JCYlj8S04QQQgghhBBCCCHEFkhMyx/5IgohhBBCCCGEEEIIkSIS04QQQgghhBBCCCGESBGJaWlk9erVNmHCBNu4cWN0RAghMp8pU6bYL7/8En0TQgiRCrjGTJo0yVauXBkdEUJkEnPnzvVNCER2snDhQt/pXoiiIjEtjTBYGjlypMQ0IURWwcYFy5Yti74JIYRIlTFjxuhlhBAZyvTp023OnDnRN5FtzJs3z6ZNmxZ9E6LwSExLI+vXr/ebkp3zhBAiW+DN3Zo1a6JvQgghUgHLtJ9//tnWrl0bHRFCZBK8SJQYnr2sWLHCli5dGn0TovBITBNCCCGEEEIIIYQQIkUkpgkhhBBCCCGEEEIIkSIS04QQQgghhBBCCCGESJGc3NzcTdH/s5acnJzofyULfvUjRoyw/fbbz3bYYYfoqBBCZDbfffedtW3b1ho0aBAdSS+sJ/Ttt9/aY489Zo8//rjVrl3bypVL/q6Hfvbuu++2nXfe2c444wzf+GXQoEG+4xbrE1WqVMkaNWpknTp1snbt2kVXmd1xxx3WvHlzO+SQQ6xNmzbR0e0D62p+9NFHBS56y3Nrl112sYMOOig68mvIL+Xx2muvFbhWJ2XZvXt3a9WqVXSkaBQ2vh9++MF3gj300EOtW7du0a8ly5IlS7y9fvPNN3brrbdufv6zLsqGDRusSpUq3kYCtDfyRRppU5kCu8vddtttnm7adEndm0Vh1KhR/qlataodccQRVq1ategXs+HDh9uiRYu8P9ne92Fg3Lhx9uabb9qRRx5pu++++xbto7jQtmiL9Ed169aNjgohMgU2YKpYseIW4wmRPUydOtXHkZ07d46OiGTwLBPJkWVaGmHA2KVLF6tQoUJ0RAghMh8mgghcJQXCzOLFi23YsGG2bt26Ah/aCCJMfmfNmuXXISq8/fbb9u6779ro0aP9hcYLL7zgQspLL720OaxJkybZjBkzbNWqVf59e0KaSAuDdD7ff/+99e7d2yf0iA3h+Pz586Mr8ofyCufz+eSTT6xPnz7Wv3//LY4jJqUDhE92J0wlPiYgiFfb8pnIjtqffvqptWjRYosXaR9++KE9/fTTLvLEg3BSuXJlK1++fHQkM6AeyAu7zNEGShM//fST34NPPvmkt4t4hg4d6nXB/VhaYOxWs2ZNe+SRR2z58uXR0fQQRPEaNWpER4QQmUTLli2tadOm0TeRbTRu3LjUvNgRmUn5nj173hr9P2vZVpZpvI1nUL6t4hNCiG1BYcUGRC52R0IM4o0f12KtG983IgbwO6LLxo0b/e3g+++/b5deeqlVr159s2Ua4hkTXEQDwuU7ohODW6yAEdPeeecdnxCfeOKJtuuuu/rEePLkyS7q7LvvvlarVi17/fXX/S/WR1iusfsyacSijbSQPtJJGomH3Us5JxwLED95In18+A1xjHywax+7fiHQxF9HOGE3VISP2bNn+/8ZwO20006edkQgyvnUU09165iOHTta+/btrX79+n4uZURew2Sf9IYywgKoQ4cOfg2iJHki7FNOOcWP8dlxxx39PNJKWih7rLgIB7ErPo9AGXAO4RF3fPmkGh/12LBhQ2vWrJn/HxAzCY9ypPzZKZZ8BGsgjmG5RDlxLOQRSDuWcZTD6tWrXawjTQHKZuDAgV6WF110kdWrV8+PU7/vvfeeH8c6sUmTJh4/+eZDW+IY4REuED/5J73EQf5JN+klfRxLVm6kkd85jzAS05gKtBfSHOqKth/aaBAmKYdXX33V2w9tmrYNXEu9hnZN/OEa0s8xzklMe2jXoY75pNKuQzpDu6bdYImFQMzu5pTFMccc42nnOsTXiRMnevsg7QHCp16pf8JIHEuFdPMbdYKYDoRLG+EYZU4boH2GPEAox9DmQ52E3wmDc5544gk78MAD/Z7jWLrIRLFWCJEH/UU6+wNRuqBuqWMhiorcPIUQQqQNJqtMpCdMmLB58otVG1a7iERMKpmcDxgwwCe3fEf0YHKMJQsueohdHGdijJUL7oJMhhGdEGb++c9/2rHHHmt/+MMf3MLllltucbexv/zlL/6WkQk57nsIaA888IAdfPDBdt5557mbxplnnunuVljIIOAhIpBGRJ+99trLhSAEFYQ4rNx69OhhderU8byRBoSAr776ys4991wX7TiX8xBqSC8DMybPxInAhGUWlnTkgXIgn6Rvzz33tK5du/rEnTzihkp4//jHP7Z4C45IgTDy+eefe9kiiFAOCBFczzXxPPfcc/bxxx97Xn7/+99HR/MgrePHj/e8I3IgqJA+XDDJN9YzlAf189lnn3n9IDIgolB2pJlyiufZZ591gSRZfLQDBBLSSv3AG2+84WVEWvgNAQeh7bjjjnMxhvokfsoQtwtcGEknZYsrMOXPtYRBvfA75cV36gCBCYEPK6MgIlE/fKdO9957bw+Xcj/88MO9vZFH0shfxDjaEAIW4dCGEQ6xzsSakHaN8EM5HHDAAX4cMYc2RBopN87jOsotiL7xdbo1sLD88ccfvW6pe+KjXkgj5cw9MHPmTHdzpj3zF0s8jmHdiftwaNfcS9QvwiyCU2jXZ5111mYBjnZNG6UszjnnHK8PzsVKkrTEt2vcSlu3bu3/5zfOIZ3UHe2auHC7pr0jgHEt9yfXIXJx73IN99Vpp53mZU69ki4EQto3YdNecBFlksMYbvDgwZ4/yhSRjrg4zn1G2riXQ7ljSUJ7In/kjbApF+oz5GOfffbxeg0i7/Tp0+3888+3008/3dNGGQshhBBCbp4FIcs0IYQQaQMBBisgXAGZ0DPJHjJkiE9kmSAzGe7bt6+7gSESYPnCRJgJLyLKZZdd5hNcBAomwLg/fvHFF34dQhRiC+ITQtL+++/v4SJgIKywvhjXMoFGMGKyzzpIiFrEiYiGyxUTfMQ8wkJwYCLNZJ3BAuuKIeQhBiBsHXbYYb4eFccQWPr162cvv/yyiw5Mykljnz59XIhgIs8kH+ELkQjRgTj5/u9//9vjI6+IDAg2WEkhYFFmX375peeR+OJdwhAOcGPt1auXlyfhkzbCIV3EEQ9CBeuUBREnHsr4rbfe8rwTFuX09ddfu6hFevhg3cN6bs8884yLVpxDXSIikT7Eo/hnakHxUS7knXCxRIK//vWvLrJR5gh6tA/cMhENKUuOIyAhJlFeiF+INZQP5Y4YGARGRBjSiMiEKEheSCvCIEJXAJGNNoQYQ9q5nrrabbfd3PWTvFEXlC11HoQZ2iZpIkzaJuFQH7QD2hziECIVf6lvREXETOqTOqZcEK5oV8QVb2VXEAh6//nPfzxdtHnqinImHeST/BEfYjHtmQ/CEecjpFJuxImohrBFvAhM5J2yJ49YiyFi066JAzdp6iu0a9oY37l3KSuEXOoSkY37CWGY/D766KNbtGss/KgbyhgBlnRRL1h8UY/cZ5Qh1nTUGxA3+aP8iQf3Veqf30MacdlmrT7i4Xriwl2U+5/4yTvxUuaEh0UqgintBUtWypRypL0ghnMd7RKxMbQJyouw9thjDz8uhBBCCFEQWjMtjTApY4AnhBDZBBNN+rdUQFS56qqr3GWKBdLvu+8+O/nkk30CzOQbAeWhhx5yS5W77rrL/vvf/9pvf/vbXwkNTOARWZjo33DDDb45AQIPFjiJkDaEDybTCCYIL4gYTIgR8BJfqCAIYUVFmFjNYL3GZB/rHMQGhAIm40ziEVNIM+IEE20m+gheiHccQ+zDooY8I4CQp5tuusldTxH9KDvg2UCesL4jXiyDtmathJUOIgFC2gknnOBlSXkRF/lFYEAgSAXCQiRDYLzgggtcBLn33nvt5ptv9rJC8EBowPKL+BBb/vWvf9n9999vf//7313UeOWVVzze4kJ54ZKL9SDlddRRR/mmEoiD//d//+f1jCUhwh7potw4F2Hmj3/8oz388MN2++23u0UWaaTOKQdELsQehLF4CB9xDbHv2muv9fZHOMHiMB7KCXGRPFNGlA/tABdkxFrqD2s8LC0RavjQDrjmzjvvdKs31ut78MEH/S/CDPcCAm6q9xAgYpIWriW9tFGENEQh7qVkIFBhrUn7+tvf/uZpoB0jwiEuI+xikcX9EARu0k4bQ2jlnqTtk85Q17/73e82t2vKDAGPeyC0a9oMYTz11FNeR9QJghogTOP6iwjHNcnaDmnBug6LtXvuucfjue6669yCjDQguAeoW8KkTEgT9wHCGOWBVRlpIAzSQ7tB1Pzggw+8TdPHUJ/8Tp1yn+OOGsZsWMAhUuIeHh9nOihM/ymEKF3w/En1OSsyD+qWOhaiqEhMSyO8KWbypE5XCJFNMNHGaiQVmJRigYKlFkIT4k8QpAgHyxImrLhpYi0DTGIRb+LBEggrEwSA8BsTb4S5xF0pmWRjvcVEHlHs4osv9ok0669huZUopiFKIN4hur344osukJAmxDgEGX5DuGH9MiblHKNfR3QgTSeddJKfQxwIFVgmkU7yh3ULYgITeoRALG0At8Djjz/eBRzEmVRgUk94iB4XXXSRCx2AQILVDiIBIk4qIEwh/JAPyo+08iFM3CERJMhbqB+EJ/LNOVyDtRwiGL+Tt+JA2Aiaoa2wzh2DWQRD3OsoH6yGEBvJP9ZrWIWF30gTZY/4hlBBunn+Ul6EQ5hFBRdaBKBgjUgbRcCl/qh3QOjB6op2RbkifGFRh3UVghaiEWkkPdQ3aaPtBAEqFcg/rorUD20Nl0TKibqgLJJBOwSs8LD8pF2H8qNtEw7pwb0SgYtjlBftAks82id5oi0gulKOxE9eCIf6QOBDvAz9AW2ddBIu4cdDm8G1G/EZqzLCSAYWZLQ5BGiEVIRL7mnSED/JwbqR+5v7F7D2o74QLHFBJn4sUzlO/0E6Echpr9Qh+eB7uAfJf7h/+I5gzP1amHraGsSNkJhugU4IsW2gb+RZKLITnnf5PZuESAWJaWmEwR+DXAabQgiRLTAJRUhJBUSD66+/3q2eEF6YpIZJPmEwCWcyzCSY34DvQSgKYMmDcMB5YfIMTHhxN4wHtzQm2VgCYZ3CZJxJ+dFHH/0rIQ0QyLCywYIHoYrwSCPxIYwA8WI9xuQbsSa4HSLo4GJKuEzEsWxBOGRNLqy4+GBFhECAmBCEJ4QjjhUGrH7CelVcG8qLcPkQd7Ca2xqIBIg6iH9YEMWnFasZyhURiPLgL+6PWDaFc7Bew70vHRY2lC11BggglD8fjgVBhrzy4bmK6MFzlZ0hsUgKacIyD4GJ8qEMwrXFSSNh0BZDWSM0hvRRh4EQJ22GegiiDJZbWM6FNGKNiXBY2DQRFwJtgPZGnZOu/O5FRDTaNSIa9xlppqwpu9CuCePss8/2sQoTCNo17RtrPkQoIC8ISrhkYs0V8kJ7QDxDsAptjjhoO8kgzQhX9AfEE1w54yEc7ltcT3FJRTzjXiT/idZ8HCM/AeogtJuwPh5xcoz0I3RyDyFmca+Tj5AX6pnyjQ+f/3M8WZ9RVMgf9xx5EUJkHhLTshuJaaK4SExLIwzEgsuDEEJkC4gFqbwkQPjAygX3qauvvtoX6cfKB8sRrFyYqDIRZ6LLuSFMwk+03GBCzQQZESAIAYCQkGg5gsCA1QwubKyjhtiFRRrCQSLEgzCE1Qouf7iYYe2GRRET9TC5ZqKOCIKbKHliHSaEK8IP4iB54jysby666CJ3iQsfNhTAvRAxAZigk87CTNTjxRDyHdJG2fGhfFK1wqLcCY81vnDzjE8rYgYLr2OFxXnkD8Hlyiuv3HzOn//8Z3e/S+Y2W1gSBQv+Hz6JcIwy5C9uiJdccsnmNAXRlnXVSDcf6iM/d0LY2vOZ80hfPOFYCAPiwwv1wP+x7rr88ss3pxG3S9aJC5Z4qYKolCiahXsmXlAKINYgViE8XnPNNW6lSbsmXsTokG/SgFUj9YhIjjUYAhfWjiFc8kKesPbCPTLkhQ+urGwMEN+ug5CVDNoc9yNh0S8gLAUQIpnIIJLihss9RDtkUwksAWnv8fVFHcTXDXHHfwL8n+toD+QXy9cLL7xwi3zggk7fFDbUoFwRkhFSC1NPqUD/Fe5dIURmwXiDvkpkJ9Rt4phSiMIgMU0IIURaYEKKkIEVFJN4JrG4yyFC4WrGxBoLGFzYmFjjqsckEws2FpOPB0ssrGAIK/xG+LinMQGPh8kzE2DEszCBjp9cx8PACeEBAQ9RAfc5hAHSF+8yyfWISocffriLDli7AbsHBpiIY63FxJ1JPjstIkog6iHuES55LiqIG1jCkS82dUAIJC6sirAmwl2Tcsovr/FghRN2YeSlD+IGaeWDiEZaCQt3OOLkbTzCG0JVcCvFAilV8S5dINRQlrhV0raIP5QzeSDNCCCIaLQr6iyZFQGCEm0trBOWTihT2jVuiFhDkV52tSSNWM6RRtyGaSOIuFhGxotKySCd3CMIXaSbN+dYRpJP6iUR2jXiG3/DvUedEh/3X4C2QrtC6GVZCtYUo4yx7Ayw1iDtmvuN3+LbNfck4aYqOJFn7knEWdJC28VCEqgH2iIumcRJuml75AEBu7hQ7rR50oqgldjmuSeC1SuTKcqXfCcTK4UQQgghEpGYJoQQIi0waUVgYqLKWmSvvvqqLyKOJRiWNkzMmTT36NHDBQXOeeGFF3wHQoS1eJjQMnlHhCAMznv++eddhMBCp6ggbjFhZxJNeKzrRviIU0ziE2G9J+JDqAiCSQCRgPXcCJNdMlm4n7BYoJ68s2ZacYQbwkVEwhKoX79+Xl6Eze6EpJW4g5Xc1uA8BBPEMsLCDZY0Eh5pRrwIQg3WVWz+QPngSknZ88GNcFtb2CDGIKBhsYQo1KdPH08XO3uSdtbiom4oZ+oGYY215BLrEpGEcNiFk7yzxl4yC7aiEAQ/LKtwKSRt1BUf0ooQS7mRRtyGEbBYR7AgELIQmSh/6oc0k382OEjcwRWCoEcdUle0a9KBCJesXSMSk3+EZa6LF+ho16xpiCUlu+CGNkL7ps0gPBemXSPgYXlGv4CoFaxQqVvub6xCEQ5JL+GzyQJid3GhzSN+IwDS5kP6yQ9x4ZJOPvhwj7MpA1am8e61QgghhBD5Ub5nz563Rv/PWlJ5a58OeMPKIJNt6hlcCyFENsDi4IgwieuaJUK/x6SeySnCCxN53M6YRDNhRnBA0EH0YHFxhDFEHK5BJECMwzWN70y0sYRChMB9DZGCdGApxe+4jnINFiXEgVjCRDh+fbV4EDGw5KJ/RvDDOgZBj4XjuZ7jhEHaCDfAZJ9dMBEYWGidXRzjIW88Y5iYs2MiQg7WN4gBpBFrKUQQJuusSUU5Jj6TSAtiYrBois8DoiJxYB1HmfGhfHF5ZEfMRDGNcBBicOOjzOMhLeQD4ZB13vhLWhE3sGTiGqzg+MuzDMGH+iFurL2wSELgpG4CCD75xcc1iDtYtSFgAvXAuYg3lC3XIuhwLm53wfINgYxy4Tqsuzif7+QfiyrKm7TRPthlM1glkifOwfoovr3yO22F32hLhM9GCJQX4glWUbQrvuOWSFsh7dQj1mbUCWUe6o700l5pL5zL/2k3XE/6iIe8cg8giuK6SLkhHFOeCFjEkwzSx7W0F8LhPsGqi7JnkwbaSbCk4pwgIpIG6jK0ayw4aa+kDwvM+PrhfEQ9/iKe0v7j4RraGWUc366JFwsv7qGwZiD1Q7sOcD+RV+oMMRgog1B25J12jihIuXIueaZcEKDJB+IbvyEk08Y5ThiUMe2YsGgPtFPKgPwB6eMYoj3n0q65nr4jtHnqByGRdkkauIb8IbLhIkv7pO4DlAMvA7iPibcw7tpcSz0Rz7a26hRCFB/6evoi+l2RffAcYxzC+E+IopATG4im19+hFJLqoKe4MLBj0MQAjsGWEEJkA0zmGUhuTUwLIHDgnsbEHkEMQSixH8ZaBiGGiTThImQkg7DoWxE0CAvBJF7MKSphTSrSiOVK/GQfmAQjFDCBZm0uBAvWEEtmFQTkh7DIN+IM4k060hkPrn8M+iiDeMGtsBAGZcogEoGMSX6yF0C8ICL//IbwVZw40wXCB/VG2kg75RwPlmdYISHwXHTRRdHRbQvWV7gn03Zp2/Fug6xPR1tDCI0XbePBeqpPnz6+zhcCLpM58kk9xYs8yaBd0wYRi7hnEabya9esHUY5XXbZZS6eJYPwaNcInqG8092uIcRB2XD/pDuOgto8Qh1rIuJCzkYiYR21ANcGt1v6Cj7cD/RZW6sPyhtBFEFcYpoQmQcvRLjPwwshkV3w8odntsS0guFZJpIjMS3N0Ni2ZXxCCFHSFLVf29p1hQm3pPrW/MJlcMXkGfdNxESEGTZU2FoaSiqdJUEqaeUcKG15yi/tCG1YIGEZySYQ2yvd+ZUbLroIV1gt5icYBTGNxf+x1CxKm8rvGiwk49s1AjGbFWwt/KKkobBsrzgohzfeeMOt/rDQQ9BLhOvYkZQNLxB0jzzySN8tON49Nj+2Rb6EECUD9y/oHs5e1EdvnXAfiF8jMU0IIYRIAMudv/zlL26VwsSZtZf0Zrr0gzUYVmtYISVaGJUGsL7CWiw/S0xgzTCspLp37+7ujukEN9T/+7//8/8jBoU1xcoyWOpRL1jdJVqoxoPAzmYozz33nLueY+GGGyvry+G+juWslvgQQgiRbUhMyx+JaUIIIUQCTLBZIwqXfUQ0XM80URbbAoRcPuyEi2CTThCEWDMMtyXWLiN8tevUwR110KBBbj2I9SOiKIIaQhpr0rGmI66z1J0QQgiRDUhMyx+JaUIIIYQQQqQArsSDBw/2HVNZo48xJhaRWPixEQLiGh82f2ADBAQ3jUOFEEJkKhLT8kdiWhphoV4WHa5fv36JLNArhBDbA6xkhgwZ4hsGCCFEWQdBjTXU2J2VzUeAcR9Wfrjxspsou56yw3DYbZSNQ4QQmQX3Ohbqun+zEzbrYTkPNpUR+SMxLX8kpqURdtD64YcffAv8re3wJIQQmcLXX39tb7/9tk2fPj06IoQQZRc2IWBnUPpErNICCGp8qlatao0bN7YWLVq4oHbWWWf5/4UQmQXLPbCWIoK4yD4mTZrkghr9tMgfiWn5IzEtjbC9bt++fe2SSy4pcHFhIYTIJJ5//nlfCH3HHXeMjgghRNkES7SpU6f6zqxPPvmkr68IvETFuoF16Jh4H3/88XbooYf6zqzHHHOM7+IqhMgsPvroI6tWrZpvMiKyDzaVwfuC/lrkj8S0/JEvohBCCCGEECkwc+ZM34DgqaeeciENEY0Pa6Rde+211qtXL3v88cftpJNOspo1a2rZDyGEECJL0RNeCCGEEEKIrTB58mS3Rnv99dfdvbNNmzZ2+eWX28svv2wPP/yw9ejRw1q2bOlrp0lEE0IIIbIbPemFEEIIIYQogClTpthzzz1n48ePt4MPPth69uxp9957r/3mN7+xvfbay4U1XDy1Zq4QQghRNpCYlkZYoJIFZvU2UgiRTTRp0sQX1BZCiLIGFmi//PKLr5OGYHb22WfbRRddZCeffLKvo9S6dWtfJzfZ+rwca9asmdbRFSJDqVevntWuXTv6JrIN1rmsX79+9E2IwqMNCNLImjVrbN68eW7iL0FNCJEtsEZQ3bp1fRFeIYQoSyCmsdsbLp4IY/SFuHGmyowZM6xBgwZWpUqV6IgQIlNg197y5cv7fS+yjyVLlvjuzI0aNYqOiGRoA4L8kZgmhBBCCCGEEEIIIbZAYlr+yHxKCCGEEEIIIYQQQogUkZgmhBBCCCGEEEIIIUSKSEwTQgghhBBCCCGEECJFJKalkdWrV9vEiRNt48aN0REhhMh82MWO3eyEEEKkDuvMTJkyxVauXBkdEUJkEnPnzvVNCER2smjRIpszZ070TYjCIzEtjaxatcpGjhwpMU0IkVWMGzfOli1bFn0TQgiRKqNHj9bLCCEyFHbjRVAT2cm8efNs2rRp0TchCo/EtDTC1rp0uGyjLoQQ2cLPP/9sa9asib4JIYRIBSzT5s+fb2vXro2OCCEyiaVLl9ry5cujbyLb4EXHkiVLom9CFB6JaUIIIYQQQgghhBBCpIjENCGEEEIIIYQQQgghUkRimhBCCCGEEEIIIYQQKVK+Z8+et0b/z1pycnKi/5UsrJXGp1WrVla+fPnoqBBCZDasl9akSROrVq1adEQIIUQq0H82a9bMqlSpEh1Jzueff24vv/yylStXzlq2bBkdLRg2N+C6QYMG2dChQzd/WDSd/rpWrVrRmQXDxlm33367zZ492+rUqWPDhg2zV1991cfP8Wlhse733nvPBg8ebHvuuadf98ADD/iaQ7Vr19YzQmQdrIfNfVS3bt3oiMgm1q9fb1WrVrWGDRtGR4QoHLJMSyMMIrp06WIVKlSIjgghROaz0047pTwpE0IIkQdi1C677GI1atSIjuQPIlrFihX9b6oMHz7c3nrrLRswYICNGjVq82fy5MmF2kGUjRLGjh3rIhw70y9YsMB3cV64cGF0Rh5fffWVh9+gQQP/Tv6aN2++OX4hsg3E5KZNm0bfRLbRuHFja926dfRNiMIjMS2NIKLxRm9bWcIJIcS2ACGNSZ4QQojCgcXWDjvsEH3LHyZ0Bx544K+s0lasWOEWY9OmTfOdlbEGCyxevNhFMwStY489dvNn//33d0sLrGoQx+KvQTjjWOIOzew4yvl4WGzYsMG/8zeA9dkPP/zg5+yxxx5+jPEucbFj6ZgxYzw9QmQT1atXd8slkZ1gMUwdC1FUJKYJIYQQQgixHVm5cqVbhCF0AaIX7pZ9+/a1Pn362Ntvv21vvPGG9e/ff/M5ULNmTevcufOvxDSsx7A243zErgAi2meffWZff/21uzilSrBUq1+/vot3gJjWokULa9SokVu1YREnhBBClBUkpgkhhBBCCLEdwWXzpZdesp9++sm/I5jxHSGNY1imjRgxwtdIi7cq4/+sZTZ+/PjNn0WLFrlQ9t1339mzzz5r06dPj87Os3R77bXXXJzD+ixVfvzxR/fASFwXGEGNpQCwXJs4cWJ0VAghhMh+JKalEd4iYv4uhBDZBJMyXH+EEEIUjqL0n4wnZ82a5QLbEUccYQ8//LDdf//99vjjj1vPnj3ddTSA6+fHH39sDz744ObPt99+a8uXL4/OSA9YneGummyhblxTsaybO3dudESI7ABX53g3aZFdULfx7uxCFBaJaWmEgQRvD3VTCiGyCdbCWbZsWfRNCCFEKiCKsTB/YTYDAKy9cN9kMwJ2zhw4cKCLZnxnfZ/4TQpYz7JevXpuMRY+rHOZ7s2wli5d6vEmWz+KtCIaFjafQpR2cF+eM2dO9E1kG1j1YvUrRFGRmJZGENNGjhypNxhCiKyCtXKYSAkhhEgdxDReRhRFZGLNsxtuuMHXJ3v00Uft1FNPtfPPP9+t0FavXh2dZb6G2UEHHWSXXHLJ5k/Xrl3Tvqg2Ah/54ZNIOMY5QmQTuEhLTMteJKaJ4iIxLY1gxs8aF8kGGkIIkamwJo9eEgghROFB+CpK/4ll2QEHHODi2E033WQXX3yx7zx3xx13+AQwuI5yXo0aNdz9MnyqVavm65qFT/xGA7z4LcqSJFi7Mb6NF/ICiIW4gGpXPJFtcK/E3z8iu6BuC7N2pBCJSEwTQgghhBCiFMGaZwhmO+64ox111FF2/PHH26677mpDhgxxQSuVF7eIW4hcEyZM8O+Iej/88IPNnDnTvxcG3EdZxoQdPROZPXu2u3+yq6cQQghRVpCYJoQQQgghRCkBoYw10vr16+c7er7++us2YMAAX79pn332ccuzVFwqEcBwE+XaV155xT+IaUVZA7NLly4upiHExVvaIfiNHTvWN0Vo165ddFQIIUoerMpww12wYIHWLBfbBYlpaQRTekzttWaEECKbYOKW7sWshRCiLIB1WCr9J+6ZO++8s6+VBohUI0aMsHfeecdeffVVe++993zSeOONN/o5bAbQrFkz22mnnaxJkyZ+TSKdOnWyww8/3F3VgijHtayx1r59+83pYtxK3K1bt3YLs8S0AGIaY9wwcQ1gqYbARloIU4hsAtfqSpUqRd9EaYO+berUqW6xO3ToUF//bMWKFSkvuUTdUsdCFJWc2MM66xf42lbiFutQTJw40c3wEdaEECIbGD16tE+UsDwQQgiRGkzo2M0TCzF2vCwsCGps/hLWJGOzAXbvLAykgXUvWWeNXT/DempF4cUXX/TnAWu5nXjiiZ4+xL7+/fvbaaedZsccc0x0phDZAeIM9x5jIFE6QUx7+eWX7auvvnLR/+ijj/a5OH1d5cqV/aVBflrA3Llz3W2+bdu20RGRjFTFybKIxLQ0w8AifstyIYTIdOjX6Ee3ZV8qhBDZQHH7z/hJTHH64HT04whyAwcOdDfR3/3ud+7uee+99/oEdu+993aLNiGyCY1/Sj/U0ZQpU6x37972zDPP+MuCli1b2rHHHmvdu3d3i1lEtWTQv/LR3L1gJKblj8Q0IYQQQgghRIGwJhEuVIhoWLkxwWJtN1xDcZXScgBCiO0B7p6TJ0+2t99+2x5//HEX1LAIpl9CWMOalo/WdSwaEtPyR2KaEEIIIYQQQgghMhI2I8BC7c0337QXXnjB1q9f71ZrLFGCoNa0aVNfX5JNXPbYYw9/IaAXAKkhMS1/JKYJIYQQQghRQrCBAOv6CCGEKDmwUGNDlM8++8zXikQEYs07PrhyYqmG22fYnKVr165Wt27d6GqRHxLT8kdiWhpBAWehWJRu+V4LIbKFRYsW+Y502tFKCCEKB/0ni2OzkLkQIrNYvny5uwyymL0o/eCKjuv5999/v1lMA7QA6pG103D/7NChg6+pxnqPWK7VqlXLzxPJkZiWPxLT0ghC2rBhw3zLcRRwIYTIBgYNGuRv8rS4tBBCpA4TkC+//NI6d+7sL1qFEJkFu/Gygy7iiyjdYNQyZ84c+/DDD+2RRx6xJUuWeB/Mi2D6X1w8GzdubIcddpgdfPDB/v/p06f7OpC77bZbFIpIhsS0/JH5VBpha92xY8f6wqxCCJEtTJo0yd/OCiGESB0mIBMnTvTJmhAi85g9e7ZbOonSDXNvdhvu37+//fOf/3QDF1w669ev7y8zzj77bLvvvvvsqaeesnPPPdeaN2/u66UtWLDAZs2aFYUiROGRmCaEEEIIIYQQQoiMAyGtb9++Lpixbhpum6eddprv7MlmBNddd517WAiRbiSmCSGEEEIIIYQQIqNgw4HevXu7e+cBBxxgDz30kPXp08d+//vf+wYDCGu46mo9c1ESqFUJIYQQQgghhBAiY8CFHlfctm3b2vXXX2833HCDHXHEEbbzzjv7GmlVq1aViCZKFLWuNILqjQ+2blohRDbBIq2sPSGEECJ12ACradOmvoOcECLzqFu3rnZ6LMWw7hmi2T777GNHHnmk7b777lanTp2UNx+sWbOmNocRxUK7eaYRtuCdO3eub7krQU0IkS3MmDHDBxvaGl4IIQoHu8U1aNDALSSEEJkFmw+UL19egkuWwo6frLHWqFGj6IhIhnbzzB+JaUIIIYQQQgghhBBiCySm5Y/Mp4QQQgghhBBCCCGESBGJaUIIIYQQQgghhBBCpIjENCGEEEIIIYQQQgghUkRiWhphA4JJkybZxo0boyNCCJH5TJs2zbcfF0IIkTqsMzNlyhRbtWpVdEQIkUnMmzfPFi5cGH0T2caiRYt880AhiorEtDSycuVKGzlypMQ0IURWMXbsWFu6dGn0TQghRKqMGTPGli9fHn0TQmQS7GY+Z86c6JvINhBLeWEsRFGRmJZG2FqXDjc3Nzc6IoQQmQ9bw2N5K4QQInWwTGOytnbt2uiIECKTWLJkicTwLOaXX36xxYsXR9+EKDw5ubm5Wb/XaU5OTvS/kgUz0b59+9oll1xilStXjo4KIdIJk5PVq1e72f369eujoyIVKlasaOXKlSt0n/j6669bt27drHXr1tERIYQQW4OXq71797aDDz7YmjdvHh0VQmQKn3/+uVWtWtX23nvv6IjIJoYNG+aC6RFHHBEdKdvUqlXLNYzy5ctHR/Jg7iWSIzEtjUhME6LkQUAbMWKEvfbaa77WgUidBg0aWJUqVX71kNwalHeLFi2sbt260REhhBBbgwnI8OHDrW3btj5JEUJkFpMnT/YXkYyBRPYxe/ZsX9Oyffv20ZGyzdFHH20777yz1ahRIzqSh8S0/JGYlkYkpglR8ixbtszuuusue/HFFyWmFRL6wqL0h6wDWRSLNiGEKOuo/xQicwlL93APi+xD9bsl119/vV188cXWoUOH6EgeEtPyR2JaGmGS/+OPP9oBBxxgO+ywQ3RUCJFOuM9uu+02F9OwtNp1112tYcOG0a8iEdbqmTlzpg0YMMDfOLVr185dFgoDa6bVrFlTLwmEEKIQMAGh/6xdu7ZVqlQpOiqEyBTYfAmhhTGQyD5YM23Dhg1Wp06d6EjZgw0Uf/rpJ/vuu+/s2muvtcsuu8w6deoU/ZqHxLT8kZiWRrgZWaSSG1JvIIUoGeLFtP3228969OjhJskiOQwUeED+/e9/t3/84x922GGHFdpdkzXqeEFQoUKF6IgQQoitwQSE/hMhrbDu9UKI7Q8vJJnT4eopsg82D8Q6rSy/LF6wYIG98cYb9sQTT9hVV10lMa2QSEwTQmQU8WLaMccc4+bIXbt2jX4ViVBen332mV155ZX+oDzxxBOtfv360a9CCCGEEEKIsgg7Tvfq1cuX0LniiiskphUSOQgLIUQhmDBhgn3wwQf26aef+jqJPGB4c8kCplggYKGarfAsXbbMbNq0TbG8b/LvmcTy5Zts9uxNNm06rldbT/zGjWYzZ26yGTM22S+/5OV/5UqzqVM3+fEsrmohhBBCCCFEAUhME0KIQjBw4EDr2bOn3X///TZq1Cg3D0dg++qrr2zo0KE2f/786MzsA/Fo3LhN9vrrufbJJ5tieY9+2E4g7E2YsMkmTdp6WhD/vv56k7319ibr23eTffddwWIawtnatWYffJgbuybXJk/etFlc69Mn1/r1yxPYhBBCCCGEEGUPiWlpBAuV9evXR9+EEJkGu65hWcZ9zF+EskRYqJMFpdlJdM2aNX7OCy+84Dvg3H777TZ48GA/luzaTCWUBd3b2HGb7NXXNtl77+eJSwHEJ7LMpzAWa5wbPskI4Sb7/Ycfcu1vf9tot9+xMVYX+YcBvXvn2h135dojj+WJY0OGFHByDOJctWqT9Y7l9elnNtnIUXmWaJOnbLIn/rvJnnk215YuLTgMIYSg/5SLjBCZCeNCPiI7Uf2K4iIxLY2E3TCy2c1LiGyFhylum6NHj3YLM/6yKGdBIDAtWbJks6iGCMcmJIhtHM+WCdTYsWN97TU2ozvi8Bx78IFydvOfy1n8psUIT7hOzpu/yYWtgqCLZOxC8axevcndL7ECS4TfV60yW7SIRbyjgxGIXQsWmo0cbTZxMovI5oWbrMiJa/hPZouXmJ11Rjl7tld5u/nmvMXA49MChMsx/gohRHHgGYAFM88FIUTmMX36dJszZ070TWQbrBc2derU6JsQhUdiWhpBTBs5cqQUbiEyDLY+//3vf28XXHCBXX755b41NH8vvPBCd+lkR8xkwhgC00033eSun4Qxfvx4e+ihh+zss8+2G2+80XcJ2t6QLnbzROxjN7mibMgSxDSyM/ibTXbHnbn2xJN5lmq//LLJHv53rv324ly74Lexvxfl2m/O32gPPphrixdHAUQgUuEu2eOMjXb2uRvt2us22uVX5tpZ5+ba9b/faF9++T93zWHDcu22f+Sdd94FsXPO2WjXXb/RxozJE95e7Z1r/30q10U2PGs57+RTN9p3329ZT4sWmf3u6o324495Il+/93PtL3+Jpf+JjTZixCY7tcdGu+TSvP8T9wcfxo6dvtGuvgYrxSgQIYQoAjw3xowZ488QIUTmMWPGDH/RKrITxLRp06ZF34QoPBLT0giTVQQ1mfMLkXkgNO2+++7WvXt3O+6446xdu3b+torNBgYMGJB0MsQ1zZo1sxo1avj/2Vq7YcOG1qZNG2vevPl230l48uTJ1qdPH/v888/tyCOPtC5dulj16tWjX1MnbKzA5s9Ll5pNmWo2a3beBgSjRm1ygQ1RbY+uZieekGN77mFWpSo7KUcBRHA+4tfosZts2LC8TQyqxs6L/WLffrvJ3uyLe2ze+mZvvrXJBnyc15fuvpvFytbsiy832bPP5foGAo0b5cTKPsdyYk8xLOR23sls185mNWv4JZvht51ivxEP6WncKO8717KZwOjRm2zCxE22IvZ/WLx4k42KHZsYO6auXAhRXNicRi9ZhchM2GCqNLwYFSUDHiXUsRBFRWKaEKLMU6VKFTvppJNs//33t44dO1qrVq2scePGfpw3kl9//bWtWLEiOvt/8Ptpp53mW0hXrVrVGjVqZEcccYRdeuml1qNHD6tQoUJ05rZn4sSJ9vbbb9snn3zi4h7WdjvuuKNVwlczjTAGWbkybzH+lV5Em6xJ4xwXtgqKCqFq333L2W/OKWcH7FfOfoldi4jF8bFjN9mIEbEHVOwJdfBBOXbeeeXszDNyXPD67PNNNneO2a67mu21Z46VL29WrZrZWWfGzvtNOWvefEsFDxHtpBPLWcOGiJ9cl2Mnn5Rje+8dd17svwm6nxBCCCGEEELki8Q0IUSZBotS1jzDHXLEiBEunOEWOXPmTP8Ni4JZs2b526tEdthhB7dmQ0Tj/1iodejQwQ444ADr2rWrlUMN2g5gUffuu++6+2m9evXsiiuusGOOOaZIVmlbo3XrHNu7W47VrZtj4yds8l0+vx60Kfb/vHXM8gOhrWvXHDvkkBxr1y5PXAsvB7F6Q6Br0CDHOnYw67xLju27TzlDm8Rtc/Uas/r1c9zKrFxOZJm2cznr3DnHatbMCyPANW3b5ljVqjlumdawYY61bx+7tvH/FLRNuUiAeW6o6+XaKYQQQgghhNgKEtPSCG5eTKa3t2uXECJ1MO9mrbNbb73Vnn76aV8fDJN+hDDENNy2cdPh//nBPV9a7nss6d544w378MMPrU6dOm4ld8opp3j/VFSwusvPyg5x6rhjc+z0U3Nsn31y3B3z8y822YMP59rCRfn7SVaslGcpFk84u0b1HBfI2NSAddcWLtxkc+ZuctGL8EkKxY2LJ3olHlS4hi5cVLCAFw/XVqyY9/91a82WLN7k67nNmZ1/moUQorBUq1Ztu1opCyGKDst3VAyDBZF1ULfUsRBFRWJaGmHCueuuuxZr0iqE2Lbgvjl8+HCbP3++P1Bxh/zPf/5jl112mbtHpgITJcQ0rNcQ3ggTa7dtSRD9XnjhBXv99detQYMGbpF2+umnR2cUnZ122slq1aoVfduSSZNybcKETbHfzY4+qpwdeWQ5F6lceyyiLtWlS441aZJjM2eZffrZJnv77U32/PN566l16mhWt06emFa5klmtmriZmr30cq69/36u/bwgtUgr7mBWry4Wa2ZLluW5jz773Eb7PPZXCCHSAc+FnXfe2V+0CiEyj5YtW1rTpk2jbyLbYEmX1q1bR9+EKDwS09IIbx9Z4FtvIIXIHBC/EcKBDUS++OILe/7556137972ww8/+PGtwaYDrJ82adIke/HFF+2ee+6xt956a5suOs0GCQ8//LCLabiaXn/99XbsscdGvxYPxLTatWtH37aEpeTe7Wf217/n2uVXbbT7H8x167ELz8uJXROdVEjatMmxc87Osa67mX37/Sb71wO5Lqq1iY13rr+unHXsmGcFyN9ju+dYbqyYX31tkz3+RK6lusM5Fm116pidfkqOVa8Wy8N7m2zcuByrWk2WxUKI9ICY1rlzZ4lpQmQorKErMS17QUxL9cW5EMnIyWV7tiyntLhfCSGKz7Jly+y2225z0Yp1wC6++GJfn6yosEslW5/ffPPN9u2337rJNzt01q9f35YvX24jR460Pffc0x555BF/4N53331uudakSRP761//6jt/TpgwwR599FHfNZNrsAo75JBD7O677077gv/JmD17tr300ksupHXr1s2uuuoqX7ct3RM4LMNYs2ze/E0umO3YLm9HzLnzNtmCBXkbEVQon2N16+XtmlmvXo67ZAZYFw2DvUmTNrmLZ4sWObE0soMmedjkrp0IZHTZbGiAe6eHuypvkwHEuWZNc6xKlTwxjDXW2H2TNPEkqxAXZiJTpmC5Z74OW6xqPX60zp9/3mQzZ+b9n/BJAzuOYl3HWmtTpm6yDevNLeX4nXTNmBFLfyxf5F/eH0IIIYQQIhOZN2+e9erVy+666y73aMEzh43V4sH7RSRHYpoQIqNIt5gGrJvG5gPsgIl1Wt26dX1TAVi4cKF/32uvvdz6lDXVOA+X0F122cXfWHI9gtqcOXNs9erVbp3K2y5EuJLehGDy5MluBceHN6jXXXed7bfffvlakpUU7M/Ah+4W/TBd2WZTAD6IciVl9Bv2lkBgK+HqEkIIIYQQolQgMa14SEwTQmQUJSGmBVhzjHXPsCbLhAVJcSt95513bMCAAS74IaQdfPDBJbJrJ3zx5Sb7YageqPGcchK7keoZI4QQQgghMguJacVDYloaYRKOixeTWgl4QpQM8WIawtG5557ra9KUNRYtWmQffPCBDRw40K3QLr/8cjvppJNKZAOUJUuW+Lpy/T+qaJ99nv+upmWRSy8uF2t/6u+FEMlZvHixv+DQjoBCZB6sR4uHAZ4JIvvgJTrLvdSsWTM6UvaQmFY8JKalESb5Q4cOtYMOOsh2YOEdIUTaiRfTWMMMl8bmzZtHv5YdcDfFNZXNDy699NK07NqZH4MGDbL27dt7XEIIIVKDCchXX33lSwLUq1cvOiqEyBRGjRrl3gqMgUT2wVIpLO/CBoJlFYlpxUNiWhqZO3eu9e3b1y655JKMcBETIhNBTLv99tt9x00sQXnbXxLWWJnA/vvv7w++k08+OTpSMlDWbGiw4447RkeEEEJsjdgY2ycpRx11lK9pKYTILD766CO3SjvwwAOjIyKbYOMxPD2OP/746EjZQ2Ja8ZCYlkYkpglR8mBy//jjj9uDDz7o7p3splkWRR4ExHbt2rl1Xkm7D0lME0KIwiMxTYjMRmJadiMxTWJacZGYlkYkpglR8qxYscKeffZZu+eee+yII45wF8d0bUCQaeB6sC3W4ZGYJoQQhUdimhCZjcS07EZimsS04lIu+iuEEBkB4ngQyFmbkIXxa9SoUSY/WtBaCCGEEEIIIbY9EtPSCBPbZs2a+a4vQgiRLTRu3NiqVKkSfRNCCJEKvPhp0qSJvBWEyFDq1q1rtWrVir6JbINdPLU5jCgOUn3SCGbA7AZSVhdDF0JkJ5h7azAphBCFh508sSQWQmQeLVu2tKZNm0bfRLbBy+LWrVtH34QoPBLT0ghvHtu2bSsxTQiRVbDWT/Xq1aNvQgghUgHLNCZqLEcghMg8GjVqJMulLAbLQwQ1IYqKxDQhhBBCCCGyhFWrVtnq1att48aN/p2NENgJe+3atf7/ZLDANOesWbOm0ItNc35RF6jesGGDx0l6+fD/9evXbxEe57D50Lp164ocT0lBGZNuyrYwJNZRaYH2QV5IW2JbCb9RH6UF2sPKlSsLbNtCCFFSSEwTQgghhBAiS/j3v/9tjz32mI0ZM8a/s9v8NddcY2+88YbvXJeMpUuX2vXXX299+vRxQaswcO2yZctc7CosI0eOtFdeecXT+8QTT/ju0Z9//rmHGRgxYoT9+c9/tg8//NBFntLE9OnT7T//+Y/v5l8YHnroIc/v2LFjoyOlA9oKeXnyySdt/vz5W4h9s2bNsn79+tlPP/3kgmdpgHTccccd9t5779nPP/8cHRVCiG2DxDQhhBBCCCGyBEQFPkF4Yudr1n6qU6eOVahQwY8lgrXRjBkzbPHixYW28EEI69Wrl02cODE6kjo//vijvfvuu/bVV1+5MMX3W2+91f7whz/YN9984+dgxTVz5kwX2EqbZdrrr7/u6WM5hMKAUMWnsMJlSTNnzhwXVB9++GF77rnnbN68edEv5nWAIEsdFUU4LQnY9G3vvfd2oRVhVgghtiUS09IID8TJkyeXOpNtIYQoDkxwcLERQgiROgg/U6dOdbGlIBAmcFVLJqxwLf1vvGvdkiVLfLxJ2MkEJs7lE46zAcLxxx/vmyGE9duw6Fm4cKFNmDDBFixY4GNXjiUbwyKw5Rcf6Zs2bZpNmTLFhRfSRl4CnEs8/D579uxfiTDh2dK5c2f7zW9+Y+eff76dffbZbrE1aNAgFwUR90gbf0PcXIe4M2nSJBel4tNU2PIkXNJOHgkr0eqKsLiO8MgLouHy5cs9P0OGDPF1lzp27OjnUn78htsh1yFQUj4ci4f4OTdeuCQPoay5Bmu/+HwhjhJmYvo4h3NJXwiPY6SBcCgjfo+v2/h0Ei5lieVZsDKsWLGiC4WkJdQZ55J/3IET00VZ0JYQ4+LLFkhvcDMm/bQjzgtiL7/znbiom/gyAdJK+vgdy8r48Fmnev/99/d002Zoy+mE9pCfNafIfLjfsMYUoqiU79mz563R/7MWFoDdFvDw4aG64447ahMCIUoIBl3Dhw+3r7/+2u+1bt26aaelEubbb7/13TzZQlwIIUTqIAjVr1+/wE1cEFy+/PJLFz122mmn6GjeuBKrLQSRNm3auBiBBU7//v39OThs2DB3uUMUadGixWarM85hHIp41rx5cxcyuIaNskgLgsYXX3zh7nyEgxslk8pPPvnEdt99d9trr71cTOG6ZPFxnPiwCsKiDBc7xKggMJHuDh06uLBG+gcMGODXEg+upyzozvOE67/77jsXLLp27Wonnniih8umDW+++aanF5GN9PLMJz98GGuTJizXCPOHH35woQXrO65BFEpWniE9CDOUJ/EjDr366qvuWkpYWF1RHwhkYRfrd955x4/z+eyzz1w04rfRo0d7eRxwwAGefuYbCC9YdBEHZUP++IwfP96qVKmyebHzDz74wC0GyU+zZs287Cjrjz76yMt66NChm8uafJFWyo5zKlWqtDkchCXKHpfRBg0aeLoRv0aNGuUWZrQ/rqPMOF67dm0XVEM6qS/yznlBCCWt1AH1QnjUCVaNiGDkibrdY489vI2QVtLEcSzDvv/+ey8f0kKbJ93UDfVJXAMHDvTyGDx4sKeBNs3/aXv8RRCjbdBOyRsi7Msvv+z1T54oF9oq6SF8ypy/XIsQR7nQ5tMF6UH0YyMCkX3QphHs09lmMg3uG/o27mH6/j333NPvP5EaskxLIzykeFAkvlERQohMhgF1eIMshBAiNbDeQehIZiEVD4ICAgOCA0JBYNy4cS66MNEBXiYx+eMcxpp8RwBCIArroyUDcQvBCEGLiROCBAIRQghpxKoHcS0+bigovrDWF3njOHlA+CEuBBmsiRBOENoQRBBGEGsQuRBHEI/irZviwQqM6xEEEWMSoUx5LhFnKOPevXt7GZIG0oN49NZbb21hqYTYQ3kiUgFpYA2w999/38MgTqxUEHY4znfg+wsvvOBCGuEh4PAbYl7Dhg39E9JJWb700kv27LPPejw8O8k35cvacJR/snwzh0A0RWDid75TP6Qj1C35JU/ESz6BsmYSHJ9XRETKHZGMcAiP+qLeEB6py5BO8kWdEg754lxEsnbt2tkxxxzjZUo+CCcZxEmZUWdcT7iItIhfwaILYfHFF1+01157zdsT9UPb5jyOIcAFyz/yQRvhWqzVqBvqjPySbtoS4h15C/UDO++8s7dTfk8nhEmbFtkJfUBop0IUBYlpQgghhBBCbCfatm3rlkCILkHoQdRAkEDYwDqrWrVqbrGDK+Tf/vY3u/rqq+3aa6+1Y4891oUGLLVSAUHm008/9UkkmxLceeedds8992xh2RZIFl/37t39WuJDQMJ9FCED66wrr7zS/vrXv9oZZ5zh4sh///tft+i56qqr/Pjvf/97F2hY3B7rseCuh+DE92CRhfCHcIKgg4VTIkcccYSHdeONN3qcl1xyiVuKIbJgZUJ5YrmOcIVQA4SHAINV1m677eYWbIg1bB6AlRXh/eUvf7EbbrjBOnXq5MIX9cF1QBr32Wcfu/fee30zBCzREIaw9AoWbAHqjjr57W9/a//4xz98DTjS/PHHH7vQFe+mGCAcyvqWW26x3/3ud3bdddd5WSHkYNlHWZNOhDssvfgQD2lEGN1vv/3cgg1BC7ENEezUU0/1uP/0pz953VE2iHoIZwHq8tJLL7W7777bLrzwQi9zoC2cc845m61WKKtkUCa0I8rksssu83KkLdF2KZ8AaSXflDEbBnANx7B8P/zwwz3++++/391lsWzjg+Ufgttxxx1n//d//+dxUC5Y5iGykfYAlkWkFZFVCCG2FRLThBBCCCGE2E4gmLVv396XLMAKCgEHSyCEIFwid911Vz8PQQUhgeNY8GBZxP8RFbDIQZzYGogNrIOJyHXQQQf5MSzATjrppM2ug4Fk8WHxtbX4sDzCUwOLKsQwhDWEMiyUEAXJH2kIFs9YZLGBwQUXXOACDi6LhxxyiAtQuBkmQnkh1GCxhOiFmISVEkIVQhH5wb0TcQm3SX5D3CIf5BExjbhx5ySNiG+UC2nE7RN3TKykgkUd4P6KgBbWnCPvWC1RPqQnHuI/6qijfFMCXDkpa+qQskDoQtBMJJQ1IhgCEmWNsBjKGgjr0EMPdUsarMkoZyzqEAkpK8LHMgyhjb+IWuSJD2WOQEaauQaIE8GOdCbmAVEOQZJ6wO0TcSwIi/FwHeFRzlgHYnWIqEX9koYA6/YhxCIaEi91Q7lQH5QVkD/EPOKhrdAuaEeIm4hr5IO2RJyUC+cECJ/y4HchhNhWSEwTQgghhBBiO4KYhqiDMILYgjselkQIGvwGiBZYLWFNhgiE4MF6UYg38dZGBYGlE2IFohDiTQDRLlFQwX0vPj5EkFTiQ4AircSDuyE7Q953333+QXDp0qWLCydBjEP0QUR7/PHH3e0PwQlruLCofyIPPfSQ/46Ag+hImhDASFNw/UNM48NaWghkiJScG0Q2xDKOkwaEqwcffHBzGqkD4o4XCxFriCceyoFz4s8LIAKSxwBljaUfcSYTpRCNKOu77rrLXSApa4THxLJGNEM0Yv0wNkIgf9Qdax0RPvWLcIgQ9eijj27OEx+s2Jo0abI5vbQfro1PZyJYGQJ1ksw6jbK7+eabN+9qSjmRbso33jWUfJA+4gzfKRM+8fGHdkE+EOMQ/xBXsVoL+QhrusUTyjSEL4QQ2wKJaWmEgQmm7jwghBAiW2AixyBYCCFE6jCxR5RJFGGSgVUai9EjpLFmFOtbIfpgqYPIFSylEIX+8Ic/uNveeeed59ZlCCLJBJ1k4JLIOBXhI1iGASJPvPgRH98f//hHjw83xAMPPPBX8SH8xIMFFFZSHD/99NPt73//u4tEfHAp/fe//+1uiaFcGD9jHYXlF+NoBJ8g2sVDnFiQYSWFeyGuf7gmsnEBbn7EF9KFBRTPLiyfWHcMsYeF88MmYYg4CF7UEe6Jt9122+Y0/vOf/7Tbb7/d6yMIPZwXL9Twf/JIOSWzNKM8Eb0CnINARNkllhf1gDUZ7rfBJTOUNWmML2vaCYIgAtvbb7/tbpInn3yyP6MJN4h+tJubbrppc574IBji0km7CnBNfL4SoV723XdftwTDjTYe8oglHRso9OzZ091ae/To4aJwojAL8XGF8kwWN/mlTZAnFkLHnRfX0JAPhDWOUZcBypY6Jf/phHalzQeyF9ymEfOFKCoS09IIHT9v2xLXnBBCiEyGgXvimjBCCCEKBqEAQSaVCT5CAJM6xDeEH4QL/s+uk4SD5Q2CDNZFCEWIKlgAYS2EJVOqIAARD1ZvWBshXCD64DIZv95UYeJDvEGcw5KI8BgHI7Dgnoe7H+EjfPAdiyLCZs2yICrxF/GFcXT88WRg9Yaww/kIZYhTiFHkJdESCiGIneleeOEFt+DCvZPyBOKhHEgT69Rh2Yb4xnfyCqQnmdgDHOdcygchJx7yx6YAWIdRhljpsfkB5+29996/EpoosyC2sUtlKGus1bDCigdxDys0rsEdFFdHxDTSCtQVeeQ71oT8n3ZEWhGnqBvaWqqQVtY0Q9SijBHQAtQFoh5lgeDEh7xjVUkdFQfaFG2FOsa1mLARQ8kHaaGNUIcBXHa5z9ItfCE8hvYgsg/aV6KVoxCFQWJaGuEBx0M9vwevEEJkIgzuCzP4FkIIkQeWRcmsdJKBRRYWW1iDsS4WwgHHgDEmVhSIMawThgsf7m+sAxasp1IB0ejggw92YeX55593l0k+bAAQb0lFmAgTxMc6WCE+hI3E+LAow70SERCrIdYwQ9hgDTREFVwBH3jgAXf35G9YV6sokG7WH8PNkc0DHnvsMY83XlgJkH4s2FhLDZEJUSmswYaohNURVmmsx8VmCZQD1ltYzmEZiDCUH4h1bLqAKIlYFr+zJBA+YTzyyCOeToQo6pY0JJYf35nUI/xRVlyDyytrpiWrW/JPW8AFEtEy3oKOZzV5pt7YTZUNEwgP90g2fiDMgvKVDIRQ4kTgQjwMUMfkhzIIdfHMM8+4yFaQIJoK5AcrRTa4QAilbqgX2g9tkY0UEBSB/LBZAXOweGu1AGIrwmZiG08F8oiwKbITRGf6FCGKSvmePXveGv0/a5G4JUT2wECIRWhx82DQ1K1bN701FEIIkfEgujFxx8oG1zqEBEQWQLxBMGLih0sgYhvWYFjO8BxEVEFEAcQNvmNphXiEuMH5LKKPpRK/MTbGqgnrJwQvXAp5cUIYPFtJS4gPMSrEh7UXllHx8SFUYVmFZRsCDxNUfiMu4mbtNeJZsGCB/06YCEsIe1hjkedghZcMxBDCx/uDPCHqkB7EEUQ50nnkkUe61R3xkg9AkOE6xEc2WGChewSXAHkkPMIgLEQxyo7viFWEhShEvrBiwzKKvAaIhx06EVxwqyRd5O/NN99091vyTpgIUJTbWWed5Xmk7IkHMY/4sbQiD4TDOmiEQZ6DZR3nIY4FKDfERASiU045xUW9+LkO6aIsiJe6w5qMPCA+UbfESdqIhx1CiSeIkcSLhR/nIOZShnwQ6cgf4e6///6eX+qZtIQ12mhHxMEmCbQPRFbGZ7Qbxm5YBpIX2jLfsWoLAnGANJN+4qe8KXfaCOHTfsgH1xJO2JiDdvzGG294WdGOSVM85IcNK8aOHev3FnkMedIcUZR16O/YsRdrWvp27iP6JJEaObm5uaktspDBqKMUIntg8PXss8/6NursDMWW+3T+QgghRFkAcYFnIeIGAkxRxrlY8xAGrpmIFwha+YVT3PgQMxBa+MuSAemw9EGgQcRB7Eq2DhkiGsIMlnRXX321PfXUUy4Ckf5kcH7YfRKxL1GQyQ+ssRCr2PWSD2LYueeeaxdffLGv5YZgh8BEvoNgVRCUNZNb0kB5J5Y19YCo9PTTT7sbJ5tDsBRDMqhj1nRDeKTMyTsiUrohDuoCgQ5rwOJapSUDAYz6pDzJR7CWJ04sE1m77bTTTnOry2QgliJysi4dAh/nYdGHaIBASt2URLqFKO0g+LObMusRXnHFFW6ti5AeT7ACFb9GvUYaoaHRqQshRDaB+4oepEIIUXhKov9EmEEQQHAp6gtjhANECSx/kok28RQ3PgQQRAvCSIeQBlhFIdxgKZVMBMESDndTXEoRTbCSyk9IA8QZwuOTqpAGCDjkCxEMKB9cPEkTwhWWV4SZipAGlDVWXaQ1WVmz9hovFHFrxFIvcdIbD2mgnKhjLBRLQkgD8kY94JJcUoIUdUI5046CkAYIhlibYXkYLNWSgSUbVnxYDOL+yuYMV155pbv3YpWDlR6iYKK7LuHzEdkJdZtY50IUBolpaYS3RTzkJKgJIbIJXCPCG3shhBCpgYiGO15xF2MXhQerLZaDwIXxX//612bXz3SDWMauqsccc4x/R/TBTQpBDBEx3bCeHps6HH300XbRRRcVWUzNFhAI2f0U906EyIJAUGN3WaxvAGs61rJjV1i8HLD2Y/28eChrNt0Q2QlWWbgQC1FUtGZaGsH8eNCgQf4GjLdSQoj0ozXTtj0s9IsbTfxaMUIIIQoGMe3zzz/3dc+w6hLbDiyYWIsL107WlUN0KYn5QLBEC+N+rLSwGGO9L6zL0m2pxZprrJGGpR1CHuuPlWUof+qWctha/VIXWEYidDKeGTZsmK/BhtiNdRLusMzjPvvsM3e1RZzDbRf3ZK4R2Qf1i6DWtm3b6EjZQ2umFQ+tmZZGWGCVbaovueSSlM25hRCFAwtQrZm2bWHHNwbvyXbJEkIIkRxciFiLBmsX1nwSQmx/eCnLnI0XswhliGzM2xDlEMARQXGLbd26tQtqbG4RLA9FdvHtt9+6iMpmL2UVrZlWPCSmpRGJaUKUPBLTtj0S04QQovAEMQ3PBSFE6QABjTkba6exThriWlg3Cws3xDTWucOykTXnGP+wE6zIPiSmSUwrLhLT0ojENCFKHolp2x6JaUIIUXiCmMZEnLW7hBDbF3ZtZcMCNqd45ZVXfN00BDWs03BtwxoNt+Cdd97ZjjjiCN/ogfX2WJNNZB8S0ySmFRdtQJBGgi/+thLvhBBiW8CbWa0DKYQQhYf+s6yvayVEaQCLNDYUePfdd+2pp55yIY2xDeIZVmjs9nnzzTfbgw8+6IIC62hhpVYSG0mI0gF1KwMYURwkpqURhDQWHdWgSQiRTfCGamu7ZAkhhNgSXq6yKRUTciHE9gMr0VmzZtnbb79tjz32mLt1InRjcXb77bfbc889Z7fccotvahUPQluTJk2ibyLbwJ1XVsOiOEhMSyNBTJMFhxAim9hpp50kpgkhRCEJYpp28hRi+4Jr56uvvupi2h577GG33Xabffjhh3b//fe7oIawlgyEFu0Yn70glLJDrhBFRWJaGmHQJCFNCJFt0K+le3t/IYQoC9B/avkPIbYfy5cvtzlz5tiee+7pLpx33nmnHXvssda4cWMXunH1y+8exdtIHkfZC2Nb1a8oDpodCSGEEEIIIYTIOlgTi/XPENP4dOjQwerWrauXhEKIYqNeRAghhBBCCCFE1oHlGVZoDRo0kAeRECKtSExLIxs2bLDFixdr+1ghRFaxZMkS3wVLCCFE4aD/XL9+ffRNCJFJrFixwlatWhV9E9kGdcuurkIUFYlpaWTlypX2008/uagmhBDZwtixY23p0qXRNyGEEKnAy9VRo0b5mk1CiMxj+vTpvt6ayE7mzZtn06ZNi74JUXgkpqUR1O3Ro0f7dstCCJEtTJw4UZNBIYQoJIhp48ePd+sWIUTmMWvWLBdcRHby888/+06vQhQViWlCCCGEEEIIIYQQQqSIxDQhhBBCCCGEEEIIIVJEYpoQQgghhBBCCCGEECkiMS2NsPVy06ZNrVw5FasQInto1KiRValSJfomhBAiFXJycqxx48ZWqVKl6IgQIpOoU6eO1axZM/omso0aNWpY3bp1o29CFB6pPmmkWrVq1qVLFytfvnx0RAghMp9OnTpZrVq1om9CCCFSZZdddtFkXIgMpWXLlm4oIbITXna0bt06+iZE4ZGYlkYqV65s7dq1k5gmhMgqGGhUr149+iaEECIVsExr06aNVa1aNTpS+li/fr1NnjzZFi1a5P+HpUuX2syZM23ZsmX+PRF2KV25cqWNGjXK1qxZ499ThXOJh53v468jvGnTptmSJUssNzc3Opo+2JF67ty5Nn36dM8bu/gl7rJKmjZs2FCk+LmmqNeK0gtiS/369aNvItuoV6+eNWnSJPomROGRmCaEEEIIIUQZZN68efanP/3J3nnnHVu8eLEf++qrr+y+++6zb7/91r8nsm7dOhfSTjnlFBfiEJFSBSENMQvBDvEqMGbMGPvHP/5hn376qQt06QLBbtWqVfb555/bE088Yffcc4/n7cUXX7Tvv/8+OisP8j9//nw/v7AEsS5RoBNCCJG9SEwTQgghhBCiDIKgtWDBAvvll182i1sNGjSwjh07utVGfiCozZkzx/8WBq656qqr7K233nJruACusLjENmzYMK0eHlig3Xrrrfb3v//dhUPc9lgHa/jw4fbkk09GZ+Xx0ksvudDGb4VlwIABdtttt9mgQYOiI0IIIbIdiWlCCCGEEEJkCLhEIn4lE7Jwk8SyKghja9eutVmzZrlANGXKFP8t3r2S/+OayN9wfMcdd7SjjjrK2rZt699h9erVfv2ECRPcgotz4y3LAgXFhwUbFlwLFy50AY8PYRE2rlbHHXecr9FZoUIFP5/wEdwmTpzo7pmJFnBYsBEef7EIGz16tFu9ER6QLyzNXnvtNTvnnHPsiiuusPPPP98uvvhi++tf/2q33HKLnwekk7TEpw3rueC2STxY4RHH7NmzN+cJiJ9yD9fx4Tvppa5IW3zaCZPfQzohWOxRbmPHji0xd1chhBDpo3zPnj1vjf6ftbBmxbaAh+mMGTP87Zp29BSiZGDAyWDz66+/9gF/t27dtDhsCUO/xuSGHYuFEEKkBoILIhB95w477BAdLR6EOWTIEBeICBdLK0CsQeTBOoodmPkgyrz66qvWr18/F4FwoeRadmdmLSgswBCM+vbt61ZhYbOEYcOG2RdffOFrvTVr1sxFMay4PvzwQ3eN/OmnnzxfuINedtllm63JRo4cWWB8CFv8hhUXAtPUqVNt0qRJvtspz3as1fg/z3RErddff9369OljgwcP9g/xNW/e3NPIMwkrMMph3Lhx9uabb9p3331n/fv3dzEr7MLI8+vRRx91MW3vvff2dLChDutgYYEX5ghffvmlvffeex4W6UQ0RNzaaaed7JNPPvF0UCZDhw71v4xDOnTo4Hnj/1xLuSH+jR8/3susVatWnh6OU0a1a9f2+mMtugceeMDFQs5hrbjnnnvO3njjDb+WMh4xYoSXqRZH375g2cj8rjSveyiKDgI692NZXheYvvjHH3/0/nWvvfayPffcU+sEFgIpPmmEt08MJJK9qRNCiEyFCRkTLiGEEIWDtcCwIksnCDhMfBB2wiYBWFaFY4xHeanLp0aNGv7iCaEM101EHoQjrKzyAwHqm2++cTEJ6yhELcQdRCjEJQQvBLVEksVHPKSLeLmubt26/hcXUoQxPlyDAMZ5CGwIa4hQpBOREGs1LNcQrRDrWJsMEKEQ+DgP8XDnnXf2svnss89cfCM9TJK5HgEPQQxhjGca5Rb/sh2hi3NJC4IbIlcQHPkghiGeEQciHGlFVOPZyHUId+zqz3kIYAiCiJ2U0w8//LDFMxRxBqERizvaBmWLGIclIOFTxsRNOYntC6IxrskiO8H1m35EiKIiMS2NYG6PabvMsoUQ2QSDjXh3FCGEEFsHKyQm4ogn6QIBCMEF0YaJPiIV4IaIILPHHntYixYt3BKOHeZPO+00O/vss+3ggw+2Y4891n/D+gqRb2swnkUEwupr9913dzfJa6+91s4666ykO+AhBiXGh+VciA8RiuOk/cADD7Tf/va3dt5559muu+4ahZAHlhLkBWugCy+80OO88sor7ZhjjvGNEshzcJtEMENIu+GGG3wttquvvtrLnZfbiHKIWrh14jb50Ucf2csvv2wvvPCC5wlxjnMBawxEN4Ssk046yS6//HLfYAFxbr/99vM8n3zyyXbYYYfZoYce6sIZghiWaNTHbrvt5uVNnknHGWecsYXlW37QNnjGEs4JJ5xgPXr08LgvueQST5PYvgTLJZGd0G/Gr90oRGGRmCaEEEIIIUSGULlyZdt3331dIEI04mUuroksf3DQQQe5iAMINVh6YeWFOPXuu+9uXhOMv1sDMQorNcQeRDqstQCrKUSlRKGI9dIQuogPd07iIy5c5VKJDxC3sDzDZRXLtiC0YfmFmMXEF4ESSzwgr4hdlAnpQdDjXCy++GAJd8011/gGBEccccRm99CHH37YP4S3tZfgiHu4an7wwQeeLyzfSCdlG9JRVEg34iLiHBaAWM7hckW5xa+zJoQQovQhMU0IIYQQQogM4oADDnCLYdYmQ3zCvRNRaJ999tm8NtfAgQN9oX3WFUPoQmTCjZHlSPi+NTgPyzSs3LDQChsD4L5IHPGE+P72t795fAh8+cW3NWst4uQaLNMQmwBXS1xD+Ys1SQiPNMWvd0RasVbjesRA4DviIxZuTz31lO/aiaUZbpoff/xxgZaDlOl//vMfu/fee12EI+3kHfELIY14CgtlxQfI4yGHHGJ/+MMfbNSoUXbjjTe6Zd/999+fkvWgEEKI7YfENCGEEEIIITIIXAtxocQiDUuwb7/91o4//ngXsBCPsFpDnEH4evrpp906C7fKLl26pLzYNkIVVlMIY/ECFuIT1mbxBCs51vmKjw/3x8T4tiamYW1G3LjXYRUGYYMFxCuszRD3igqbKuC2yiYFLM8SLMBIV3zaELwQKtnYgJ1G77vvPnc3Pf30091dNoiLEK4NIlmA8ud4EPaAsoq3OkMkPPHEE61Xr16+Vh2CJOuosSGDllgQQojSi8S0NMKDnbUWeGsmhBDZAotJM0ETQgiROogoLFqfqnhVGLDAQhhDvGH9L4Qs1vrCYiqAYIPwhQDFcQQxrKtw3UwF4kCw4xnAIv/sNImlFgt2s3ZZonCULD5cT+PjCxZmiFhYdiWGQZmxHhtxYnXHzpacgzvms88+6xsWIGSlIqaRHuJ55ZVX3DU0CFq4rRI2GzW0b9/e8wnUE+fwe3y6EBMREhEp+RAmAma80EV6yBu/xV9LXskn8XGc8qG+iANIA4Io1niIhKzxxuYNhCchbfuD8IqgLLIThHv6FCGKSvmePXveGv0/a+HBvC3gIRp2A9pWcQpR1mCgy6LBDNAZbHfr1s0Hn6LkoE/DVSf+LbwQQoiCYSwY+s+SeNFKmLgCsoYXAhQugsRFvIg+rFPG4v/sbIkbKC6NWHvxHOXlLy6hiDh9+/Z1AYcPL04Q5hDO+I5lGWFhnTVkyBB/9rKmF6IQcV922WUuNiBIIXixU2ZifIhrIT4EJcQpLOmwwiJM0kteCDvEiRjHTqCExc6ZhEVecM/cf//9PZ1Yb02YMMGtzFhfDYjr/fff9zDZ7IB105555hm/nnJiEwJ+nzRpkq8Dh0tlsOZDMGNTB+LjQ/66du3qu5pSJpQBaSbtPA8pAzYcYAxCnrDWQ3TEfZQyYldPwmYdOY5RJuwqisiHuEY+WOON8B5//HGPk+txl8WijXXpEExJm9g+4GZMHVIfIvvAkpZdisvyzrlY/9Jf0f/stddevvFJ/fr1o1/F1pCYlkYYCLD2wbaKT4iyiMS0bQ9vyCWkCSFE4WFcWBQhDWEHiy7+MpFPFgaCE5N9drM8/PDDfSH+MAalzw5CHhZOiF1YYSDgIFYhWmHhBYSNaMR3JpVYn2FRxTkIZQh1CDocJxw2ImA3zjZt2rjgQzwczy8+NhHo3LnzZtdI0kt4xIWrJbtgYgHE9YhHPNOJM97KjgkvYhzukKSJNJMe4iDs+Mkfgh0WZ+zOSdkhehEfH+InTsoAt1hEuCBWkfaQl7AxAIIbf0P+SRMiGZsZMAah3BBbqGdeqJMurucayo988RuQLs5B5KPsyA95pbxw/QTSxzmso0Z98n+x/aCNSkjLXqjbsiykgcS04pETezBsaV+dhUjcEiJ7wCUCV4+7777bunfv7lvQ0/kLIYQQmQyiDy5/iGiLFy928QU3UYSXVNwak4EVFJMlBBsmSIg1RRkXIyRhxcZfRKf8JqDpii9AmfBBpCLeosKLOKzkSD9liSgWRLRUIA2MP8gLAldhrqUeKQ/KBeGNsosvE36n3BDUsKxDOETMK0wcQghRFHA5Z73Gu+66y6644gq3NuZFRDz0USI56qWFEEIIIYTYDiCeIJzhCojLY+/eve3vf/+7Pfrooy6wYMVVVCENgqUTll5YTBVV2ELYYU0vBLKCLDnSFV8AUYnwiiOkAWkh7ViMEVZhhSrSgbUeZVDYaykDrNOIm3ASy4TvwZqNcuNcCWlCCFH6UU+dRlBtGRQJIUQ2wZt8vZUSQojCk6z/DJZIWCstWLDA3n77bbv++uvtggsusEceecTX3rruuuvsqKOOcgFHCLF90Pgnu6FuqWMhiorEtDSC+TcLlEpQE0JkEywojXuMEEKI1GGiNmrUKF8EPx52d/z000/td7/7nZ1yyil27733+mL3WCexIP19993n62oV1xpLCFE8cLlmJ1iRncydO9d3JxaiqEhMSyMMjn766Sd/2yiEENkCYhpr5QghhEgdxDREMsQ0rNDYtfH222+33/72t3bHHXfYoEGDbNasWb4TJO6RLIaPhdoBBxzgC+HL1U+I7Qu7u0pMy15Yo1JimigO2s0zjSxfvty36WZnHwZFQoj0o908tz2s49O8eXNfK0YIIURqIKZ99913Pib87LPP7NVXX7XBgwfb1KlTfRKHiMY5jFNbtmzpu6ixptYbb7zhC96zUyUTvb59+9rHH3/s57EjJruuvfjiizZhwgRfXws3pY8++siefvppF+0Sr0OUS7yOBfi5rn///vbMM8/86rpPPvkkaXzJrmOtL/L05ptvbr6OZ0Zpuo7y5DrWpovPH9d9+eWX9tJLL/3qOhblDvFt7TrETzxTPvzww3yvox7Y3TNcN3HiRL+Ol/D5xTdw4EC/jnFOyN+kSZNK1XXUA5aW4Tryl991oV1Pnjw55evYdCrU39auw5qT66iH5557LqXr+C3El3gdYhrnc3+K7IP6Zf7ORi9lFe3mWTz0yksIIYQQQogSAjGNXRwbN27sGwowcefDC4qKFSv6JB7vBj7sWonYwO/8n9/Z3ZFzw0YE/OU7YfI74SMC5XcdAl1+13F+suvq1KmT73WcF38dYgPH2SggXIfgVNjrOD/+OtJR0HUhnZwfn86CrmPzhFSvY0KZeB3nJbsOF93E6/gef12y8uS6UA/x18XnL748WUMvsf4Ke12ydOZ3XUhnQdcl1h8Cb37X0U75TrnEXwfhOtKR7LpU6i/UA6Jasus4L/G6UA+J1/FdCCEKIic3NzfrV1WkY98W4HfNW51LLrlk8wNTCJFeWJuQt5R33323de/e3a666ip/kyJKjueff97djrAEFEIIkRpYOGGNw0YC7NLI+ktDhw51LwY2GVi0aJFbJ2Hlw1gVq6Wzzz7bTj/9dBc/NJkXYvuCxSfC2oEHHhgdEdkErvf0w8cff3x0pOwxb948f07ddddddsUVV9hll11mnTp1in7NAwtqkRxZpqUR3nzwVmVbiXdCCLEt4OWAJnVCCFF4sH6h/8TShhcSZ511lvXs2dPXRjv00ENtt912s86dO7s7JS9l//vf/9oHH3xgCxcu1IZWQmxnuG+xWhPZCXWL1aIQRUViWhrhzUWXLl006RRCZBU77bSTu2MIIYRIHV6u7rLLLr/alZPJ26677uqCGuLZjTfeaPvss4+v0cTOyWxOgEUMFhOyCBBi+9GqVStfX01kJ7jet27dOvomROGRmJZGgpjGGgZCCJEtIKax1ogQQojUyU9MiwePhn333df+8pe/uEv9vffea4cccohvJsDmAVioCSG2D2w8IDEte5GYJoqLxLQ0wqBJpsBCiGyDfg03diGEEIVja/0nY8ewODpWMEceeaTdfPPNduedd7oIx66fbEwghNj2YCAhj6PshbqVEYwoDpodCSGEEEIIsZ1hUscuhe3bt3drtT333NMtJ/SiVgghhCh9SEwTQgghhBCiFIGAxu6e9evXl5gmhBBClEIkpqWRDRs22JIlS7RYrBAiq1i6dKmtW7cu+iaEECJV6D/Xr18ffRNCZBIrVqyQm3UWs3r1aq9jIYqKxLQ0snLlSvvpp59cVBNCiGxh7NixvsOcEEKI1OHl6ujRo+2XX36JjgghMokZM2bYnDlzom8i25g3b55NnTo1+iZE4ZGYlkZ4czFq1CjbuHFjdEQIITKfCRMmSEwTQohCgpjGywiJaUJkJjNnznTBRWQnbPCCYCpEUZGYJoQQQgghhBBCCCFEikhME0IIIYQQQgghhBAiRSSmCSGEEEIIIYQQQgiRIhLT0kjFihWtSZMmVq6cilUIkT00bNjQKleuHH0TQgiRCjk5OdaoUSOrVKlSdEQIkUnUrl3batasGX0T2UaNGjWsTp060TchCk9Obm7upuj/WQuDmW0B2+vOnj3b2rRpY+XLl4+OCiHSCbvmPvvss3b33Xdb9+7d7aqrrrK99tor+vXXrFu3zpYuXWpz586NjohU4KUAE0D+stNRgwYNrHr16tGvQgghtgYbENB/IqhVq1YtOiqEyBTYfIA5HWMgkX0sWrTI1q5da02bNo2OZBdBLMTgJz9o47169bK77vp/9s4DTIpia8NndkGCBMlJclBAUBQzZhHMOUdUVAxX1KtewxUjXP3BnLgGRMSAiphFSQICEgTJikhSkCygZGb+eWunuMMwuzu7zIYZvvd5mqVDVVfo6e76+pxT3e3666+3zp0727777hvZmwXPMhEfiWlCiJQir2IaItqIESPsk08+iWwRicCDlwewLCqEEEIIIYRILVq3bm3HHHOM7b333pEtOyMxbdeQmCaESCnyKqaNGTPGevbsaR999JH7usj9QPeE7OGBGX4uuL++vYQQQgghhBDFH97jWTp06GBdu3Z1f7NDYtquITFNCJFS5FdM++KLL+yII46wVq1aWZkyZSJ7RSy4xE6ePNkWLVpkp556qvuapXuoEEIIIYQQxZ9p06a58Q+WaRLTChaJaUKIlCK/YtqQIUPsuuuus7POOkvBRnMAEe3dd9+1SZMm2aOPPmpt2rTRpCpCCCGEEEKkAIS26d27t4sFJzGtYJGYlkQ2btzoLsh69epp8ClEAZFfMW3o0KF2++2326WXXmpVqlSJ7C14+vbta7/99pt7MB166KFuxt/169fbli1bXFwyrOSK04QlBMvmoUq7vfDCC67MTKxSuXLltA6gvW0bQmLIVq4MWaVKAWvYMOC2zZwZDP8NGOEmqlWL/ywhXfjWbxUrmjVrpo83Qoj/sWDBAhe8vGzZspEtQohUYdmyZVaiRAn3DiTSj9WrV7uJypgkJp3gozhjH549EtMKFik+SYQB8tSpU23r1q2RLUKI3Z2vv/7a+vXrZ99++62tWLHCLYMGDXJCFftYL+7MmjXL1qxZE1lLT8LvUjZmbMj69gvZsOGh8IsDMzSbffBhyN7qH7TZP0UOjMP48SHr80bQBn+tlw0hxP9gADJz5kxbt25dZIsQIpVYuHChLV68OLIm0g2EpPnz50fWhMg7EtOSCFPr4iJFwD8hRHqDaP7XX3/ZqlWr3NTaDJawNouF7QhRiO3cI5hd9P3337dnnnnGPvvsM2e1hlVrcRbhKTPlL64gfMX7aBZvO828YSOWxFnWaJ4tW0I2Y0bIvhocskk/ZIlpGG6vWWu2clWWsBYN+dDdHDfrJ7MvvwrZhAlZ6YQQAhDTsOzlHi+ESD14vyOWrEhPeD9PhY/aovgiMU0IIfLI2rVrbfbs2TZq1ChnXfbll1/ayJEjbcaMGe7FKztzaMzJ58yZs91KASFu+vTpLj4ZrkDpyKZNZn/9hagYf8EiDBC2/v47/jEs5BGvWRmjLlwYslmzQ+H2zRK5yGvFSrOffgrZ/Pn/E7j4uDxtesgmTgzahIkhmzkr5Fw042igRnSA0qUDdnLHgJ17TsCaNsnaTnmXLAmF+y1kU6eFbN68ULhsUtCEEEIIIYTYnZCYJoQQeeS7775zMQWuuuoqu/XWW+2OO+6wK6+80jp16uRipGVnhTB27FgX6w13cCxYEeP++c9/2iWXXGJvvPFGtiJcYUIZklmOn38OhesZtKFD4y+IXRjzrl0bsnHjgjZsWPzjvvsu6ISy2KKR/v4Httkpp22zjz4K2qpVIZfX228H7cxzttldd2/bLpZ177HNLrhom3W6JmhXXb3Nzr9gm9151zYnqMUaFHOedetC9vgTQbv3vqCN/i5LlPvtt5A99XTQzj4vK6877twW7tei7zchhBBCCCFE4SExTQgh8kjVqlVdMM+HHnrIxT574okn7JhjjnEWa0x0wMyh8WjYsKG1b9/eza7DxCiNGzd2s4sixBHovzjMPDx37lxndUdZkjExwqefBp0g9chj8RdEKkSyRYvMnnwq/jEszz4Xsr/X7yymVatudsrJGc6SbMTIoJsIAIuzadNCVq2q2UknUY+sY487NmDd7g/Yf1/OsEceyrDm+5r9MNnsq69Il7sghqcHrpyffh6yUnuY3XhDwPZrETDmm5GcJoQQQgghxO6DxLQkwqx8zH5RnGbmE0Ikn6ZNm9qpp55qe+211/aYafzuWZYuXWq//PJL5MgdadSokZ188slWp04dJ1Y1adLEzj//fLv22mvtiCOOiBxVdCAE9u/f37mjUk7uZ8xMjOhXvnz5yFF546KLMuyJJzLt+efiLx1OyrASJRAaA/bww5n23LPxj3vk4Qwrt2f4oRXz1KpYIWAHtglY5Upm06ebLV1mNmOG2czZIatePWAnHJ+RJXaFzEruYTZrNrMcheyjj0K26DezjZvM5s4z50aaG8uXZ7mTBreZHX44LqAZdtllGdaqlWbwFELsDPd5nhfpPBOyEOkMHz+rV68eWRPpBrNd7s107ULkE4lpSYSXpdatW0tMEyKNYQptZmd755133MIkAt9//72bEYgJCHDxJFhtPFfJsmXLupey0qVLb1/nRa1evXpFPu36sGHD7K233nLTwJ900knO9bRChQpuX/PmzZ1wmB9++jlkI0eGbMiQ+Asxx3CxXLM25Nwlhw6Nf9yo0VmxzWKbFSGuWrWAHXlEwDaH93/3Xci+Hx8+drNZs2YWfkkKOKu1qVODNnxEyCZPDtmmTSGrX9+sVs2sfQhpW7ZGMswBH/8tI3yLx+qtatVAOJ9AuG0kpgkhdgYxrWXLltvvpUKI1KJ++GWB9zSRntSsWdMaNGgQWRMi70hMSyIlS5Z0CjeWHEKI9GT58uU2evRoGzhwoM2aNcvatm1rRx99tHPhRCTbto0YXXEi2kfh7xHJjk+WH5hhdMyYMfbmm2+66d+PPfZYu/jii61FixaRI8yqVKlipUqViqzljXBz2a+/huyXX4Jxl9Wrs2KRbdpotmBB+Lg58Y+bPy+0w+yb0ZQpY3b6aQErV87s25FB+3FqyGrUMDvk4IDtsUfWMbN/ynL9ZHZOBLADDmBfVttjaZaInyb5V61qtjXcvXPnWrhcIRs/PuTiqAkhRDwIC7CHvxEJIVIKhPByPPxFWoIhTMWKFSNrQuQdqT5CCJEHcIFcsmSJrV+/3r1kEfMMSy7MxBHUcwPLVSzSsFjACoz4ZCxFMTX333//bVOmTLHevXu7WUaPO+44Z5G2//77R47Yddq2zZoN86ILM+IuLVpkxTSrUiVgp5+eYRfGOYbljDMClp2ex/ZDDw1Y7VoB++13ZknNchs9OHxuT/nyASe6YQXHTJ8IdwhreaFKFbP99gsYHh/TZoRs4KCgffxx0FnXCSGEEEIIIXYfJKYJIUQe4CtWpUqVnKUBAhiunv369XPWXYkIYghpxCDj77Rp0+y1116zV1991SZNmhQ5onDYsGGDTZ8+3Qlp48aNczHgiN3WqlWryBHJoUXzgJ1wQoadfHL8pXHjrAD+eJEefVQg7jEsxx2XYWiVuGXGQvoKFXD1NNu/dcAJXq1bBaxu3f8dfNihAWephkvmTz+Z/fijuWOaNQ0YHhxlygSseo2ANW2SJcpxHlxIGzRgogjSZZ3jgP0Dds7ZAatXL+AmL8C1lP+TT5295e4phBBCCCHE7oDEtCRT1C5bQoiChfgZzNx58MEHu/hoffr0sREjRri4ZwSaRmSLjpuItRrbSpQo4azRiJnGpAOkxy0UQW3s2LG2cOHCSIqCJxgM2o8//mgvvviiK/ull15qd9xxhyt/PFLlvnbH7Zn2wYBM++SjTLv2mh0fb5UrB+y+ezPtnf4Z4WMy7L13M+3JXpn2zeBMe+jBTOf2eestGfb5p5n27/uzJi1AeOvzWqYNGphpp5+WlR8x2G7rGt72Ydby1JOZ1rdPpn39Vab1eCxrVlEhhPDovVCI1KU4hOMQBYf6V+wqEtOSCC5TU6dOdTGThBDpCfHODj30UHvhhRfsiy++sI8++sjNgPnkk0/agAED7KuvvnLCFMIZvPzyy85qrXv37s7qC2Ftn332sZdeeskF/Wfygg8//NDFKSssRo0a5co1Y8YMu+aaa+zee+918R6zg9hwTKqQ6ngLtooVsyzP8gv5MDkfYVQ034wQIjsYpGEBvHZtHn3KhRDFggULFrh4siI9YfKw+fPnR9aEyDuBYDCY9nKsH9QWNMQ/Gjx4sF1wwQX5DtYthMgZRGuswXr06GEdO3a0Ll26uEkAsgMhq2fPnjZ06FC7/fbbnRUWAfV3Fay7mGiAv/zeU2XiEdqBWTuxhDvxxBNd+zGTUU73ScQ+2hirvLxw593B3S44P5pkr56ZVrJEZIMQYreF58P7779v7dq1szp16kS2CiFShZEjR7qwHDm9Z4rUZfLkye5jMTGD04l3333XjX34UN61a1fr0KFDZM/OICi+/vrr7qP/9ddfb507d7Z99903sjcLWe9lj8S0JEJQcmb4w9ID9y0hRPIpLmJaKjJ8+HAX340HJ66qV1xxxQ6zdmZH37597cgjj7QmTZpEtiTGZ5+HbM2a3esBvGe5gJ1xWlYcOCHE7g1iGoOU9u3b5/ljhBCi6MFIgli5COIi/SBm8MqVK13c4HRCYlrhITEtiUhME6Lgya+YNmTIEPeAYPZNJhDYndi6dastWrTITXTAfer44493bqWJztqZXzFNCCF2ZySmCZHaSExLbySmSUzbVSSmJRGJaUIUPPkV04hvxstQ69atncn+7sTmzZvdRAfEhTjjjDPssssuy9OsnRLThBAi70hMEyK1kZiW3khMk5i2q0hMSyJLly61zz//3LmRKWaaEAVDXsU0HpS9evVyQnfFihWtXLlyKRPfLJlwHySeI2J/s2bNIlsT47333rNDDjnEGjZsGNkihBAiNxDT3n77bedWX7du3chWIUSqQHgMPsAy8ZRIPyZNmmSrVq1yHzzSCYlphYfEtCSybt06++mnn+yAAw6wEiUUfVqIgiCvYtqPP/7oZt5855137PLLL3dpENV2J7gHZmZmWps2bfJllUcbMhCsXLlyZIsQQojcYAAyZcoUa9So0W733BEiHZg7d66VLFnS6tWrF9ki0onffvvNNmzYYE2bNo1sSQ8kphUeEtOSCF8gmd1PVmlCFBx5FdOmT59uL7/8spvB8u6773ZB93fHCQi4D+6xxx75uh/iJsoHgt3Rok8IIXYF3T+FSF2IOQsykkhPtm3b5sbvCKbphMS0wkNP9iTCi5KENCGKH15A4mWI3ygxDXe3hXrn98MCIpwGgkIIkXd0/xQideG9UUJa+oLXRroJaaJw0dNdCCGEEEIIIYQQQogEkZgmhBBCCCGEEEIIIUSCSExLIvjV//nnn/IrFkKkFWvWrHHxIIUQQuSNgr5/EvNnyZIl9t1337nz5PQOSvy2iRMn2oIFC1y6jRs32qJFi+znn392C8HWFy9ebH/99VckRVasHCah+fXXX13M0uLEpk2b7Pfff7dp06ZFtiQO7+uTJ0929aUtigO0NfGL6AdmGCSWk4d9lHXFihWu3sWJpUuX2uzZs2316tWRLekD1zwB6kV6Qt9G3++EyCsS05IIN9ypU6duD1YphBDpwKxZs9zAQwghROIggDAJDrO9FxQIK6NHj7Z//etf7jw5iWnsJ8j0l19+6dIh3Hz00Uf22muvWf/+/e29996zQYMG2fjx451oAwhNzz77rH388cdOtCtOIC5RF8qeVxB/evXqZaNGjSo24hTi2TfffGOvvvqq69Po5y798Omnn9qYMWNs5cqVka3FA8Y+BDz//vvvI1vSh4ULF7rrTKQn3APnz58fWRMi70hMSyLr1693X8eKyxcuIYRIBj/99JOzrhBCCJE4CFt8jMiLmEYav+RE9HFYVyxbtsy9f8amiz4OsQaRDEsM1hlIfvLJJ07A8YNKZnW79dZb7cUXX9xuGYV4s3bt2h0s7KLzTQaJ5hV9XkS/sWPH2jHHHBPZuyPRx8aCgEa9eHeP3p9TmrySaF7+GPrv66+/tldeecXNQh4tTrEPQRORzQudnkTPA/GOSzR9dsc0adLEKlSo4K6d3PJINRDTipuILJIHVpVY6gqRXySmCSGEEEIIUcTgdsnADpEIt0s8HuKJE4hhWLzxoSMnq2HcOrGqmTRpkv32229xPSfKlCljhx12mN11113Oaq1379521FFHOdFmxowZkaN2JKdycg6ENz7ARLspAgKWd1P0x3PM8uXLXX1mzpy5k7iFUEgd2U6eP/zwg3PtxD0V6zLKcsQRR0SONnduxEvaiDpzPGJIIh+6OQ9tOmXKFCeiRJef83D+eK6unJO00WIjaREnsdoir1jrN19O8qM+nNO7diJOUQ76ILcPWZyT9PQx7UE5otuP/+N+yXk437x581xbR1u30T70dXbXCGVCrMVgAHE4to/23ntva9y4sRMmcCPmuhNCiN2BzG7duj0Y+X/aEggEIv8rWHhw85A58MADNY2yEAUEL468dPKSyQvnwQcfbLVr147s3RleAHnJ5IX26KOPtjZt2ljZsmUje0UiEC+nXr16Vrly5cgWIYQQuYHgQFwuhIa99torsjU+iBD//e9/bcCAAU7Y+Pzzz23EiBHueYVYwXslggyCxv3332/Dhg1zLoo8DxFeEJeuvvpqJ45lZGQ4geWdd96x5557zuU9ZMgQJ5bw7Gzbtq17dvJ8JNZajRo1rEOHDlalShWrVKmSE7V4ZiKyNWjQwJWpVq1a1rJlSyeiIbi9//77O5Rzzz33tDp16jgxB0u3Z555xolybAdEocGDBzuX0eOOO85Kly7thLW+ffs6S6yRI0c6SyxcTatWreqWUqVK2dChQ127IIrh/jhu3Di3nfoSW4xyUXb/rk/+X331lasvLqscTzsgplE+Xx7qQVtQJxaOxbKKsiMSfvHFF86lkn3lypWzOXPmuDrzPkG7+PMhRL3wwguuD1q1auXaHvHsoYcecpZk1ImyUH7KWr16dZeO9mE7lmgffPCBS88zlnPT37QPwhbl3WeffVz5aRvSt27d2vUZZXrppZesX79+rr/Ii+sCMatRo0ZWsmRJ984UHuu5a+Czzz5z9eK81JO8sEz88MMPXT/S1gibBxxwgGVmZrpyco306dPHuQLTXlgCUt7oPuJYL0Qi2B100EFuezrANbbHHnu4dyCRfnBPRLBv1qxZZEt6gGDO/Yv7B/crxkvZgX7Bc4rnCc8Gfr/8tkViyDJNCCGEEEKIIqRixYq2//772xlnnGGnnXaanXXWWU4IYUDEh1rAcgkhC1GNj0Mci6gS66aEiPftt986Iad+/fp29tln2ymnnOIGjvEsq6JBhEMgQkCIJwBSTsSW6HIi3lBOLKMQ83D5QxxDlPPnwyIKoYiBK8cAMcAQgRB+KGP79u2dkPTGG2+4CQ+8RRQCDmLUCSec4I7bb7/93HYspBo2bOgELA8CE+Ie+0466SRXb0Sut956y4l/WJjFA6EL8Y96sbRr186JQwhPWHEhdGFNRptGx1iiTpyTsiIgcSziIH115JFH2plnnukGs4hMCIe0Ff3jy0l7IAaefPLJrq8QpsqXL79dcET0QqiKBwPlFi1auHOcfvrp7i/i64QJE9zgGDgXAiz9Qd/RHpSLATQx47gmDjnkENeP9Df9yEDcp0VsIz2CMMfQR3zARGCjT6k3kLZu3bqufWSZJoTYXZCYlkT4AlSzZs0dHupCCJHqVKtWzb3UCyGESBysl7D+ScRKB8sXBJTDDz/c/b9p06ZOwEF0QdRBoED4QNxAxLrooovcgrgRazWDcIPIgxhy+eWX2/nnn28XX3yxE8G8ZZYHcQnxBLEJCzBidWH1deihhzqrtFiyK6efERQrLqw8EMiwZEJcwqoKoQ3x5cQTT3SCD2IOllSIR4hk5IlAeOqppzox6JdffnGCGNB+5HfFFVfYBRdc4ERHyk2bxLOgoAxY3lFn6n7ttdc6V0fqicgVD6zWib1G3tQbkQ7RD2sN0iBaUi/e8dkGWI4hiCFSYS1Gf9NHWLCRH3UlT/7SVqTDFdILUJSTdr7ssstcn3JexhJAOfbdd1+XH9aD8eDZfPzxxzvhj/IieLHNu41Gg8Uhbcw1c8455zgLFCzRsEJBJLv00ktdPvQV7cS1w3XEBA8Iq76PqA/CH9dXdB/Rp1g2IoIm4lKbKiASIm6K9ITfYG5Ww0LkhFSfJMILCl+/vGm0EEKkA7zQM1gQQgiRN3ATTGQwjtiDCyHWWrjqIdJgkYSQw4J4hEjCcQgw3u0eayaEm2hw1WNCAYQmRB5ABMLyCsEjGgQhLNuGDx/uxC0EL9IgQsUeC5Qltpy4cCKasQ9BibJhQYaYRsw2yoPQ5i3qEGoQlXCHxHKNv1iAcTzbEbGouxdqKAfiGO/Z3r2S9kCUivehB5cmRD5EOIQgRCbEJsoSG7zfg2iF9RbiEfXCLRIQFikH7de8eXOXDyIUdWEfVoNY02Eh5vuI7QhKWNNRL4QthCmEsuj4bYhzLPHEVtqQOvORHjdM0tNu0bANyz4EVsqENSL9Tn9guRcN1yEWZYxREBAQ96gTVmmICfwfwQ2rQtrI9xF1QfjkGonuI9qd8/g+wg2ZelAmLxamA7RTTqFERGrD7yveRwMhEkViWhLh4c9DUWKaECKdwCJAX2aFECJvIPwg5MRag8WCuIIQgtsdbnIIFbgdIqggamCBheiFS6AXiLyoxP9jBSVEHdKxLzqGL+WIfUfl3RUrs7vvvtv+7//+z8UNI8YWIkss2ZUTEcaXExBrsDBDJMNSCddBRCZELt6TAZdJ8sO6CUEOAYuF/LGaYpDry4oIhcgTDfWiDeIFzKeNYgUq6u7bMRbcabHKe/PNN50LJx+PqBfPPdrSi1+Un/hluK9yHDHgKBsfnDiefLyYhHUdAqWvFwIUEyVQLt93WHN5l9d4IGrSD8QtRcD07QuUCSHtsccec+1H+2MFifBIu1HuaDiPt3pDOOP/lIW/vjxsZ/FtlF0fYWFHubDW831EnUkXfW2mA/Qr1n4iPeGDA7EUhcgvEtOEEEIIIYQoIrA2Iy4VwgYx0W666Sbnnom3gxfiED4QSrAE4ngveCDeRM/MCIhb5MU+rIo8WC3FziqJGIJoh8iF1RVCUqzg5vGukpQltpwIaB7OjUUPgguCD26PiDtYxiHWAGIZ+RCf7Mknn3RxxvyCsIXbYzzLOA/WVJwHwScWrNqi44wh9FB32hIBKxpEKKzFEAc7duxojz/+uF133XXOso5BdnRbIK5h8YYlC9ZiTAiAxReCKSAuImgh9N1+++32/PPP71CvHj16OPdNyp0I9AWuuYhqTCRBf3r4P66ziHTEL+N8V111lbNmS4YlOYIYfYQ4Riy2eH1E/DXfR1xXlMlbvwkhxO6AxDQhhBBCCCGKCG8RhOUZ4gjgkojlE1ZBgAiEiIMVFCKOdyXEhZDjosFiCNEHAYnZGxGMEDv69+/vLMTyC2VEZEHQw42QfMmP2TN9OT0ciwiDRRXWTFiWEYgfyIMyIhSxn/J7kQ/hi+D5CHfknx24tyJexU6+ALhXMosnghpiIi6QlI+2i+ey58UfzuldF3HfRDDzboweguxjYcbslrQ9M/gjQgLWX/QRccgQnHBt9aIngifCordySxQ/OQPWfcws6S3O/DWDtRrXCvnS31jDYcm2q/g+woUYKzsmQvB9xLloY9rX9xHthqss7ZGoWCiEEKmOxDQhhBBCCCGKCCyeEC34e+ONN7qA+f/85z+dUOFdzLy4wXaCv2OJROD6QYMG7WSJhDhEkHisw1566SUXXB6rJcDSKL9QPsQSrNC6dOlinTt3tjvvvNOVLdYVjm3MGsmxPqZYtKUZ1ltMKIDrJCLfJZdc4sp43nnnOeswRLKcxDQswhDosM6KtbbDogxXTMqIldmjjz7qLN1o43gut5SLSQKYNfT66693fUC7cXxse2F5hsUd58RiDLHL50mdEevuvfdeJ3rdd999ro60P/kyyUNOdYoHbU7bMdFAtJsq4irbWSgvfcE1gRhLeycD+qhTp07O8q5fv37bryPi6T3xxBPOjZf6IIAiriJYMjNprNuxEEKkK5ndunV7MPL/tIWHW2HAg5MvdDzcC+ucQuxuEJOEr8EEweUlHJeGnILD8oLHl2++CBP4mJfjWDcPkTN8bWZwtiuDMCGE2B1BcODemZO1DvdXBDGeZbgvEqcJsYiZExFucA1ESCMPhCLcMon1g5UU8cWYhZFnIZZeHMM7KPmRhuM4nlhfCDKIYViIcQ7cLMmP5yKWXtHx1aKhTJQBCyzypJy4kuIGGF1OxCX2A2UgP1w8SYdLIOeIhnIhTpEPf1kQbiijdx3F2gvBivNEz7rHdp5NtC918AISEyNQNiZpIB0iH2XHSo516gz0CWnYR1tQBo5loZyUAYGN/dHuttQLiyzEJcRMBMNoMZM60z7k4/OkfFjF0c68t5AHItl+++3n2iY6b/KiHX2sPbYhTlEmLN5oa/KgbdhPHUhDHZgggWuBGHiUm+uD9LQH52advNhGelx7uX78s923CfmQHyA00i/0a3Z9hICHwMsYCNGQbZwjHWDyDITTnGLbiaIDy1EmTcHFmHf7vLoYY41KWv8bTBdwx8ealXpxv+eekR1Y72INTCxE7gfcZ+LNkiziEwgGg3n7RJKCFNYNnVmMmL6arzIadApRMDDzF/FBiD1CfBO+PHPzzw4eKMR24cWXr8R8ZdVDIm/g3sFAJifRUgghxI5gtYMLI8IDIkRuYHWEqycfZxFAshO3sARC0GF/dGD5WDg/eTFYQrxBSErGO3Fu5eSjF66HWIc99dRTbjIChKfsYqDhNujzY/DnBZ/cwNUQt0baAOsswBINcenCCy90VlsMthF3Eqk7ognl4Lh4H8aJz8bEAwxSqVffvn2daJWd0EI78M4CHOOFvGTCtUAdaTv6mPFHMvo4lpz6iJlPmaCAdr7hhhvctnSBj7H0G8KnKH5w7c+YMcPmzJnjrlGscRGDec/HDTo3cOdGTONjQDrx7rvvWs+ePZ2Y37VrV6dNZAfu4Uw80717dyeGY+WK+B9NXi1qdyfk5plEeAjzhYwHmxBCpAsMimLjxgghhMgZBiBYTyFCJAKiFIIIA6DshDRgkIhVF4JPThZviB2IOOSXqECVCLmVEwHp66+/to8++shZXiEmZiekAdYkCDEMgClvouXE2u64447bwTKMcnlRCUsV8ky07ogmWL+RX7zjEdK+/PJLF4+Nj3mcPzshDegb8mMpCCENuBZ82yUiGOaXnPqItsbKDVfadGPFihU7TGYhihf8xrGmRBDD5f3ll1+2gQMHulmBiVlILL+cxuXsx/pQiPwiMU0IIYQQQgiRFBAPCa2A8HL11Vc7Ma0gwEKKvInl5cGdESuiaJfQZMGgGysO3DDvvvtuJ2YKc+3BrKze1VaIwgSXZNy4Ebh/+uknFyPx5ptvthdffNG5LjJxBxOAxMZWFCIZSEwTQgghhBBCJAUGt88995xzGyJ2WWHGI8Kd9JxzznHuXsnmhBNOcO6dBPon7EFe4zMJIQoG4hMy6y0TomCJSiy0Dz74wLl/E97l+eefd5ZqWKlhMSy3RZEsJKYJIYQQQgghhBAiJSF+I4L3Y4895tzKEcyI70gIJmKIEWP53HPPdfHB2EZMQyF2FU1AkETwqScIJzPt5BTDQgiRfzQBQeGDmTzxUPwsbUIIIXKHwRyxez755BNbsmRJZKsQIlUgZhoWiAg1ovjDJATEQcPdc/Pmzdst0NACiC9IfD/eZZnZFks2/hILkJmQ0wlNQFB4SExLIijczOjJhZvIDCJCiLwjMa3w4WWSlw1M54UQQiQOcbbGjh3rYvYIIYQoOJhtlhhpTEbAxFmIQEySgpELf5mwAOGMWXiPOOIIJ6axrSBiLBYlEtMKD4lpQoiUQmKaEEIIIYQQwoN4hkXa22+/7cQ0rNRYsCps0qSJWxDPmDCjefPmbnu6xj2UmFZ4yHxKCCGEEEIIIYQQKQczCM+aNcsGDBhg7733nptoAPEM67NTTjnFLrnkEjcZwU033WRHHXWU+6iuCUREMpCYJoQQQgghhBBCiJSCMEtz5sxx1mjEp2Q24QMPPNDN6tutWze3FNQMv0JITBNCCCGEEEIIIURKsWDBAufWOHr0aDvvvPPspZdesnfeecduuOEG565YqlSpyJFCJB+JaUmEWE4//vij888WQoh0AdN5ZisWQgiROMSZIW7n2rVrI1uEEKkEQs3ixYsja6K4wcyd9E/79u3t1VdftVtvvdVatmyZsAsnsyzPmzcvsiZE3pGYlkQQ06ZNm2Zbt26NbBFCiNQHMY0XFiGEEImDmDZz5kxbt25dZIsQIpVYuHChxLRiDDNxIp7h1tmgQQOrXLmys0RLdPLBpUuX2vz58yNrQuQdiWlJBIs0Bpya8UIIkU4wECQmhRBCiLyBVZo+sgqRmjBD5MaNGyNrorhRsmRJq1KlilWsWDFfEwrQt/SxEPlFYpoQQgghhBBCCCGEEAkiMU0IIYQQQgghhBBCiASRmJZEMjIyrHTp0gn7aQshRCpA/In8mM8LIcTuDvdP3g+FEKkHboQlSpSIrIl0g76lj4XIL3q6JxGCILZq1UqDTiFEWsHU4sSjEEIIkTh8XG3RooWVL18+skUIkUrUq1fPateuHVkT6UbNmjXdxAVC5BeJaUlkzz33tNatW+sLhhAirWjevLnENCGEyCOIafvtt59VqFAhskUIkUrUr19fYloag5jWsGHDyJoQeUdiWhLxbp5CCJFOyM1TCCHyh9w8hUhd5OaZ3sjNU+wqeroLIYQQQgghhBBCCJEgEtOEEEIIIYTYDdi0aZONGjXKxo4da1u2bIls3Zlt27bZ0qVLrW/fvrZq1SoLBoNu+5o1a2zGjBn27bff2pAhQ2zMmDE2Z84cW7dundtPuvXr17u8Q6GQ25YonOPvv/+2zZs35zmtEEIIUdhITEsiW7dudS8ZegEQQqQTa9euzXHQJYQQIj68Fxan++eGDRvs/ffft48//tg2btwY2bozvNP++uuvdu+999rixYudSLZkyRInopH+k08+sU8//dT9HThwoM2bN8+lW758uX333Xe2cOFClyYvIKSNGDHC5s6dm2PZhCgsEIb5zYj0hPsM9x0h8ovEtCTCj3Hq1Kl5fnkQQojizKxZs+zPP/+MrAkhhEgEPq7OnDlzu9VWsuF9EysuBoTZCXaUgeMQBDiG//OBhDJ5azMP6+SH9RpiGscjjvF/8vnyyy/txRdftB9++MHNgHfQQQe5yRUmTpzoxDOO4XnxxBNPOOs33os5n//IzF/ypCycJ/r87Pvjjz/soYcesq+//tpWrFjh0nIM+6Lz8bCP7bGwjTrQLrJyE7vCggULnJgs0hPuOfPnz4+sCZF3JKYlEb5eTJs2zb10CCFEujB79mxnXSGEECJxEHFwiSwoMY378k8//WRTpkxxYlasOAa8kyKIjR8/3g0aEZmyg/fYn3/+2ZV55cqVka1ZkG7cuHFuZueHH37Ybr75Zrviiivsnnvusffee89OPfVUd8xff/3lBCzKhpsoopi3MkNEQ5yYMGGCOw9imxe6ENloJ/+XMrOQhnxxNY0Wxqgr5+JDT6xYRtmpAyIfVm5eDBQir/C7wiJTpCcS08SuIjEtyehhLYQQQgghCpJXX33VbrjhBrvzzjvtscces6uvvtouvPBC++WXX7Z/1GWg+MYbb9hpp51mPXr0cMd3797dffiNhnfXH3/80Tp37mw33XST/etf/7Lbb7/d+vfvHzkiS5RjQezibyAQcNv5y2yl/CVfXD+xTiPWWteuXZ3whtg3cuRIt37dddfZc889ZzfeeKNdfPHFzk0UsQ3RAlGOgS1/KcO///1vGz58uBMCSTdp0iQnqAGC2yuvvGJ33XXXdjctBLZnn33WtQXpn3rqKdc+nAsxTgghhEgmEtOEEEIIIYRIIdq2bWtdunSx+++/31mH3XLLLc6K6/PPP3cWYQhkiFDDhg2zY445xglTDzzwgO25557OoisaxLHevXvbHnvs4azNOPaMM87YwSKndOnStt9++zlLs0ceecT+85//2Icffugs4zgvNG7c2I466ijnAoqlGoLctddea82aNXPbEM+6detm//znP507Z926dV0ZEfJq1qxp7du3t1q1arm/WL4h/uFKSv642vHXf7RGOFu9evX2urL8/vvvLuba/vvv72K9IaQhql1++eVWrlw5l04IIYRIFhLThBBCCCGESCH22Wcfa9q0qRPHcINEECtZsqRzoURkwnKLeG38/5JLLrEjjzzSiWrt2rVzwpWHdAhSxDg7+OCD7ZRTTnGC2NFHH21t2rSJHGVWokQJ69ixo7N+q1atmhPA3n77bWd5Rhw1rNEqVapk9erVs7322suV7bDDDnN5VKlSxZ0TMY60PsZbZmamc8NkogPErkaNGrm/DRs2dGVBSENcSxRipWGBhrsq7qjNmzd39aYcCIVCCCFEMpGYlkR4ialRo4YzdxdCiHShatWqzipBCCFE4uD6iHhUEEIOYhYukkwKQGwwYpAhTuHaiVhFzDKsyLh3t2rVKpLKnKAVK6Zh9cWkBE2aNLHq1au77ZUrV95BTIMWLVo4Ma1Tp05OWDvggANcembzxAKOGGfZ8dtvv9ngwYOdNRvWaLh+InpRzmTE5KStKTNiIfm98847zg2U8+VnZlEhAFFWVo3pC32L+C9EfpHqk0T4OsgLCy8zQgiRLvB1nxdKIYQQeaNly5ZuxstkgljWr18/J2AhEmENhoslg0I/SyYiF66PvJNGf+TFwix6nWO8lZiPfQb8n4/EsfBxBWuvK6+80rmY4jqKWMgMn9kF8qZMxEyjzFjK1a5d27l+8gGa83F+jz9/NGyjPNGCGP+PFchoZ8pF+RDUaB9it3FexELvIipEovDb4noV6QkfFnBBFyK/SExLImXKlHFm9xLThBDpBK435cuXj6wJIYRIBEQgrL342JosEISwAJs6daodccQRdscdd9j5559vxx57rDuPF6O8RQ3B+X3sM9IuWrRoB0swxDUGlKTD3dPHU8NNNFocQ6AjL6zJ+D+QhucD6RG2iGmG6MV7MK6nXrxCyJozZ44T54iZdumll7pJEerUqbODYEd+rCOu+XMAZcTCjpk72U6+WN3FTiqAgMjAGMu5l156yU10gKtor169XN2i8xQiERDSvLWmSD/4OMB9SIj8IjFNCCGEEEKIFMF/tEVcQqhCxJo9e7a9//7722e2xOWRuGUISMQ2A8QmZtucMWOGWwfEq/r16zsLZCy5pk+f7oQxYpkNGDAgcpQ5kW3o0KHuGM4J5D1mzBg3CQHx0ohvVqpUKSfiMasoFmkIX97iDSFu2bJlbpt3++Q8HuqFW+yCBQtcPbwYh0hI3DXOTx6U79tvv7Xvv//e7QeORTAjLUIg56RMiJngRUYhhBAiWUhME0IIIYQQIgVAFMJShtk2cZ0888wz7ZxzzrHHH3/cTj75ZOcl4SF+WIcOHZybI5MPHHfccc6aC6EtGoQnZr5kX9euXZ2VG/khxnk4Buuy7t27u3wJ6s/CrJutW7e2s846y1mFIcwxiQHCF+eknEyKgBUd1nLnnnuum+kT6zHcMnGj8yB+XXXVVU7QO++881xctv79+zsX1rPPPtsJeeRHvsRdQ3iLBou9++67z6VjRlDywEKN2U6xnpPniBBCiGQSCAaDaR9AQF+jhEgf+Frdp08f69Gjh3th7tKli7Vt2zayd2d4KWfKfwYTvGTzAo9ZtxBCCFFcwQILazMEJ9yQokUyIKg+kw7g7oh1GcISzzZcOLEyI34arpa4eGKJxnGIWQhePEf5/7777utcKMHP/umD9SPYsbCOeMb5sfpiQXTDGg5xinwQxMiXsuKiuXLlSmetxjFly5Z1IVA4D9ZquI5i0UZZKTPWcvyf9JyX8lNvLOGIxcbMntSfPJm0gHqQZ926dbdbrjFRAvmTlroyCQN1ZxsCHfHZyENimhBid+Ddd9+1nj17unssH0j4qJId3C9ff/1196Hk+uuvt86dO7tnQzT+Xit2RmJaEuHBjYn53nvv7b7gCSGSj8S0wuf33393AxIGMEIIIRIHd0ZcFGPFsHggPiFWTZ482X799VfnosjzDeEo3oygCFdMRsB7bnS8tGgYBCFYIZZxDyef7N5REbkQ8UhDjLLoeGYejsF9k/MiTpFnoiIVYhnvyqQnDmdexS3OTT1wJc2uHpSdsnEO9uelfELEgnjL9cM7kEg/cJXnPhpr5ZrqSEwrPKT4JBEG+QSE5WVBCCHShVmzZrkXDiGEEInDAARLKQSg7GAgh+BGDDBimzGo4YMRFmHMdslgKJ6QBohdiFLEKMvuwzHbOQ7XTgSynD72so+8yDOekAYcQz5YvuVVEONYxC3S5kfg4txYwuVUD+qLcMlx+RHshIgGcXvx4sWRNZFuICRlNwuxEIkgMS2J8LWNm67ENCFEOoFlGtYKQgghEgcxjdkzsTiLBgsr7844atQoGzhwoL3wwgv2xBNPuP8jBl1xxRV28MEHO9dJIUTRgGXa6tWrI2si3eBDMZOiCJFfJKYJIYQQQghRgCCs8dGVeGPz5s1zkwfghoMLTq9evWzs2LHuYyzB/B988EEnpOG6KYQQQojiicQ0IYQQQgghChDieP3444/25JNP2gUXXGB33HGHDR482Fm+EN8L98QDDjjA7r//fvc3O9dOIYQQQhQPMrt16/Zg5P9pS3ZxJJINMw8RW+jAAw/cPjuSECK5EF+GGb1Gjx7tgjPz9b527dqRvTuD+fakSZNcPMOjjz7azfqlQPp5gwEgs7URc0cIIURiYI3GZAI8t5gE5+WXX3bPI1yLENB8WBDeU/fff383a+acOXPcZDnEWWPigWnTptnTTz9tffv2dccxM+YHH3xgDz30kE2YMMHFBiMfYq3dfffdcdMRX4x077///k7pXnvtNZeOd9jodG+++eZO6SZOnJhjuqeeeirbdMRJy286JlCgfv/6179cOp5HsemYsdO3S07peBeIrl90OvqG+uUlHVaEP/zww/Z01O+ee+7ZIR3lpP+J39a0adPt9fPpuD58OuIv0y4+3VtvveXOx/tOdDrqxzVEunvvvXf7+XheJzOdr19O6RCIo9MNGDBgp3SvvvqqS0f9SMd73K6moz1j0zFRQE7p+vfvv1M6fqPR6fj9ka5+/fo2fvx4dy18+eWXLl3jxo23t0t0uldeecUJ4T4d+2hPfz7ScT76wafDUpXzJZKO81GH2HSE4KB+pKN+xF2MTUcf0Z4+3b///e/t7eLTvfPOO64fYtNxPj4ERKejnLS1T8f5GjVqtFM63NtzS8dsvaTr1q1brumw4M1rOn7TOaXjONqG33M6weRrY8aMcdbNhx12mLves4PfMtcBIQeY8Oaggw7SRG15QLN5JhFejnhBOfbYY7MN3CqE2DV48Gk2z8IFdyQGOATDFkIIkRiIaSNGjHCDupUrVzqRhwEOAzwGfgzCiZ/Geyozfh5xxBF21llnuXdIBBUGuzzzmIyAAS3bWFhnYbIA1omxxjoTGeQ3HWnYlqx0zGxPvLi8pGNbnTp1dkrHhANsy0s6tjHrZ2w6Bo5sK8p0pGFbMtKxjQD5pElGOgQX1osyHRNHsC02HXkhFuclHWnYlt90iAwEqa9Zs6Zb5+MtafJyPrbVqlVrp3RYn7KerHSUgXtKcU63du1aty02HXkRHzIv6UjDtl1JRztzv+VDezqh2TwLD4lpSYQfKrEwqlev7tR9IUTy4QVaYlrhsnz5cvdyxIBGCCFE4mAdjfURVhG4dM6dO9dZnzGDHB9gf/nll+0TFPDB4uSTT7ZrrrnGDfbl5SBE0YKhBL9d3oFE+oEoiEUplm3phMS0wkOKTxJBEefLhYQ0IUQ6wcNYQpoQQuQdPrBiuYIwxjvikUceaZdeeqldddVV7uMO/z/xxBOtQYMGznrt448/dq6EiG18pBVCFB24AEpIS1/o23QT0kThItVHCCGEEEKIQgK3IsSz8847z+6880675ZZb3KQExxxzjLNOGzRokH366acS1IQQQohijMQ0IYQQQgghigDiiBGv5+abb7ZnnnnGBRU/4YQT7Ouvv3bx1XCzJ66aEEIIIYoXEtOEEEIIIYQoYgiIfdRRR7mYoMzKR7DspUuXulihQgghhCheSExLIrzsMFW3n+pcCCHSgVmzZtmaNWsia0IIIRKBoM0zZsxwQa4ThUmzCHjOpAXt2rWzFi1a2J577hnZK4QoTJj5kdkhRXpC8H3c6YXILxLTksj69ett6tSpblYQIYRIF2bPnu1mtBJCCJE4iGkzZ87Mk5jmYTIrRDQmf9HEVkIUDYhpS5YsiayJdENimthV9HROIohoDDg1fawQIp1Yu3atbdmyJbImhBAiUbDq1f1TiNQEr6MNGzZE1kS6sXHjRrnRi11CYpoQQgghhBBCCCGEEAkiMU0IIYQQQgghhBBCiASRmJZECBpbqlQp91cIIdKFPfbYQzF7hBAiH+j+KUTqUqJECbeI9ITJXkqWLBlZEyLv6OmeRAgU26pVK/fDFEKIdGHfffd1M8sJIYRIHD6utmzZ0sqXLx/ZIoRIJerXr2+1atWKrIl0o2bNmq6PhcgvEtOSCGJa69atJaYJIdKK5s2b21577RVZE0IIkQgS04RIberVq2e1a9eOrIl0AzGtYcOGkTUh8o7EtCSCGX+ZMmXk5imESCtKly6tjwRCCJEPdP8UInXBTVtugOkLfUsfC5FfAsFgMBT5f9oicUuI9IEprPv06WM9evSwjh07WpcuXaxt27aRvTszffp06927t/Xr18/uu+8+69Spk1WtWjWyd2dWr15tP//8s/3++++RLSIR+JCgQaMQQojiTrVq1ZzFER4lQgiRbrz77rvWs2dPd6/r2rWrdejQIbJnZ/744w97/fXXrXv37nb99ddb586dXXiXaEKhtJeL8o3ENCFESlHQYtp3331nH3zwgU2ZMiWyRSQCQlrZsmUlpgkhhCjWtGnTxs4880xr0aJFZIsQQqQPEtMKD4lpSWTbtm1uoE9sDAl4QhQMBS2mvfrqq/bSSy/ZzJkzXZywcuXKRfaIeGzcuNFWrFjhxLRKlSrJHUIIIaLYtGmTuy9qRs+i56+//rJVq1bZEUccYbfddpuddtppkT1CxGf9+vXut8s7jkg/eIcNBoPuY3A6ITGt8JCYlkTWrl1rU6dOtcMOO0zTKAtRQBSWmMYL9wknnGAHHHBAZI+Ix4IFC+yjjz6yunXr2kknneSCuQohhMjil19+cbMByqWw6Jk4caINHjzYzd4nMU0kwuzZs11MrUaNGkW2iHRi/vz5TjBNNytViWmFh8S0JLJkyRIbNGiQG6zrC4YQBUNhiWl8ibzxxhvtjDPOiOwR8fjhhx/s3//+txMdeWA3bdo0skcIIXZvGIDwvDrxxBNdjC5RtAwcONCefPJJZ4UiMU0kwtdff+2ul3bt2kW2iHRi3Lhx7uP5KaecEtmSHkhMKzxkc55kMBUVQqQHCGpacl/4YMHC/4mZpkWLFi1aMrffH3VvLB6L7w8hEkUiQvqjPha7gsQ0IYQoJsybN8/uv/9+9xVpyJAh9ueff7p4DswwypczrPKEEEIIIYQQQhQtEtOEEKKYsHLlSvviiy+cu/hPP/3k4jgQh/GVV16xZ5991r799ltZvwohhBBCCCFEESMxLYkwW1P16tWdGbkQQngwIcfCDOuypUuXuvgE69at20kYY0ZgZhtj3+bNm90scMwq+vHHH9uAAQNs/Pjxbh8iG8eK/EPTb9hg4fa0cFvTR5EdEdgfvY3/+yWWLVuY8YtZoSIboshpH2zdmlUO/sbCNtKGLwmXT7wy5lQHIUTRgkshMToJYC6ESD0qVKigWd3TGCaGqVixYmRNiLwj1SeJ8INs1aqVi8sghBCeX3/91UaMGGGffvqpC4DMggUaM4vhypldvAZmkfr555+dgIawRj7ffPONDRs2zFasWBE5qmih/JQtGSAO/flnyFauDIXrF3/xohMi0urV8Y9hQYCK16xokEuXhuz78SEbOixoX38TtBHfhmzatFD43FkC1tKlZt+NCYX7J+TOQz6/zgvZ6O9CNnPW/zJdtcpsajjdyFHhvIYG7duRQZsV3s/xsftGRu0D6kle7B8WLgd5z5gRcuIZZVi4MGRjx2WV8Zsh4fTh42bPDhmevtThjz/i1GF6Vh2EEMWHli1bWvny5SNrQohUgolDateuHVkT6QYz0Ddo0CCyJkTekZiWRMqUKeNmv5CYJoSI5p133nEzXj766KP21FNPWa9eveyWW26xO+64w8aMGWMbUGzigOj2ySef2OLFi51oxaxSpLn33nttxowZkaOKBqzq1qxZY6NHj3bWdHy53VXrCzQ5RKzBX4fsq6/iL+FTOkFq3jxEqPjHsEyfHnLiXCzr1oXsiy9D1vW2bXb3PUHr8Z9g+O82e/b5oE2PiFmIYld22mZ3/HObE63Ip3//kNvW68mgOz+WYsOGB+2++4N2aziv+x8I2kMPB+25cD5YoW3f1zVr34OPBO35F4IuL8Qy6vnoY9uy0nYL2m23b7NuD25zghnnfOvtrG333he0x7oH7Z93brOX/xu0RYtC2+tAWleHx7Pq8NxzQZsx839inxCiaMEyjRmOZdkiRGpSp04d53Uk0hNmu9x7770ja0LkHYlpQghRwDRp0sQuu+wy69Gjh4t9xiQDfAn75ZdfnFiGK2c8DjvsMDv44IOtcuXKzvK1TZs21qlTJ5dX3bp1I0cVDVjLPfPMM9a/f3/bZ5993LTb9evXj+zNH7grPvts0Lp3D9ojj8Vffvs9S9zCUuuJnvGPYfn0s5ATvGKZOzdkP0wOGd74na4IWJ/XMq3HoxnWsUMg/FIVOShCgCdknInfEMPI54UXQ87a7MjDA3bP3QH75+0ZdtCBWULfiy9F9h0R2Xdbhh16CINrs/nzQ9b/7ZBNn2F20okB+89jGXb6aQGbNNns1deD4WsiaNOnhaxqVbObugTs1f9m2kPdMqzdkQGrUMHC101WHUpkml19ZVYduj+SEe6DcB3CaYQQQgghhBAFi8Q0IYQoYE444QQ78MAD3WycTCwwf/58J45htbBw4UI38UA82rVrZ4cffrhVqVLFHU8e119/vV1zzTW7LFztCosWLbLnnnvOCWlHHnmkm32UclKfXaFyZbPeL2faoI8y7bNP4i/7NAs4IeyC8zPsnf7xj2H5xy0ZVqpUJOMoKlQI2F4VzZavMPtoUMiefmabjRsXssqVLGEhCsuzMWOCtmZtyFq1CthppwbslFMyrX17BK0MGzsuaH+uiew77X/7zjgj05V98pSQLVsesuA2szm/hOzTz4L2889ZIuGU8D5EvD3LBcLXidmA90P2cu+gc0OtXw8xLWAVK7JYOA+zgdTh6W3O5bNKuP0Q4IQQQgghhBAFi8Q0IYQoQBDQPvjgA2eR9uabb9pXX31lP/74o61evdpNIoCFV3ZunrgGIaLhOs7EJmXLlnUm6YhrRRXQes6cOfbWW2/ZZ599ZoceeqjddNNNznqOcu4quFgOGBC03v8N2ksvxV+WLcty85wyJWhv9I1/DMuIEcHt8dWiqV07YKecnGGXXxqw+vUD9scfZsNGhOzV10L2ww9Zx3hN0LmJhs9F92ze/D/3Sc7/199Z+8uUMSduYTFGWCTELuKabd8XXvf79torK/369SHbFi5byZIW7kf+Bqx69YAdc3TADtg/YPu3zrBzzwnY2Wex3WzBgpB9OThkL70cdLHbqMOpvg71Ai7G2/0V8HwAANYLSURBVLDhIXslXIfJk7POIYQQQgghhCg4JKYlEYJwY7ERO0OfEGL3BVdOJgwYN26cE8POPfdcO+OMM5ybJjMAI6jlNDMnIpqfITi7iQoKC6zqPvzwQ1efZs2a2T/+8Q9nkcZsV8mA6m3abLZhfZawFm8JBrPaAKEMC7F4x7Awu2U8tmwJWalSIduvZcBOxaLs5AyXz6TJIVv0W8gJXGXLZqlpxGdjEoEvvgjaz3PcJgfHNG0ScJZvTBQweUrQpk4N2cyZofDxQWvS+H/7pvwY3hbZ98MPWRMQNKgfcJZnPCoqVw7YwW0D4XYM2IEHmDVsSJ+HrEJ5s4MOxKotw45qF7Cly8xNSIAR4w51OCVgJ3fMcILfpHD+1EEIUXz4/fffw/eYbKbzFUIUa/Ac4OOnSE+I/bt8+fLImhB5R2JaEsECZerUqTkOjIUQuxfMusmL2NatW92sQW3btnUx1BDGEhHHSpUqZaVLl3bWa1iFEfCf+wwWbYUJouCgQYNs5MiRbmYr3E1xX02GRZoHS66TT86wCy4I2EUXxV+qVAk4y7HmzbHcyoh7DMshhwQs3lwwvBPjMolbZHiMa3+vz9q+dx2zSpWyLMWqVzNr2MBs3V8WrnPQhgwJ2pIl/+srjjnggIAdGj4HkyYMGRqyvv2C9vY7QRs1KmStW/9vHzNx+n1DhmZNXkDZD2kbcK6lzDw6fwGL2bz5WTN18l5HTDQWLOc2bMpybUVoKxdubmYKZeZOV4fFWXWgTagDeQohigfc45ksZu3atZEtQohUYsGCBeHn/5LImkg3/gi/ZBF6RYj8IjEtiWCZxg9SYpoQwoNbJjNBlShRwqZPn279+vVz1l3EStsSL0J+DAhwDRs2dBavY8eOtaefftree+89N8NnYYHF7fvvv29Dhgxx9SFm22mnnbbdYi5ZIFK1PShgRx+dYcceG3/BXRLhqG7dLGuueMew7LNPlgAVS7gbbFswYIt+y7L0GjM2ZI0bB+ycszOcpRcCHHM7XHh+hivLX+sDVmfvDDvk4IAdET7fvuF8OaZWrYBddmmGndwxYOXKBWzePHOCGFZr8faF38e3lweXTlw4sYorUzpgEyeZTZgYshUriXmW5Ra6aXPA5v6aVcYZM0LOSu3iizJc2TjHtm071+HcczKsZbgOQojiAWIa9/rsXPmFEMUbrJZW8QVLpCV87F5G/BAh8onENCGEKED2228/O/HEE61169bOnBzLLl7OTj75ZGehhtCG+ycQB61WrVpuKvby5cu7WGmk59iDDjrIxVCbO3duoQ3OEPAoM7HePv74YyfsXXfddXbmmWdGjkg9EOE6XZXhZsB86YUMe+G5DHv91UzrckNGuD+yhKiaNQN27bUZ9krv8HHhfffdm2G9embaW29m2l13/u+xicD28EOZ4eMy7eUXM+zZpzPsn3dkOrEtdt8zkX1eUGNygjvDeb36Stb+3uHlzTcy7dprMuyYYzLs9q5Z5Xrx+awyvvF6pl1+WYYrG3W4utPOdbjh+gwnqgkhhBBCCCEKFolpQghRgGC9deWVVzpBiqD9TEbwxhtv2KOPPmrDhw+3AQMG2EknneSO3X///e3rr7+2CRMmWKdOnaxGjRouHtnpp59u77zzjrNMmzhxor322mtOnCtocCX1EycQI+3WW291wl6qg2Vb6dIWbt+AC+aPe2msFRvrTCxQrlyWNVtOcEy1agGrVGlnISunfcC52Y9FWrRbKmXEgxbxjAWrPbZ5EqmDEEIIIYQQomAIBH005zQmED0CKUDwqR84cKBzgSLGkRAi+RCbsE+fPtajRw/r2LGjdenSxcUhyw5cK3v37u3cK++77z4nUlWtWjWyd2deffVVe+mll5wIdvPNN7vJApIBVl64gHM/wuWzuPPbb785Ea1v377OIu2hhx6y9u3bO+u4gmDylJDd/S9N3pIMTjstYP+4WcqaEEUN9/3XX3/d3Tvr168f2SqKCkIs9OrVy8qUKWO33XabC1cgRE4MHjzYxYZt165dZItIJ5gcjEkmTj311MiW9ODdd9+1nj17utAsXbt2tQ4dOkT27Axx43hOde/e3cVD7ty5s+27776RvVkU9QRoxRmJaUkEv2ssSo477jg3S58QIvkUlpi2efNmu/jii+3YY4+N7Nl9wA2ViQ4++eQTa9q0qR1//PFuFtKCHAyuXGXh+6ce1smgXj2zFs0L57knhMgeBiBYILdq1coNakTRIjFN5JUff/zRTQQVKy6I9ICJvfDCOPDAAyNb0gOJaYWHxLQkwuAbdRvXrGQH5hZCZFFYYhqTiSAkEb9sd4OZ5wi4S/w2XDuJ7cb/ZXErhBB5Y+nSpbbXXnu5AbkoWiSmibyCoQTxawm5IdIPhDRm26/EdO5phMS0wkOKTxLxwcMlpAmRujDgwbIU9xwesMzSu7stiGZ8peOhesIJJ7jZRCWkCSFE3uEDq4Q0IVITRBYJaekLk32lm5AmChdZpgkhUoqCtkwbNGiQPf300+5r5BVXXOHEpN0N7pm8PCKiCSGEEOmALNOEELsDskwrPCSmCSFSioIW05hx86mnnrINGzbYHXfc4WKFCSGEECK1kZgmhNgdkJhWeMgfUQghhBBCCCGEEEKIBJGYlkTWr1/vrGC2bdsW2SKEEKnP7Nmzbc2aNZE1IYQQicDX/JkzZ7og10KI1GPhwoW2ZMmSyJpIN5ggZsGCBZE1IfKOxLQkgvvZ1KlTXdByIYRIFySmCSFE3pGYJkRqg5i2ePHiyJpIN3BxZPZ+IfKLxLQkgohG0HL5FQsh0gmEtM2bN0fWhBBCJMqff/5pW7ZsiawJIVIJDCWIoSvSE/r2r7/+iqwJkXckpgkhhCgyfv75Z/v+++/z5EaBK/3cuXPt66+/to8++shGjBhRpB8xcBOYN29eXOs9vnr++uuvtnbt2siWgmfjxo2uPKNGjdreLrQvCwP7ZcuW7eDWQBmxnpkyZYr9+OOP7v+///77ditr+mj8+PFp7epCXbFAYAKSTZs2xb2e2EbbcgzH7mpIh2AwaCtXrnSBgletWuXWd3dogxUrVrjf9AcffGBffPGFW0+E5cuX27fffut+b/TnDz/84K5p2jgvcO3zm/C/Ffrag/fBrFmzCvX3LIQQQojiicQ0IYQQRQYDXgbMDIAThUHzl19+6WYfGjhwoI0cObJIY1VOnDjRPv/8cydgxYJQyL7CjMmBGIDQyHm9KDR27FhXll9++cUmT57s9vt9bH/nnXesf//+Tpxkef/9923SpElONECgYD8iQrqC5RD1feihh9xX6njCFttoj0cffdRdt7tqbYTgg3sJM23xV/FWzblDIty+/PLL7hrkd56omMbvj3Rcz4ie3BsGDRqU59/ed999t/23Qj8PHTo0ssdc2RBTZ8yYEdkihBBCiN0ViWlJJBAI2B577OH+CiFEulCyZEnLyCiYx8Xee+9tzZs3typVqrh1BAtEHhbEBgSLaGGD/48bN84JWE2bNnVTef/jH/+wEiVKRI7IslwjnbesioZ8/Tn4ixUSx/N/v5113FqjxQ32kScLx0SD9cuQIUPiDtoRrr755hv77bffIluyykf+seeIxh8T73zZ1cGXnfKMHj3ajj/++O3PI9qLBdGSiXIQyEgLlNFb9CBCUI8XX3zR7rrrLmephoCE1R3nica3Sbx6RJcxFrbH2xedV+w+fzwL/cpxbIuHP4byxms/D9vZz8I5qTvCTXS+0efjGPYh5nJsvHxzqgPEnpNjsWxkPd7xHn8sS+x1Ha8tIV4ZWPf14W926fz+eG2cW3rS+HaId4zfH9s//EXAGj58uEv7+OOPW7du3axhw4bZljN6O3lh4cdkUGxHmOPaJS/WOW+8+vh9Pi8EM0Q0fg9YoiHW+32HHHKIEz75vXC+RCjI+6cQomDh3SIzMzOyJtIN+jb6/VGIvKKnexLZc889rVWrVrrpCiHSin333dcqVqwYWUsu+++/v5144olWv359NzjGJYsYJVgH4cqJy2G0mxYDZCxQGNxWq1ZtpxddBu+4I2JFhSjEejTkzQCbATf5MnDGpYv/kzf7Sc9gmu0+PfuZiIHBfqKD6OzAcgzBiyXandLDwJ4yIHrhYhkbryW7OlAuhB7KyTHt2rVL+OMO7X/++efbww8/bL169bJ+/frZokWLnIUOYk88ODf9g+BAPaKFCspGGePFmsF9jramvz38n7b1eSGAREMargkW+pW2yW5SDEQaXPMmTJjg2o80XgyJhu1YGNFe5B8PLy4iKubm5ppbHYB2mTNnjis/fZUouBtOmzbNXZex1zXtQHtGb6Ms5B8tgNIGlAkxCCs8/nKdREMfIvxybVJO8o2G/ZyfsvA3VmAFf10g3pIH5Ypuf64L+oX+4TgvfvGXdiN93bp13W+bheMTqV9OkJZ8aKvo6xRoE0RU8op3nUTTsmVLdy/kHkTdcoPfX4sWLax8+fKRLUKIVKJevXpWq1atyJpIN2rWrGkNGjSIrAmRdzK7dev2YOT/aUthWYrx9RHrClmnCVFwIBh4y5smTZrYwQcfbLVr147s3RkGoQwcGeAeffTR1qZNGytbtmxk784wyMPyicHXEUcc4QZCuzt77bWX+1hQENYVxEX65JNPXJ8w4Lzpppuc0PDWW285N0WWwYMHu/NjiYYrIu5b9CdiGwNaBtzsY71Hjx72xhtv2LBhw5z7KO6MWL4xAEZ0e/vtt+2VV15xliUvvfSSE6LY995777nzsHAO4o3hMkbdsZQh3YcffujKg8B03HHHuXs+93qOZbYvri2Ex2iI/YQI07ZtW6tcubI9+OCD7vwICWPGjHHlZP9hhx3mjkdMwCKHY7CI4dyct06dOla9enV3Tsry6quv7lAHysnvABGR3wcv/yeddNL2ZxGuavy/Ro0aTlRAfDv77LNdn1JGxCTaiQ9CPMMqVark3GixCkJ04neHkEA7w7PPPuvah/JTTtzpqBP1KFWqlCsDdUB04Dfqy4GAc++99zpRg98WoghCFf1O2/Lbw80UkYX6UGfASo5yDhgwwLn/IeRQF0SX6OctffPkk0/am2++6a4j8sJVkDrxwkz7IZpwzltvvdX1N3WgDRHVEBA7d+5sZcqUcdfT008/7dqYvsLCkP3U99RTT3V9TX4IhuR34403umvO14G+oA6IvkB5sLTiWiMPFqyfOPe1117r+iz2YxzCz3/+8x9nKcjxtDFWkLQP1yAggP7000/uGuE68ELTFVdc4bbRRohmXC/33Xefa0N+P1xXHMdggvpSh9tvv92Vz7suky/tzLWLQPnPf/7TpccVkrpyH+YclB0hiuuSa+Orr75y1wBtxu/j0EMPdb9x2gWxlr8ImbQ/+7muWOfaJm/617vS/ve//3W/EV8/7s2+ftSNhXajb6gj1ykL/cr1zf9Lly7t6vPII484i00vbjFpFG6buO7Sp1y7tC/XC9cevwuEtjPPPNNdZ+RH2fi9c04+BuQEaWg76i7rtKKH3yQu7/xuDz/8cGvWrFlkjxDxKVeunFWoUGGne7NID7g38w6YbtZpvG/w3sK7M+9ljJeyg3c8PBR4FvOuetBBB1nVqlUje0Vu6MmeRHhR4kcZ/WIvhBCpDgPtgnqRxC2LgSkPcwbJiC+8APBAR5xgwMxgH2GHgfVRRx3lxJn99tvPWbRddtlldsABB2wfyGNF1b59exeHCksrLIueeuqp7XGXsHpBSGC9S5cu7jgG+ljFICYw6Oa81113nROWOC8CK+fl2FNOOcWl56WDNIlCObBaQnRCxOIcN998s11zzTXOggyoQ58+fZxQcPLJJzux58orr3Qi1xNPPOHaCXGFOiBURNcB9zMEAgb6iGWNGjXaYfB+wQUXuPbgpYo6cP7sBveUlQEn9UMI4GUslgMPPNCV/ZZbbnFutmeddZYTPKgfVkRYuiFa0VYIaB4EDvZTVoQL9lFnPkQhYpHfueee644hTpu37kIoQaTCSgDhjesCASb2eYuogyhy2223ubZBHEIUQYSifwEBhWuCAdIll1zi2g8hFIHRQ18g+GClxfVEflxrlJfrMBqu2dg6nHPOOU4wpA7e4slfw7QV5+zQoYOrV3ZwLAIWwtSRRx7prhfqfv3117u0HgRYPhp4Ky3ORVquN9qRdT4oIEJSZwQx8qFOJ5xwghtIIBzy+0GIo185F2VEROKlmt8pIiXtfdFFF7k+5y/vPIiqXDOUg/6l72kDrjEW2oIBKWVEKEPIID39wzV+4YUXOsEO0YvfGX/5/bOfde4NpI229OP/COlc69QvN7jeuHa4HlloF0DMRDhkP2XkN3HppZe6a5DfymmnnebaO/o6wzWd47gvJEJB3j+FEAULzynEdZGe8Dyij4XILxLThBBCFCuwNMGKEBEDYYSBNUII4gRf1xCKsFJh0I31IP9HYMKKa5999rEzzjjDCW0IUljvYEGDEOVFEAbOCGWnn366ExOwvkJEQwzhixxCBdtJj8jAfsrCdgb3CEyUBwEhURjwczyCEy9uWEkh4lG+1q1bO5EMkQdLOsQLBENENPYhXGFxhVDmz4kowr7YOiB6cEzsV0XqiwCJEEAbce5ogQDR6OOPP3ZWcVj3Pf/8887qBqESK7VY2I5lGfv4ostggzpgPYYIh4CF5RZtTtm9wIOlEmWlDIinCD4Ik/Q352M7wiD1QzCMdjFFVEVUol8oPwJMLBxDH9K+CBiUi/b2bnmIMIg+tDP5cH3Rt8cee6w7t4d2pNzkd95557k2ZqFfaGcPbe3rQB60i29fRCrqwLWHQIplGfsRqLg+fd/nBG3k24C+47eAZRXlSBSs0hCQaAPqQr2POeYY69ixoysPYg91QKxEcKVNKBvtQj2wBqMOiItcQ1yP9C3tjHCGGEWb0hYIvJSZdiNv2oy+pc0Q6rjGuT64PsmL/ZSF64jfMZZC1JNrhHqyTvl2FfIgT34HiPWUk/JgeUe7YMXJdcJvgj7h3kI5qGdsW1NWxLTs3J+FEEIIsXsgMU0IIUSxgoEsg23EEEQVBuaIIPHiHQGDYkQqBDU/GAdEL4QZhAwGvt5yx1vBxH6NJB0ijI/VhFDAV8vGjRu7MjDQxhIHoYg8OS94USpe2bzVDOfCagqRAispXEm9OynlRoBAsGBByEGEwS0NSx9ENAbwuJz5OlCeeHWgnShX7Jd02pIFEYAl1lIGV0UssxAPKQP5d+rUyQlc0eKRBzHx008/deIYohNiDPXH0oq6cA6svegDrJGwLsKSh/wR4WhnRBXORd/Rt9TVu9FicUTdaBsPIhVCK32SHdQBQQ/hB9EEoQcrJPJHyPGCJuvUzQuFuGMi7ni4XugHtiPCAIIMwhDXgAehijpwXvLEndbXgXXqgFUVYhP9hzUd1wHQNjmJYrQhAi8CIu327rvvulh2tHlehBzKQZ25phGD/fXKX9qSNqEO9AeCsbdEZD9puJ7Yz0IdaFfqiIsndcOii98DIjX14XxYweFqyzVCOq4Jfsu0OefEVRt3bI6jbv66LiioC6IgFmdYXXKdUi5/3dKvntx+K/76o92EEEIIsfsiMS2J8MLpXSqEECJd8DGzCgtECwbxED2YpQzx7q/e6gsY6PrjSYuYwUCawboXvxCa4rkusj1ahKIMrJMneYEvD+KALwvHsD022D7n8+VCcECce+CBB5xAQwB34kMRDwpxhPwQM8gT4QPhyS8IJ1jbIXD5dsmuDr6see0vhETO8a9//cvFj3ruueecO2KshZtvayzXEK04DxZF1A0xhTbwoiJWPeSL5Q/xsLB8Iz9EMYQk0tIv1B1BJbrO1A3hJ7qO/D9WPIyG/BB6aFPcIzkXVoyIn1wDCI2Ujb/+OmE7+L72cAyw3R8TfT15KLuvA8JMdB3oc+qA+MYxpI+XX3ZQPsQ+3C2xUsSyDvGpd+/ezp3WX8/kA/565G/0b4X/U77YOnrYR33j1Q84D/3KdoTd6DqSFqsu+p6yXnXVVS4WFUIVZSTeHAIgAhv9xzWFmzHrCHIvvPCCE92wjPTljcXXz19XsfVLFPoDsRBRlesNIRuRk+vRC6aJQJ0hp76LhvdCn0YIkVpw75Nwnr7wbI59dxMiL0hMSyLelcK/4AohRDpA0GYGv8UVRAeEJoQCLGV8WRGniHGFiEAQ+HgWVskAYQhxhoF59KAZyyYG7gy6/cyjuL4RBJ5YWgSORyhAbEAcQGRDSERs4BjipP3f//2f+4vAhUiBaJETWN9wPs6bFzgvFlOIT7Ql9YkVVYDnG2IfFl/EwiL+FrGzEI2wPIoGN0cENUQtJprAWozjEN8AcYV2of2IUffYY4+5+rIQdJ+4Xn7Cg0TAmg2BB5GF9Ag7xKejTl744C/loZ8QKf0gCYsrBCAPx9AGtKO/nhCcEGHoKw914FjqcMMNN+xUB2KG0Qa0KWDB5WfQ5PpE9MsJ2hshjfhmXCcE78c6DxGK9AhM9B318QMCyuctBIF+4LpgP78HL0Lxl/SIfdSBc3lX2Oj9/K6w5uQv8cQeeuih7XXELZjJIbCS5HdIWzOZwmuvveZETa7Z7t27u2uGctH3XC9MqIClHfHS+vbt68TW7AQn6kfZfF+RD+JbXt+1+P3xGyMWGmI2EzCQZ7S1XiJwndEutFlu0IbUzcdoE0KkFtyjuX+J9ASrcj74CZFfJKYlEV6QeUHL6wueEEIUZ5jlsDiLaQySERgQHbA2wUWSwS5WNIhWCFgM4hO1JMkrnBerF2YBxDqJATTPASxzEF98jDcEAB/AnjKzzc+C6Af6xMQiH1zovGjDgJ8ZH3nGcGxO0A4Ibrwc5nZsfkE0IW/EQqwWWfiQhKVR7DkRw1iYnRVRAXc6LywhROFCi8snwhNiJO1GHrzgIuLSj4mCMIkoQnt5N0gEMuKjIbIBwgznQ/zxs4JyTtxWia3noW+wWGLWTK4pyoHLKTOUIrx5ouuAaMT5ouvAb4dyEfwe91Zmm6StyI/g91yf2YG4RJtQRoQw2h0rO/Iify8AcQ1xLuJ/kS/9wmQC/jeLmEZduMawFKN9SM9fL7pSB64d+oGBI/kgqpEHX+6xPCR+GiIZbeKFL9Lze6POtDkDT4Qj6oyAR9/7PqT92M9f9tN29AOiZU7QF7Srrx/xzqLrlxdoMyYVoMy4FfNbIe5iXuB3TDlymh3NQzvTXhLThEhNuGdFf2gR6QXPTp6xQuQXiWlJxr9ECyFEusDAMT/3NcQfYkcxRbe3xikoGJxjvYP1zIMPPugCm2PZxICb9XjB6pMFAcux0kI8wOqG4PLM0InwQAwprG8YxCOsMAslAd5xd2PWRMQ3ZpRE5PF1QLh49tlnXYB4juUvIgdWTbmBYIO1FwP4gnBd8FaA1BfLImYJZZZL4r/FEyVw8yROFtZPBOhHGPGuhrQJIs+dd97pBDnaBqEDVzxmMUXs8kJMImAZR4w8LIZoU8qIxZsXWz3EIevWrZu7LrEmIyA/daFsHsqGFRZ5IpJxDLNLIqD48gPHYXl2xx13OMHk8ssvd5NCxNaBvmWGS8QnLLnoU6y6cnIvRLBCoGLGS/Jk4gKs7XALpty0KfnSZvwfqzXOy+yTPvYfUEbirtEmfPAjsD/5cW0hSiFOUQfcSbnGOI59LFx3DCQR8fg/gjTWiFhPUgcmLPCzgJLPI4884q5t8ue6YKbPu+++2wl+WHSxziQI5M1vhXZjnevWlzcW6sfvo2fPnq5+WPtRv9xEuHjQFljLcY0QX5EJCWItKnOCenrrR661RMjv/VMIUfTo95ve0Ld5ec8QIpZA+AJK+zsEL0+FAV9zCarLAKmg3ImE2N1BlOnTp4+bcZDBHANcrHmygwEzMYZwkcJ1rlOnTjm653z22Wf21FNPOSGCgR4Bq3d3cMNiMJ6IJQbthjUWllRYIiGkkBZrmniDX8QkLH0QXRCjCFbPsawzgOZFB0Fh0qRJzh0LCzCsuxDJEEU41sO1gTUTX5L5P6IHAgllwAoG4QE3Ns6HYIVA4MEyCRBdcNnj5YrjcGdkwO2DxiOYMJhm4I8A4a3dsAYib75wcgz7yQfLHF93hAomH/BuYpSPfBGUfP5YAfl8EF4QVGgH6op7GvXn/ORBvtF1AKyJcKfEygoxhwkPcnsGIrzRXpSBdo+F8tDe7PNWZVgJefdfnnf8pqgvbYYFE+IOUH4s7f7xj3/YPffc4wQuLKU8tAPtxbXCMxRRjX6invQRkxhQfq4LYnJ5y7vswOqJcnENcu3QbrQRIogXUDgn7UdfIBRxPqwCyRdBCCGWvqFNEEC5RrmufX+yTrlIg7jo68C9hjqQjjzJjzpgGUkdOCdWaVy/lIdy0ebkh8DF9U86D8f4a5Brh7akXIilXHteIPTlpJ+wNqOc1JN1X07KSB60DWXE6pF+49rjd01/UT7ENvZTX86FaIXQRZ9xbVJHLLM4FvhdUQeuTa4F6kebciy/AepEeq5V3FI5P/Unf9qO87Kf83CdU0by53fFdqB+pKOdyJfrgH6gfswoyvlpN/qO42gXrlXKSrv737SHNkIoZVvnzp0TFsWAPLFO5HfANU39c4J2f/31193MqFwLomjBtRfRmWuNDxcItULkxODBg93vnA9kIv1gFmveG/jAk07wgZAPULwv8KGMD1HZgXUezyk+HPIxjuci7xjRSFDOHolpSURimhAFDwMriWmFS25iGgIO7mgM6BnMMshF8EGEov0Y0COOFBYMuL0rZWHei3nZQABBEEI849wIBtFwDPsRRhAMOCZaQPGQD4N+6sHALy8uqvQBs0rSDgwY4+WfDMifxYsisc9axA1ENyypcKl78803nciRnQUSdUVwoby0S34sj8C3HWXD6ii783kRjPJzvnjH0V/cC7jGqSMCU07kVgfOGR3rLJE6UgbSUAaOJ1286yr6eskuX46jXagT5eO6ir0+2E9e/vcTey6uXdKTF/uj28SXgzzIl0FodHr2Uw/SA/cF9uf2npZo/XKC8yJS4+KJNR1CCpaECH6JQuw/8kDEw9IyNySmFS8kpom8IjEtvZGYJjFtV5GbZxLh5Y6LtqAGLkIIURRgwREr5jBIRCz54YcfnAA5YMAAJ5bg2oh4glsl7luFLaQBZeWcDPQLEwQBBAgG57EigodjsFjCugZxJrvnBWnJg7zyIqQBVj5YVzF4L8iPSZQLsYpyxjsPoh4DESyVGLRSnuyELeAZigUU7ZMfscTj247rNqfz0facj2slu+OoF/1EP+QmpEFudeCcnI92S7SOlIH6cM148SkWjkEgyC1fjuN3QV4cH+/6o1+pQ3bXMG1F/ThXbJv4ctBe7I9Nz37yZz8LebEtNxKtX07wIearr75y9yes3vgIQxnyAu94xP3D2jURKDfWkYlcO0KI4gf3Ou6FIj3h+c5zRYj8ItUnifCDxBIj3sunEEKkKgTYZ3CNgIZVFW6UuF0ilODyxNesN954wyZPnuysgrDawKqPwWphC2kiK8g+fYaYmYhQUVB4d1fEByxCi7IsQnBvwmWcCUGwSEtUEIvmmGOOcXEQESMThUkWGJALIVIPPgLhKi/SE1z2+QApRH6Rm6cQIqWQm2fRgGsXpvC0J5Ydw4cPd30BiCa4UGHlgsUH7ebjRAkhxO4O4pus04oeuXkKIXYH5OZZeEhME0KkFBLTigYCxPOwJbC9j/mEpQdEP2QR1Bg0ykJXCCGy4JnFBCqiaJGYJoTYHZCYVnhITBNCpBQS04oG2oNJBpilE/fOsWPHOlHNC2qIaMQyYpa96667zs0SGC8ekxBC7G7gRiSX96JHYpoQYndAYlrhITFNCJFSSEwrOhDO/vzzT1u0aJH99ttvbsbOIUOGuNk7/QyGBNtm5s+bbrrJzf4p1yYhhBDFAYlpQojdAYlphYfMBpIIU8EzwMT9SQgh0oUlS5Y4sQzXTcQy4qGdfPLJduGFFzrRjAf12WefbY0bN3bx04YNG2Yvv/yycw1FlBRCiN0VLHo3btwYWRNCpBLEiuUjokhP1qxZ42amFyK/SExLIgw2p06dut3tSQgh0oFZs2a5F45oENbq1Kljp556ql177bXua9YVV1xhZ511lpvVeMyYMc4KYObMme7eKIQQuxt8zeceyEcGIUTqwezlixcvjqyJdAOrrPnz50fWhMg7EtOSCF8e582bJzFNCJFW4NbpZ+6MR6lSpZyAdvXVV9tDDz3k3GOxXOMllA8MS5cu1X1RCLHbgZi2YMECfVAQIkVZtmyZrVq1KrIm0o3Vq1e7d1Qh8ovENCGEEEmDINuHHnqoPfLII/biiy+6uGm4SGgwKYQQQgghhEgXJKYJIYQoEPbcc0874ogjrHXr1prJTgghhBBCCJE2SEwTQghRIDCTMrHVWDSrshBCCCGEECJdkJiWREqXLu1ms2PgKIQQ6UL9+vVlWSaEEHmEjwgNGza0smXLRrYIIVKJGjVqWNWqVSNrIt2oXLmy1apVK7ImRN7J7Nat24OR/6cthWURgYhWvnx5q1ChgqwwhCggtmzZYlOmTLHRo0e7eFwHH3yw1a5dO7J3ZwgeO2nSJBcI/+ijj7Y2bdrkOLD5+eefbdy4cfbrr7+69SpVqtjee+9tEyZMsA8++MDNbFmmTBkrUaKEDR8+3Pr16+dmauOBzKxAX3zxhX399dcu8DTpxo8f72a1nD17thPcSTds2LAd0i1ZssSl++abb3ZIx/l8Ou4vsecj3eeff25Dhgwp0HRbt261Ro0a2fLly7enA2bzjE5Hu0Sn++uvv3Y6X27p3nzzTTfZAe3ODFrR6WLLWVTpfP9Fp/vss892SPf999/vkC4jI2OndL///rs739ChQ7f3Q1Gke//99+2nn36Km45BRHS66PqRjt8LvyeeeT4d8fFizwd169Z1v6146eiHokxH/7E9p3TkG53ut99+c+m4jny6sWPHun7w6SD2fIWZjv5jApF46Xz9cMeGnNJRf/rdp5szZ85O59uwYUOhpeM6yy4d9xfff9Hp6L+33nprh3SffvrpDuninS82HROrcL4RI0a4/fHS8fsiHeUkbz60+vtEIukSOd+AAQPsl19+iZuuWrVqO6SLrp9PR78Hg8Ht6ZhEK/Z8senmzp1bJOmYwIZ+79+/f9x2IR3vAfHScT6fjmfY5MmTrWTJknb44Ydbs2bNXJsKkR1MsMS4jvcikX5wL6B/ef9JJ6ZPn+5m1ec+eNhhh7nxUnbwrs59cdSoUda2bVs76KCD3D1WJIYs05LIHnvs4R7mDEaEEKnN5s2bbe3ate4hw0AFYYEZf1auXOleyhGY1qxZ4wZIBNhnncEB+znOp2NgyvqKFSvcfo4jX9KRnvVNmza5dIhxpAPSIQT6dAwKSMfAPzods0yRjvIVVDovAkani1dO2oV0nId0vl18Ot8uwHmj03FcbHv6doluT98PvpzR6Xz92J5dOrZHp4tul9h0vpyx6WLbk+2+ftHtGZ0uL/0Qmy62nPHSJVK/6H6ITkc/ZJcO8Tq2HxJNx/Z46XIrZ3S66HIWZLp47RKbLrv+y0+6nMrJfo6LV87s0lGO/Kbz5cxLOrYXRjqum11Nl592yU86fo+x/cB9iUEa98/odPzOc0rH+bhu+P1nl4717NJlV07fLnnt9+z6Ibv7Lum478ZLx/09Oh33/+zSRZeTdL6ctAvpeA5wH4ouZ27tKUReqFSpklWsWDGyJtINhDQ++gqRXwLBYDAU+X/awhcrIUR6wEtznz59rEePHtaxY0fr0qWL+5KSHXyd6d27t7MQuO+++6xTp045fnHhS/dTTz3lXtTvuOMOO/fccyN7iobweMA2bDTbusXCAzILv9RxT4vsjEN4HBIeNISP3xoKD+IChnFFeDwRHoiEDJ2/XLmA7bFH5OA8wngl3CxWsmRWOYQQQohUASvxXr16OYHztttus9NOOy2yRwgh0od3333Xevbs6ayUu3btah06dIjs2Rk+QLz++uvWvXt3u/76661z58627777RvZmwUcOER+ZUAkhRDFl40azX34J2bBhQfv0s6B9+23QgsHIzmzYvNlszNigff550GbMCLnj16wx+/jjoH31VciWLcv/A5H8yIf8hRBCCCGEEGJ3RWKaEEIUUxDEHngwaPfeH7Snnw3au++GLDcvlQ0bQvbRoJA99UzIhg3POn7psvD6syF7+rmgzc0KBZcvRowM2f89GbQB74ecBZwQQgghhBBC7I5ITEsixLKYMWOGYjIIIXYZLMpmzAzZvHkha3NAwJ78v0x75NEM5+oJ69aFnEi2cmWWNZqnbNmAXXpxwO6/L8M6dsjyBw2F88LKDZfRWMs21lesIKaY7STUIZjh1jllyhxbtWqtczXdFM5nS9T5hBBCxAfXGCatYfIXIUTqwUQluMGJ9ITYjExmIkR+kZiWRIjlNG3aNIlpQqQ5xB/D5fGHH+IvP/+c5V4JiGE//hj/OJbVq7NEq1heejlo344M2Z9rzH79NWTvfxi0wV9l5fv4E0H7551B+9c9QbvrX9vsnvu2WZ83gk5U27QpZGO/N/vs85BND5cxO5YuxYItaLfdsS2cR9Bu/+e2cL7bbPyEkG3ZYrZ8ecjefS9re/f/VLYXXyppP06VOZoQQiQKYtrMmTMlpgmRoiC0MGGGSE8QSufPnx9ZEyLvSExLIswaxIxETP0thEhfcJXs3z9or74Wf/n0s5AL+g9ffBm0N96IfxwLMdHi3TKwJmO7F9pY9wFA164NuYkF6tQO38QDZhMmhOzDgUH74Yeg/fWX2exZIRv3fSj8guAO3wmOQTTr/3bQvg8fV61qlgXa8BEh++SToE2axADQ7K1wHYcMDYVfJFfZTz9tcvHWJKcJIUTirF692s1uK4RIPZgh1s+iK9IPJhvTxw6xK0hME0KIPJKZaVa6jNmee8ZfyoT3eUrtEbCycY7xS2bEbTOWDh0C1qhRwM2cyd8LLwiEt2W4GTlbtghY833NGjQIWPXqWbN7zptvNnZcKPzSZ7kKXosXh2z8+JD9ODWrDC1amDVuhKu62ejvQvb1N0FnhTZ7dvgc9cxat5plbQ9aYzVramZkIYQQQgghhJCYJoQQeaRB/YCdd26GXXZp/KXDSYHtsc1OOCFgF10U/ziWhg0CTiCLpWnTgFWtkiXcVatmdsABAWvcOGArV4Zs0W8hGzIsa2ZNrMj4qIZ3+ZIl5lw0c4NYa79HvBY4/ttvs2Kz7bFHljXcokUsISsZXue89eutCtdji+3TTGKaEEIIIYQQQkhMSyKBAFYkJd1fIUT68sPkkN173zbrcmP8pWfPoAv4D8Q+69o1/nEsuGgmGmaRPL/+OmgfDAzZksVmhxwSsDPOyLBmTcP3nFDWRATx4q/Fkhm+85fIzPpbbk+zunWzrOCOOSpg7U/Isnpj///yLBk+d0ZCQp0QQoj/UaJECb0XCpGiZGZmWka8L54iLaBv6WMh8ovuDklkzz33tFatWulHKUSaU6+uORHrgvMDcZfjj89yz4SjjgrYuefEP46lXj0e5lnH5gai2/IVxGc0K1ferAYunhayBYvyFskM99AmTQK2LWi2JZzXMUcH7JSTM6x164BVrmJWq5ZZs33MNm4yGzY8ZGvXtbVBgyrbhIl5O48QQuzOIKK1bNnSypcP37CFEClHvfBLWu3atSNrIt2oWbNm+J24QWRNiLwjMS2JlC1bNjwYbS0xTYg0B0uuM8/IsEsuib+0b5+x3c3z6KMy7IIL4h/HgrCVqJhWurRZ+xMzrHYts0W/mb3RL2RffhWyvSpEDkiQatWyBL8zTgvY0qVmDz0atLvuCdrTzwVt6jSzihUD1vagDDvpxICt32D25eC69svcsrZ5s8Q0IYRIFC+mVaiQx5u0EKJYUL9+fYlpaYzENLGrSExLIohoWKfJnF+I9KZUKbMqVcyqV2cCgJ2XvfbKmhQAKlY0q1o1/nEsCGTZccnFGdbr/zLtqiszrFy5rDhsuGPefVem3XdPhnX9R4b945ZMu/eeTHuyV6ZdeUWG1akTsBu7ZKU7+6xA+L5ktvfeAXvmqUx7vEemm7wAq7l99wnYNVdnWPfHMu3a8N8rLw/YrbeE/4bzOPDALLdP8vlP90z7111l7IYbStoD92fac89k2s03ZWyvnxBCiOzhQ6s+sgqRmpQKv/DtQUBZkZbQt6VzehEXIhckpgkhRDFl//1xvwzYgW0CbnIABCxmCj2qXZZlHAsTHOBKynFtwsdhAHHoIVnrLVpkWb0h6J16SsA6dkDAy8q7XDlm8Qy47eecneGWM07PsMMPC7hZO5nlk/OfeUbAzjozYEeHz4E12+mnBeyw8DFCCCGEEEIIsbsSCAaDae+3I0sxIdKHv//+2/r06WM9evSwjh07WpcuXaxt27aRvTszffp06927t/Xr18/uu+8+69Spk1WtWjWyd2c+++wze+qpp2zDhg12xx132LnnnhvZYzZ2XMgWR2bBFFm0PzFLwBNCCCGKMx9++KH16tXLypQpY7fddpuddtppkT1CCJE+vPvuu9azZ0+rVq2ade3a1Tp06BDZszN//PGHvf7669a9e3e7/vrrrXPnzrbvvvtG9mYRSmR2s90UiWlJZNu2bW4ALldPIQqOohTTHn8iaGO/3/0eKOvDbb5HqVJuVrpYnnkyw+rX1/1OCCHiwTMLNyK5ehY9EtNEXtm4caMb0+HuKdKPzZs3WzAYTDtXT4lphYfEtCSydu1aN3A/5JBD4g46hRC7TlGKabsrEydOdAFac2o3IYQQO8IAZPz48dasWTOrVKlSZKsoKiSmibzy008/ubhaDRs2jGwR6cSCBQts/fr11rx588iW9EBiWuGhmGlJhEH+tGnTnIWaEEKkC7Nnz7Y1a9ZE1oQQQiQCA5CZM2faunXrIluEEKnEwoULbcmSJZE1kW4sXbrU5s+fH1kTIu9ITEsyW7dulXorhEgr+ECg+5oQQuQd3T+FSF1wAWQR6Yn6V+wqEtOEEEIIIYQQQgghhEgQiWlCCCGEEEIIIYQQQiSIxLQkwqQDBOjOyFCzCiHSBwJnE4BXCCFE3qhcubLun0KkKOXLl7c999wzsibSjbJly1qFChUia0LkHak+SYSbbatWrTT9uRAirWBWn7322iuyJoQQIhGYTb5ly5ZuQC6ESD3q1atntWrViqyJdKNmzZpWv379yJoQeUdiWhJB3W7RooXENCFEWtGsWbMC+3K3ceNGNxPyli1bIltyh2DemzZtsrVr19qff/5Z5DPlUXbKE28m55z2FRQE0928ebP99ddfkS1Z5WChHEyUw34P2+kHpoePXih3ooF5yZd+II0Ptp6fvo0HZWA2WcqcUyB39nFsUQd75/y+DbMrC9upD/VKRnmT1dbJhL7w1z4L9fW/A65Brk/KW9T9VZAgpu2zzz5Wrly5yBYhRCqx9957O8FFpCfVq1d3gqkQ+UVimhBCiCJj4MCB9vjjj9v3338f2ZI7DMA//fRTu+666+zMM8+0O++80w3Oi4pJkybZV199ZfPmzYts+R8TJkywL7/80k2vX1isXr3anfO+++7bLoaNGzfOxo8fb3PnzrUpU6bYkCFDtosYlLFfv3724osv7rB89NFHbtr4RJg1a5brh88//9yJOvDBBx/YE0884c6bXxBfqM+ll15qQ4cO3UEEjAVxBnEVAacoQVSk3v/3f//nBLV4UEb64OKLL3aCWqKiZXYMGDDAnY++LC5w7XAd/vrrr/bLL7/YsGHDtv9GZs+ebY888oi7LhEChRBCCCFSDYlpQgghigzisfHVNy8xSRDeRo4c6dI98MAD1qVLlyK1CEYs+uSTT5xQFcvYsWPdvvnz50e2FDw//vijEy4OOuggZxkD3333nY0ZM8Z+/vnn7eKfF3Ao48cff+yOQezwy+LFixMWpkqXLu2+4FesWHF73NBVq1bZkiVLtotr+QWhFEEGS8ScRCfEv2eeecaJhUUJAuAff/zhluxEXupBfagXx++qdVay2jqZUB5Eb665n376yQYPHrz9N0IcsYYNG1qvXr2cACqEEEIIkWpITBNCCFFk4Bp/1FFHWd26dbcLDFiqbNiwwYk5iFBs82Dpg1UL1jy1a9e25s2bu0G5F40QJlauXGkLFixwljHerczj3eH4S75YVCFE8H/yZjvpEQDY7tOzH+uy3377bSeBBEsk0sSzsGHfihUrdtjH+pw5c5y1Dv+PFYgQVsgPoWXRokU7CVrZ1YFyIUzMnDnTCRlHH3309nbhONqMOmLBxfEeyliyZEk75JBD7Iorrti+dOzY0U2qA5yL/kAU+f3333dyJ+Q4jselzQdbp+0oU3T9+D/9gqiC2BTP0oxt7KN9aAfaI9pFMB6Uj74hDeX0ferPzV/qz3VB+XPKKxramT6gvyhTPNGLvMibfvB1ot6x1wnXNCIl1xFtTpk4Njshjf3Uwfc35Yj9PXjitTUWfbQz5+S6iD4PZSHPeG6h1IX9Pi/ScQ1ybtqXvKLbL7qcpKMfKCvH0X9sY6E8HANVqlSxNm3auDZjoSxCCCGEEKlEZrdu3R6M/D9t8YOJgsYPAIiNUVjnFGJ3g8EfliejR4+2Jk2a2MEHH+xElexYtmyZs8SZOnWqExcYwBHfMDsQUXA9YmB6xBFHOLFnd4f7GpZfCC7JZtq0aW6ATkw2rJtee+01J3ZgRcVCXyAOYblWo0YNZ5H22WefOXGDgTn3XcQbAgQvX77cuRl+8803NnHiRPvhhx/ccVwfZcqUcRZTXDfDhw93otDXX3/tjuOezXm4RijPiBEjnLvct99+6yytEO/YxsLxiAWIeLQJ9/pRo0Y5AYdri8kaoiENwhbXKWXEAgzXN87F4oWExo0bu+MRIKgDVjz+uqVMWPIQxJxzcj7qQLl8HdjHMQgnWJoxu/SFF1643UoMF0nKShsifNCnZ599tttPGRHZuN5POukkZ2HGUq1aNde2nJ8yc9z06dNdW9F+WBV6SzR+Z7QXvy3Sca1wHNsJwI7gicA1YMAAVxZ+wyyUl3L7CS44nnPRBuyfMWOGE2G++OILVzbaPd51SF9zDL9fxEKuIZZGjRq5dSz1uG78dYH1HuXkuqKt4kE7UhYs9ugHrgnyR/j11xNtST+99dZbNnnyZJcvbYv1JNc0ZSZ/BLQ333zT5cUx3vWR+nXu3Hl7ftFwLbz66qsuLdct7YkVJL8HfivRQbEpK9c/bY3FJm2B9SFl8vVFJCM2DOUhD+rG9eTvnwhktH/v3r1dfyCQ8vviGn333Xdd2UlHOyCOcQzt58tJe3ONcJwX0Ti+devWTpCjvvQfvxHKwDauY+rO9c+1lI7w++eaze46E4UH1zK/Ffrj8MMPd/FAhcgJnlvcB7nnivSDZzjvCDmNC1IR3tV4h+YZfdhhh7nxUnZQf94VeLds27at82rwH1JF7sgyLYkwIOKFO9Ev3kIIkQowAGHAXBAgmCAcIaog6Lz99tvWv39/N/jnnoqQgoD2zjvvOIETAc2LaAzWeQnAagbrGIQlxCoENERXBrHEZBs0aJCzBAKED+KD4XqJAObdQxEBODd/vZUX/0cAQXTAKofzYNnUt29fJ6pQhkShPIhwzz77rMsLIQFxixc5rNM8iAuIPggP1IlyI6RQZspFOsQR1jmOOvo6AJZI9BWDxOjBOzNNI2ogpmA9xstV9EcfzuOFZL9gQUa5OS/nob05F/2E+x79gvgC7P/www+d8BavXUhDeX2ZqRtpEblwz+Q81I2XOY5BrGOdY4gtRj/nBOckD/5yLtqV64fnMeIO1wDPZ46hffx1kVNMOPZxfvKkrRCruA4ZjJM/0E+Un3PQ3pwTscnHyKMOtC0iItc51zP5cY3y8poTpOO38MYbb7jfA9c9ghjnov9pE289Fg3XLtcY5/Lr9AvXPOIdUAb6kLx8XWg3rjV+Q75f+V3SH/wWaDvgOiEtwh7tS3rK+Wb4t8LvmTZAGEQkbdeunRMfue4OPfRQq1OnjssDGJwiMpOGaywdof9pc3//EUKkFtzLeVcQ6Qkfv3heCpFfJKYlEV50ffwTIYRIF3iZZIBcWHCuSy65xAUov//+++3YY491wgdizqmnnmonnHCCc0k8//zz7fbbb3cWVdx/ER2wNvrHP/5h3bt3t7vuusv2339/e+6557YLOICQwKCegO2PPvqoHXfccc7KBrGAL3I9evSwf//733b55Zc7CykEpE6dOrmJEm644QZ3j0dIQnxIFM6JmIYoQt1uu+02VzeWc845xw26fR0oC5Mr3Hvvvda1a1c766yztlsoeUGD/LAoItA9daCNSEc9KVe0aAHnnXeeOw/iBe6Y119//Q6WUAhH1AkLK78gaNHmtMmNN95od999t1177bV2xx13OEszxBREodzwwtnTTz/tLKduvfVWu+eee9zfAw44wJ0L4Yd+R/DBUol6P/bYY64NouOwZQeiDeU88MAD7corr7Ru3bq5NixVqpQT+egz6sx1wT4sxt577z1X/uye2bQpZaS+5IUFGe6JWD7SzvQB4ix9St5cr1wjlMG7ulJ32vall16yE0880dWH64trN9Ev4QgxXIsPPfSQPfjgg67/EI4Rtfz1EA1WilxjTEBBv9188812yimnuPZFGAbaHcs2xDLagOsPUYxJI/gyjfiFgEgfI3Ay0QfnZpKJW265xYl6CKHRIiflpO2pH78XyslvkWuO3yvXDtabHtqoadOmbiCTm1iaqtCu1C8v9wohRPGB+zeWtiI94UMOgpoQ+UVimhBCiGIF4haDeVxxmLacATeDUSy4sLKJhW0+nhSDdlzJAHe3M844w1lr4YKGWAUNGjRwcdpw74yGdIgMDPI5NwN//mLFRRkQdBCscEmLFrY8DJyzA6sl0iKgINBhEeTjoSHWIehQRtzisOhhOxY7WMJhpo8oEy1qUgfclmPrwH7KFbvdu5lxLv6yHg0CFuIK9fQL5eVYFsQwBBwss7DMw7qL8idiUUS7cyxuB/QrFl7UjTw5L3XFwov+o76cG0EHEIYuuuiifLsAYlFAnljjcW0AeSJOMUCiXNkJHVwHlAmXSawWsUCjn7ieEH+oO3nTpqeddppLgwCFCOfdxxAjyYO+69Chw3bXTMrDcYmACFe/fn1XHsRirAy5trmG/DUdDWXA6gsLOcqMWInbKWIZH/yA/keAZBsWclwz9AdC4THHHOPKiWDG8bQT56fPWPi9cU1wDfhBCOeknLjVeiGR3wv/5y9txDn56+H/uApzHoRJIYQQQohUQmKaEEKIYgVCkBd7/CDcW27FE6wQmryrJEKJj23CQB5LIgb6CB9+wM5+hKJY2I64A6QhPZZN/PUiANsREhCAfFnYx/Z4Fk5s4zhENGJFYaFEWbHwQVzBsg7RA4ECYYK6YD3ErJQ9e/Z0C+IVAooXKYByxqsD5QDyyQuIJ+3bt3cWVn4hXiDnef/9951VGoISYh1tjMBHGyQignAcQg1lwxrsqaee2l43BDovfmKdhvBCW/m60rYISL798wp50geU11uCkRciLX8RcrIT055//nln3YWYRj25LsmD4+kv2oK6sc1fN4Dw58+FSMU5WGfx9eD4RAVCBKfovuf/9D3XUbxrjrZmhlssFhEwaXfKznUbbQHmxTzcXxEIsUBDyMWyjrIhtLEgOL744ovb+4wFQRTLyOjfI7+16HLmBmkpP33ur1shhBBCiFRBYpoQQohiBQPrvAyuGYwTLJU0DP69tQ4CCIIDg/ZoQSK7/LPbFr093jEEmkeo8IKeB6skXN8QUBAaEFOOP/545y735ptvOjdUxI3//ve/rqwIPNQFt84HHnjAuSSy/Oc//3HCDtZ0CFkQWy4PZUEApB3yAuelfRAU/UKdECFxZaT9Hn74Yee+d8EFFzjrMY6JFlOyg3ypP8fiBoi7oq8bbqq4BRLPDWsrjkGk8n2IaIU4FE80isW3R3SZKDftTzt7qz7ywnWHv4hG0UKYh/3ERkNYQlCj3Lg6Ev/LC2IIdLQ1/ezzBiy2vECHEIzwRX24FqgPsJ/jEgHLsGjRkv8jEnLN+7J4OA+um4iUuKiyXHbZZe7a8X3gQUBFyCQNcdIQ03AFps24HhDgWLCCRPz1fcby5JNPOsEVizVPvOsxJ2h/6oaAlxcRTgghhBCiOCAxLYkwsMDFIfblVgghUhlc8xAOiivcc4kRxsAelzUfvJ64Vlh54ZaJFQ3CR0HAfR9BhqD9uGpybizDmN0SFz/KhnCBMIXwQjkRaXAfRUggDeIFZcR6jdhqCBzMvsQ6+ZMn58jt+cJ5EO3IIxkgeCBEcX5mAkXwQjTJS9B4no2IUFi6MZkFwgliHHVj1lCgzNSfaw0rKfqRcyIKEvMsEXGQPLyVImmB8tLe5MnEDT5PZqdEjKJvSBcLohfHISiSB8fSJwhs/AVEJ8rLscycSd60F6IUbqtA3akj9SfGmLc+JN4Zwf4TgeO4jryFH5MJ0PYE9I+9pikDx7EfEY82RRDjt0DbR4PQ512ZiZWGSydiGscD6YmNh0CLhRv/xz2VfmMfbUP98guiIDPScn1zjnSE3wpiZLxrTAhR/OG5x4cIkZ7wDsYzXoj8IjEtiTDY5Ou6xDQhRDqB9QqD57zCoJ4BOmIR/y8oEKKw2CKoO+5nr7/+uptcoHfv3k4EuPrqq53IVFD35v32288JGwgYnBc3OKx3iFXFSzjWaDwfEFhwcWTBbW7AgAFOqPKiCMdcfPHFTqxhdsRevXptd/fE1dPPzpgTiFS8HCIoRlsz5RfKhICCsERZXnjhBXv55ZedZVWi7clxvKwyeQOi0CuvvLK9HZiUgJk1EaEQHHB95VqhD7F+4ljqnYjbKuVE4EJAxdqNPBC6CL6PqEF/0D/MqMrslKeffroTLBGFYkHcwbWWduR46k28OPrJW2Dxf2Ls0f/0F/WhzIhd/nonb649LNuY4IF+5xjEt2iXy5wgD2bPZCINykI+TLrB7zLWogthjMEfQi0utaThnMRMi2f9RdkR3BAgERZZ9wIdxzN5AOdillksJDk/bYi7Mnnm1Z3Yg+iHNR8THCAsp+tglWuFSTe8RakQIrXggwn3SJGe8G7CBw8h8ktmt27dHoz8P23xL74FDQMGXsAL63xC7I4QgwirGKw1GAgz2MvpRQdLDtzUiAtEwHYsMXKyEsBiBAsjBuEMIrGm2d3BUoVBeiLQPwzMsTih3XGXo70ROeLlQTwp8kcYIDYW/cXgmpcb736HNRfiDbN4MijFXQ6Rh/7H4sfDSy9CFNY/CHj0IbN54uaGwITohmsd92n6FbdKj48BhSDDsUBdOBfXgf9yiUBFeTgvg2QscygT9QMsoKgzC9ZMzGiIix3H4dKGZRN15P/kjfiFqONn3/Ruc9QB6zLaEpGOcyCQ0FaIS7gn0mbRdQDammD3WCEh9CBS5PZMoiwcR929pZgHQYV+oM64DyKqIXwRvJ72pn1Jg3jEMXxQYjt97dsaSybai6D8HEPfYClFm9MGtNPhhx/unqEIQeTFMbQB50KMpAxMTEE7ZSfi0Tb0MW1PGwP3ByyfaAN/XXBO6nrppZe6csUT0xCU6DPamphhCF+sE2SfNidf2oz6sdDmHEedaQPy5Rrz9xvK4OtEn1JP+odrnlh1tHNsP/HbwIKOtgbqRXloA0RXXy/gvFwTnJNriDLRX/Qtvwn6hDKTFvHWQ534rXLfw72YazW6HIjo1Jf8EYPJj7ZFDMPikz6lj+hLZlPl3P53mxNcB5wXwY/4bli9JXqPSTX47ca7xkThw32RezDXGvccP1GIENnB/Yz7pEhPeNbnNCZIVfiQPGbMGPeuzLsj78vZwfsN3gBY1TP5E89y3stEYgSCwWDuAU9SnNwGEkKI1AFrhj59+jjLE4QKBmJ+5r948EDBQqlfv34u9lGnTp1yfEh89tlnzsKEwd4dd9xh5557bmSPyA6sU+gXBvqIBQiXuDgyAEewQARDNCgsKAsCAgMmRIXCAoEBAQ5hgRdwBtGxAgFthZiCYIT4k91Am3wQrqgHIgnHJgqzPHIdI7Zce+21SXkGUl5EKMREhKBErdLiQV4IRbQF/RP7Ist26k4/IlIm60WXtuSlkfZO1NKS+wD1Bu4biHWxeNdKrn3KS1/Fax8vOvkPb94CLDsQ6IjTds0117hZabmmaBuuh0QGd7Qh9fXXWex1gEBNebB6ZBIMLM8QiONBHWkLxDT6g/ziWbolCsIjcdpwveVezjUlREGDyzgWv/yWbrvttu2z8AohRDrBhzi8Gnj37tq1q7P6zw7eXbDkx6OCWKidO3d2H0Gj4R1AxEdunkIIIfIFll8MsLFUwVKQQQoPYgLMT5w40a666ir3AC9MIQ34EuethgoTxAoEBqx/sG6LZ2mDGIOlD5ZLCC/ZWayQljqQV16ENMAy6uSTT3YvSMl6AUL4QUzCem9XhDQgL9oAa794QhlthNhF3ZP5xRgBijrkxWWZQTdlZYknpAH9Tt5YUyJ0Zdc+bKfO/B5yE9KAfLk+OC9/SYfolKiVBNc//cXfeIIqHxoQ0rD0xaU1Jytc0tMXXLdcl7sipAFCHguz2XqrTiGEEEKIVEJimhBCiDyDhRKxoYj/RDyobt26ubhKWK4gWBBXCYu0/MRaE7sG4hsuTFhWZicAieIPghtWt7jRJiK+5RV+r7gl40Z73XXXxRXcCgpcTm655Rb39Tue6CyEEEIIUdzRW3YS4SvrzJkznSuHEEKkC8RTwmUMVzYCsmMOjnvtgw8+aJ9//rkbkBMDC7dOXAvvueceF+cpO4sYUbDQ5ggUybTqEoUPFlt33323i2OGxVuyIZbgv//9bzdxB1aAhQlWelj9YXGXzvcILEO5ZyY62YQQonhB7FKsvEV6gmcFIRWEyC+KmZZEiD3C1Pdnn332LrtACCHio5hphc8nn3zi2oyA4cRCY0bGxYsXu7hexHDiAwJ/udciABCUHjdHCWlCiN0dJhBBFMX9WhQtipkm8gpB3LlemExGpB/E+CWGKx+t0gnFTCs8JKYlESwzmOKfYMGa+UWIgkFiWuFDXCXcsgicz2w/uHfOmTPHWaohogH3WR8TillT+SsxTQixO8MAhFnS7rrrLjd7qyhaJKaJvDJ48GAXh9XPqizSC2bvJzzJqaeeGtmSHkhMKzwkpiURiWlCFDwS0wofxLQjjzzS6tWr58zhx48fb5MmTXL3PEQ1rHKxUkNMa9iwoZvB86yzznKByrMLxi6EEOkOHxsYpLRv397q168f2SqKColpIq9ITEtvJKZJTNtVFDNNCCFEQuC+joXaJZdcYv/5z3+cOHnOOefYoYce6kQ0At8vWLDAiZdffvmli0XBjJ9CCCGEEEIIkU5ITEsiWMClezBdIcTuB9Zlsfc1Aty3bNnSTTaApeAjjzzivnzxFYzJCh5++GEbMmSIcw31rqBCCLG7Ee/+KYRIDZgRW7Nipy/qX7Gr6OpJIsyc1qpVK7k1CSHSCsy999prr8jazuAygwsEghpuNI8//riLD/TSSy85t1ks1IQQYncDEY2PDuXLl49sEUKkErhn16pVK7Im0o0aNWpYgwYNImtC5B2JaUkEn3pma5KYJoRIJ5o3b24VK1aMrO0MA0Ys1XDzrFOnjh1//PHODZTYNExEQDwGYt0JIcTuhBfTKlSoENkihEgliBVbu3btyJpINxBKCVMiRH6RmJZEENEYTMqcXwiRTvChABf2ROA+iBVb06ZN3cQQBx10kO29994u3poQQuxucP/UR1YhUhMmlCtVqlRkTaQbvJtq0kCxK2g2TyFESlFYs3nimsislMcdd1xkjxBCCCFSleHDh9vbb7/tYntqNk8hRLqi2TwLD4lpQoiUorDEtKlTpzr3HEz8hRBCCJHaLFy40GbOnOniG0tME0KkKxLTCg+JaUlk27ZttnHjRjcRgQQ8IQqGghbTRowYYa+88oqNGjUqskVs2bLFuSlpxiMhhMgb3D8103vx4qijjnIDxmOPPTayRYj4bNq0yf12FaoiPdm8ebObcT7dXD0lphUeEtOSyNq1a23GjBl28MEHJxxfSAiRNwpaTFu1apX98MMPNnfu3MgWsWDBAqtSpYqLCSmEECIxGIDMnz/fzRjHh1ZRPGjcuLG1adPGPdeEyImff/7ZCWma8TE9wVp1/fr1O4lHqY7EtMJDYloS4WL85JNP7Morr1SwSiEKiIIW0/hCtXXrVmdpKrIgxsxhhx1mjRo1imwRQgiRGzxP3nrrLRd7s27dupGtoqjB0pqP3rK2FrkxZMgQJ4QfccQRkS0inRg/frz7iM54Ip2QmFZ4SExLIkuWLLGBAwfaNddco5lBhCggClpMEzvTt29fO/LII61JkyaRLUIIIXIDMY1BSvv27a1+/fqRrUKIVGHw4MFuRt527dpFtoh0Yty4cbZy5Uo79dRTI1vSA4lphYc+yQghhBBCCCGEEEIIkSAS04QQQgghhBBCCCGESBCJaUmE+AsEM1UMBiFEOrHXXntpJishhMgHlSpVspIlS0bWhBCpBBMvafKQ9KVMmTJWvnz5yJoQeUeqTxLBp75Vq1YusKkQQqQLxE6oWLFiZE0IIUQiELO3RYsWGqwJkaLUq1fPateuHVkT6UbNmjU1U6vYJTK7dev2YOT/aUthTUDAl8fq1avLMk2IAmTLli02ZcoUGz16tAuIf/DBB+f4orNs2TKbNGmS/fjjj3bIIYdY69at3ZdGZuvcuHGjW7hHIIJv3rzZNmzY4M7hf8ebNm1y02YTSJpjCiMdkywQ7LO4pKtQoYLbX9zLmVM6YJvS5S0d1zCz2yrdzunYxzZI5XRcG2xXuuSl41jAY4EPEWzPS7r8ni/V03H9sg2Ubsd0HMfzT+nylo5rkW35TYehhBfDC+N8xSUdx+wO6fiLdRoU9Pl412BbYaSbNWuWjR071l2/zMaf0wRif/31l02ePNlGjRrlJnQ76KCDNFFbHpCYJoRIKRAE8iOmcfyECRPcQ6lhw4buQfPwww+72W64RxxwwAH29ttv2x133OGmQsc1h1l5n332WTdDL1Nn55Tu9ttvt6FDh1rlypWtVKlSO6WbOXOmPfLIIy4dLzek69+/v0s3bNgwdz6f7uqrr7bVq1fHTdemTZu46Z555hl3vj///NN9ZSOdL2d26XDdzC5dr169dkh32223uXTULzYd5ZwxY8ZO6d566y13vuHDh2ebjtlWo9MdeOCBbubVeOlol+h0Dz30kD355JPuxYLzxabjA4dvzzVr1uyQ7qmnntpeztzSNWrUKG66N99807XLiBEjnIs/A2dfzkTSffvtt+582aV78MEHXTpfv0TSTZs2zZ3v6aefduloz9h0bCcdM9uSrnHjxjZ16tQc01E/trOf861du9adL6d0I0eOLJB0tAvlp/60C7PNRqejnX391q1b59IhppOOfvXne+ONN7an48WR33N+01FO0vFSmlM6ZtXKLh39QLrwe5lLR/1Ix+zFnI8XXeqXU7rnnnsu23QQLx3lzC0d1yH9gEBC/bgHR6ejH3y7xKbj9+7Pxwu7T8fvjPugbxfu0f4FPpF0lJN03333XY7paJfnn38+x3TcR0hH/RJNx4CF81177bUuHc+jH374wZWTdLTL/vvv79LdeuutLh0zq/GBJZF0zK7G+caMGePOl4x0iBHUj3TU74UXXnD1i5eOQVpsOp6lpHvxxRd3SEf9GLjFS0c5J06cuFO61157zaVjNr3odMwkl106Pob585GO9vTprrvuuu3tQroHHnjApeP5gddIIul4R+B8L730kjtfvHS8Q0Sna9q0abbp/vGPf+yQjuuMdNQvt3Tff/+9axefjln2otNRv5dfftnVb7/99tshHefjXSk23fjx4106Zjj36Xw/+HQM2KlfftL58zGgpz1zSse+6HQ33HDD9n6PTdeyZcvt9aPuGC7EpqOclOXf//63S8d7EVahnC86HSJEdun++9//uvMlOx3vN8w8T7uQjmuC+vl0zZs3d/W75ZZbdkp34403unTNmjXbIR31I50/H9c87ZlTuldeeSXbdAgx1M+n8+Wkfq+++mrcdJSTY/35yIN03AsSTXfTTTdtLyf3Hp+O9+999tnHpaNduPfkJR3/Jx33uvymq1Gjxg7pfP1Id//99+eYjmuEdDfffPMO6TgfdaJdKAP/55jodLy3kxfpOIZnR2w6fz6eVdQvNh2/D94HJaYVPIHwQzbt5zrlxVMIkR7w8srgpEePHtaxY0f3gsLNPzsQJXixYsB25ZVXugEhD3ZeOJYsWeIeQLVq1XLL0qVL3TZebljnIcT64sWL3UMO0S6v6TAhZ1tBpaNMxPMgDdsKKh3H8RAv6HQcxzTdyUjH10aOKah0/pj8puMljG25pSMN24prOtqOF87c0nEc6xzHy15RpOMv2wo6HeVjW0GlIw3bfBvklo7j+Ftc03Ec9dqVdPwO2cbv2R9TEOm4H7Fe0Ol8GxRUOo7j90sb8HsuqHQcx30lGel4DnNMQadjIMq2gkpHGrbxPsO2gkpHmXgOF3Q6juO9YlfS8eGTY3JKx3G8J+1KOkRLthV0Ojwg2FZQ6SgTIgpp2FZQ6TgOYbag03Ecos6upEN4Zlt+0yEqckxBpeMjHdsSTUcatuUnHR9B+SjHsXwk6dChQ2RUtDPcWxBzu3fv7sRwPmgQ3iUaPh6J+EhME0KkFDyk8yOmYX103333OauMovjiEgxa+CUzZIsWhcIPv0D4QRWwjCzPsgKF5194/GPTpgXDL58Ba9QoYHgsRJelefNA+D4ZSRBF+L3LpkwJZxDe17RJwCpViuwQQgghhBBCFDveffddZ6kmMa3gKYSh3O4Dij9KNSb1QggRzZYtZtOmh+z1N0L20aCgbdsW2VHAcDtauTJkb/QNWb/+QVv0G7HPssrSJ5ey/P23hdMF7bXXt9mChXqQCiFEXsFaAMsxIUTqQcgNwiGI9IQQEoRjESK/SExLIljMEM+FOAxCCBENH3W2bCY2QdbiYbtfEL6wBtu6NWs9dn80sdv5y3jt7/VZeXhNn7/hdwX7ZmjIhg4L2fLlWcdSlnXhciCYRev//B+xjTJsCOdHusFfb7NlyyInEkIIkRB8zScOJW46QojUY8GCBc5QQqQnWGXNmzcvsiZE3pGYlkT48jh37lyJaUKkGIhLiEqITnyAjLf4nzVCFeOieMew4FIZjxIlzJo0CdgZpwfs+OMynIsnec6fH7Lp00P2088h+zm8TJgYtB8mh2zpsvC5tvBV1OznOeF94QURzglh4e2kmzEjFH4RyCo7eYwfH7QxY4I2cVI4v59CtmJF1vGxUJbG4bKcGSlLZmbW9j//DJ8rXAbOP21ayBb/Hk7s0vNPnIyEEEJkC2IaAzViagkhUg9iwK1cuTKyJtINrNIQ1ITILxLThBC7PQhkCFHDhgVtyJD4C0IZwtTChSEbNSr+MSwzZ4biuk1u2hSykaNCds99QXvy6W3O8mvdupA99EjQzr1gm3XuvM263r7NrrgqaBdctM369QuGH/AhG/Ft0G6/Y5vddPM2+z5cRsqAldi/uwXtsiu3Wf+3g05Uu+iSbXZdl6DdcmswnMc2u+HGbfb++0FXt1hcWUaG7F9RZcEi7auvgvbPu7bZJZdlpX/mufA+fRsQQgghhBBCiB2QmCaE2O3B4uu554P2WI+gPfJY/IVg/QhOo0aF7Ime8Y9h+fiTUFwBKyc2bQrfjDPN9msZsHPPzpoM4MOBQcPyvHWrgB10YMBWrjIbMiRLqPt2ZMiWLAlZyxZmB+xvVrOm2XXXBuzF5zLs9Vcy7aLzA04gGzk6aGPHRvlw5sC8eSH74quQ/fKL2SEHB+zKyzOs1B6BuJZtQgghhBBCCLE7IzFNCLHbU6GC2cMPZdrLL2Xaq6/EXxo3zpp98+STA/b0U/GPYbm6U8BKlYpknCCZ4Xz3bx2wm2/KsIsvzrA99jAnniGy1a0bsH32CTghD/dLvIVGjw7Z8hVmLVtkWOvWGU58wyX0/Q+C9nLvoI0ZGzLiqeKZwIQDiYB1GxZve+9tdvxxATv77IBddun/XECFEEIIIYQQQmQhMS2JlC5d2ho2bBgefGr0KUQqgWiFxdkXX4Ts00/jL6v/zHLz/PVXs2++iX8My5Qp8d08c6JkSbMqVQLWoEHAatUMWEYgMglB0Jww1zC8vUVzAqVa+BxBmz4zZJUrmTVuzHEhGzU6ZEOHh2z+fLPatcPHNww4gZDYauv/jpwkF7DO4/g99wyEy2JWvXrA9t47y0rOjH/cf4QQQiRIIHwDrV+/vpUtWzayRQiRSlSvXt0qV64cWRPpRqVKlaxGjRqRNSHyjsS0JMLLUuvWrSWmCZFiYPX1x9KQc+VcuDAYd9m8KcvCa+26kAvMH+8YFqzB8uoaiYvnDreNiG7lswmPxezIIwLOKu3dAcRSy3L/bNok4GK5MVkA7pmlS5sd3DYQfvkL5xm+u1MO6pYIuIqWKWO2fDkTIWTliYso6QOBDElpQgiRRxDTWrZsaeXLl49sEUKkEvXq1bPafKUUaUnN8MtvgwYNImtC5B2JaUmkVKlStvfee4cHsWpWIVIJRKiTT86wC84P2MUXZcRdsBzDSqv5vgE766zsjzv00EDSXSOrVQs48Yzx2LTpWQIZcdR4/u9RyqxiRbOSJczWbzD7ZS4zgYactV1e2Ddcr32aBWzDRnMTJTB5wYgRWXHiwjVnVBg5UgghRKIwEMdzQQiRelSpUsX22muvyJpINyqGX6CrVq0aWRMi70j1EULs9hCj7LBDA3biiRl20knxF96l0JPq1w/YMcfEP4Zlv/3ii2kZGVnuky1bBKxJ4yxhjuPq1Qs4gQ7LMChRIkuw4zhcNYHy4XJ5wvEBN0nBwQeF94fPU7lywOrUDtjRR2VYq1bEVQvY6NFm5fYMuBhsTZoErFr1gJUuY9aiecD23Sdg5ctllYV3B87RuFFWWWqH8+nYIWBHHRmwbUGzX34Nb6uTNSkCx5FOCCGEEEIIIUR4bBgMBvPokJR6YGYvhEgP/v77b+vTp4/16NHDOnbsaF26dLG2bdtG9u7M9OnTrXfv3tavXz+77777rFOnTmn3FQp3TuKdrVgRCtct4GKw5fe2h0Ubs5FiYLvnnpGNQgghhBBCiGLPu+++az179rRq1apZ165drUOHDpE9O/PHH3/Y66+/bt27d7frr7/eOnfubPvuu29kbxYhTe2fLbJME0KIFAfhDAGtRo1dE9IAK7hy5YgBGdkghBBCCCGEEGIHZJmWRNavX28LFiywZs2aaRICIQqIZFqmDR0WspdeTjBCv7DLL8uwM8+Qpa8QQiQCX/N//vlnq1OnjpXjK4UQIqX4/fffrUSJEprxMU1ZtmyZbdq0yerWrRvZkh7IMq3wkJiWRFasWGHDhg2zs846y/bAvEMIkXSSKab9Oi9kEybqAZEbY74bY02aNrH2J9ZwcdeEEELkDgOQQYMG2WGHHWa1atWKbBVCpApjxoyxMmXKWJs2bSJbRDoxdepUW7NmjR111FGRLemBxLTCQ2JaElmyZIkNHDjQrrnmGs3cJEQBoZhphU/fvn3tyCOPtCZNmkS2CCGEyI3wO7YbpLRv397q168f2SqESBUGDx5se+65p7Vr1y6yRaQT48aNs5UrV9qpp54a2ZIeSEwrPBQzTQghhBBCCCGEEEKIBJGYJoQQQgghhBBCCCFEgkhMSzJMPFBYbqVCCFEYZGRk6L4mhBD5QPdPIVIX/X7TG/qWPhYiv+jqSSL41Ldq1UozeQoh0gpiJ1SsWDGyJoQQIhEYqLVs2dLKly8f2SKESCXq1atntWvXjqyJdKNmzZrWoEGDyJoQeUdiWhJBTGvdurXENCFEWtG8eXPba6+9ImtCCCESQWKaEKmNxLT0RmKa2FUkpiURRDRemGQOLIRIJ8qVK2clSpSIrAkhhEgU3T+FSF3KlCljpUqViqyJdIO+pY+FyC8S04QQQhQZ06ZNs2HDhtnChQsjW3Jn27ZtNnPmTHv//ffddN6ffvqpBYPByN7C57fffrPZs2fbqlWrIlv+x6JFi9y+1atXR7YUPOvXr3fn/PLLL7dPZ75gwQLXxkwBv3jxYpszZ47bDmxnnX2FzdKlS13/0Z+bN29223788UcbPnx4jtcE1wBpX3rpJfd3V/o/kfMVBbTH9OnTbdmyZbZixQqbN2+eLVmyxO37+++/7bPPPrOff/7ZNmzY4LYJIYQQQojCQ2KaEEKIImPWrFk2evRoJ0glCmLQ4MGDbdCgQTZp0iQnKHjRqCiYOHGiff755/brr79GtvyP77//3okeiFmFBQLeN998Y2PHjt3eLvx/3LhxTjSbPHmyff3119v3jR8/3oYMGWK//PKLWy9M6Pc333zTfvjhB9u4caPbhrD23XffuX7ODsQ00j700EP2+++/u/X8Qtt8/PHHRVL/nPjrr79s4MCBrj0o28iRI534DLQV1xZCJGKiEEIIIYQoXCSmJRG+jGMRUJSDOiGESDZYvuyKWJETxCPZb7/9rFq1au7euXXrVncvZUEw4Nxs81COCRMmOGuiJk2a2D333GPXXHPN9liV5LFlyxaXbtOmTTvdj8mXPPhLvggWHM///XbWsfzhr0/PfvKkTLF5zpgxw0aNGuVEnViwLEIE8RZFgMURzwoW/h+bH3Bu9nM+yhRNdnUgH9ZpGwSy448/fnvYgalTp7oF6yus1hCQfL6UkXVEOJ+HP4evM/+PhnWWeGX36dnHX/qB9ozXdhz7559/uvP4ffXr13dxpqpUqeLWPeTlrwnqy4LFVnQ/xeLLyUI5aFOOj4b81q1bt90yzkPZ2Of7KRrfPvyNxZ/Pl4ljfD7kGV1W/h/d3tTPtzfHYzE3d+5cJ8YiOHqLQmK0nnzyyfbFF184oS22TqL4QN/Tn0KI1IPnRuz9X6QPPDvpYyHyi8S0JMJggcGKXpqEEOkE1mMIHgUBkxu0a9fO6tSp4wQFRCfOhcvhTz/95IQhtiE4AO6SiAesMylCtJjB/xEgEB6w4OE47svRx6xdu9aWL1/uzoHlEyISf//44w93TvInPYIdfxE2eNmiDIhOWAkhXmUn3uQEaXhpmz9/vrNmY/Hn8HAM62zHggyhjjJFizNr1qyJWwde+LFSot1oh8MPPzzPMTwpH21BO9EetCNl4HzRzzbEJ7Zxnmh8H5KevHB9RbxD3OM6ouy5PSNbtGhhRx55pLsmPORLfWn/KVOmuPr6ayIncJGk/agLFoxYMiIo5iY+0ZbUg2c6IhZ9hiji+4BrACGPdoiGcvpzcg7KSLm5jjk31nTk469J2iL6mqd+LLRfTpQuXdr1L+npH1mnFU+4XrhvxF4nQojUgOcFzxuRnvC+w/NdiPwiMS2JMGhj4JHbQEEIIVIJxBBEkIKAuGePPfaYE4QQE6699lp74IEH7KqrrrJbb73V/vGPf9gVV1xhH330kRMg3n33XeeS9+2331qfPn3svvvucy6K7MNqp2vXrnbllVfanXfeaddff71dfPHFTmzwXx5Jf8stt9htt91mZ599tnXv3t3l9fDDD9vtt9/u9nHubt26Ocuud955x3r27Gn//Oc/XXluuOEGly/3ey+sJALHIr6Qx+WXX+7q3KNHD1fep556KnJUltsj56IO999/v91111127rnn2ogRI5wIA9SBdomuA9ZvCDIIVrQj1n4lS5Z0x+cFBv6dO3e2Rx991C666CL717/+5Sz/aJehQ4dGjjLnmnvHHXc491YP4hFWVOeff77rE1wUb775Zrf06tXL5XvBBRe4sub0JXjAgAGubXBL9SBq0fYslIl269u373ZRKjuwXKQ9qcNNN93krhfa85VXXnHtlR30Odcixz/44IPumrjxxhudSMY5KQ8upq+++uoO1wFxzTjP22+/7cRG3DBPP/10d23RT7TNE0884doJEN7Im77mWqWt+vfvn5DLKULpIYcc4vLSYKB4wrWBOCoxTYjUBDGNDx4iPZGYJnYViWlJhJcmvmbnZYAlhBDFHUSS3ESL/IJAhFCHuMI5sGTC8ui0006z//znP07MaNWqlb322mvu/nrmmWda+/bt7bDDDrMLL7zQ7r77bjvqqKPcffeFF15w+XXq1MmJN4hNzKRHPogWgAhGbDPyevzxx51oQn7MtocowRT4bH/kkUecGx3nReBCBEH0QmBBMGHSBPJKFMqFZRSx3hDUEFZYEGoQxIA6EFCfsnEeykb9EfUQt3AjpY2wBqOs9AvCDMedeOKJVqlSJffiz8Cdqd4zMv73iEewQaA7+uijnZiESBe930OetBWWZIhHtB3CJO2IOOafb/vvv7+zzkIo8AMNyoW4VrFiRee2i9CD6Ee7Uf7nn3/eTUOPmIb1XHbQrlwTtANwzv/+979WtmxZJ1TRt9QHsSo3vFXYQQcd5AQ6BDAEvWeeecb1R3aiXocOHdyxtC/XA+elXAiZtO++++5re+yxhxOao4Uv+pdrqVatWk6YJF4eVnacj/6mTXlxZzttzcc3xE+sFM855xz7v//7PycY7rPPPla1alV37o4dO9oxxxzjtiPMRUM5aH9/fYviR0HeP4UQBQvWxTKSSF/o20Ss3IXIDolpQgghihXNmjVzYhliDOJPmzZtnPiCMILYxYJY07BhQ2eBheiAsDJmzBi3ftJJJ1nbtm1dWkQmLKq8GyRUrlzZiSvs5y/CB8IIf0nHudl+wgknuHQIGxxLedhevXp1J5TkZF0VD17aKCdCEeIU+ZJf06ZNt4sqWKCRP+6v/K1bt66LH4Z1nXc1BOKJkRYhMboOtBFuorHxxogv17hxY6tRo4aLU0ee2bmAkg8CJu1Ae9AOpEGE9O6HnI9+QsTBGg7BC3Htk08+cWlw0SRNo0aNnLiEVR4LAh7HJ+o2Q7vw5RjLxQMPPHB73+LieOihh0aOyhmERY5lOeKII5xQRr5Yl2VnnUb7I/xxzXh3Tl64ucYQDbmGaEPqjQUdfzmWiR9o57333tsJbYienJO8uE5bt27tjkXIixbAuBY4jjbneqhQoYJz5aTOtDX9xjHkGw3XCH0iyychhBBCiMJFYpoQQohiBaIBYgXCC6ITwhnWHQgG8Sw8EEZ83CnEG8QHwEIKIQ7XPIQLL36RH+dANIqGdIgVTGaAAIQgxDEExEcIQXwqU6aM+z8WdJwXvCgVr2xsQzxBGCFvrNCwvMM9EEs6LJQQlsiLv5QTSzhms/zwww+dpRfWX4gmiFVeEKQOiFmxdfBWMLEunrQlC2Xlr5+wIR7kiehD23MsFm+0JSIdZQDaB+EHYQnLL6y2EI4QPRG6KC/lZsZVFuKOIaJRT9rO55MbCFj0LcfTD+QLxMs74IADXPlyA3GLvqXMpUqVcv9H6GPCheysC5lQAndT3FWpH30CWAdSJs6L0EXbILAhkBLmgeMQ2WgvREAWhDP6koV8EUTpn2gBzE+4ENsvlDm632LrS1/R5/qyLoQQQghRuEhMSyK89PoBoBBCpAsIA7GiTUGC4OFFBe6n/v+IBghTsbDNiwleeAD+kpa/iDg+LUIGolgsbI8Wobins+4FDfCiBufz+SGUsS1WmOEYBCjSlC9f3olpxO8iwD7iC3HHcBv88ssv3bHUDxBbEFoQkFhIT/wyrNR8+fiL22Ms9BN1zqvVXDScj7x9ncmPJbqdAYs46k6sOqywvv/+eyd2YdVF+XB5pG6AyIlgxP7YfHKDY6P7Ffi/vy5yIzYtkDb6mvCwTj/iVooYSL9hKYZlH9Zi9I1Pg5hJnyCwIZASyw+rSY5HiCR/FizHfF+yIFRihcYxHmbn5DrLK1xf9Hn0dSuKFwi/6h8hUhPuzfHeF0R6QN9GP4uFyCtSfZIIN1xcYxJ9wRdCiFQAcQRBrbiCCIG1EQIQ1l1YPgHCBVZBvCxhyYVIVxBgqYagwQycXsRCcMGiirJQLm9RRYwr4ogRG414b5QdiyUEI4QYxBtibBEfi3hpBKa/9957Xfw3LKFye+nDUgqBy7dBQYKlGFZfCINffPGFs9A69dRT3bWCgETbU28mKiBOGy63CFJepEsEnqfeqowZKzkXIDYi4sWKYfFA7MJVE2GLdsaCEQsyXC9jB0nsxzoQazRi5jHZxBlnnOHaPlbsoq/oT64tJtJgsgHcgelH2oDrAgs44u3Rh/QlCzHosFCMddnMD7QJ56IsoviBiIuIrP4RIjXhHs49XaQnvAcQCkKI/CIxLYkwYCJej8Q0IUQ6gUtkfsU0XA7juT8mE+65uGRy/0XQIZg77oeILe+9956zoGJ/QYlpiI2IRMQ7w5oJ6yWsm5iBlDhnWCohCCHgIDAhBGGFhlsfsbAovxcEictGPswwynFYHiEgUS/EwdzEI178EdyYJCERoWlXQCjgAxLi3QcffODiyDFBBOenTizUAYGT9iBQ/1dffeUEoETLRrtg/UXfYsmHuyh50beIkInkg8Uc6RDUKMvw4cOd0Ml1ERtbjjpxTspOfDtESWLZYXmGy2csWKdhtcZ1Rt8iptGn/F4Q2hDrsHIjH64LFspO/Llk/C5wnWUwwDlF8YPrifuDxDQhUhOeqTybRXrCs5MPg0LkF4lpQgghCgTEH0QgAr3z/4KEQSsWP3zUwPqHeF7XXXedE9WYSRLBoaDAbY+ZRRFmsDgiZhix2oiLhjvfxRdf7EQfhDaOO+6441wgfbYTY4xZNr2FFHVAfHvyySedMMOx/KUOicxe6V0pmbAA4aagoe58tSf+GC+kiF6IloQ8YOIChEAENizWrr76aifMUj76Ky9gmYcwd/vtt7v2YLZV8koE+oLZVykH/YNV4AMPPBA35hxCGvWhn9544w03qyxWdf369XN9EQsiLbHbcOWjTxl0eZe+du3a2TXXXONiyXFNYJnHX7bhArsrYidpsaJDKKQeTMYhhBBCCCEKj0AwGCzYT9fFgLy+tAshii9YpfTp08d69OhhHTt2tC5durjZ/bIDa5nevXu7wTBuc506dXLuV6JgoH+w0Bk5cqQT0RAUjj32WPd1F2ufWHDBQyRBYMGiif7i/94tE9GACQSIybX//vs70QnLJtJg/RNtkYN4tHDhQpcn5SA9IhqWQz6uGdZhCHukwyXSg9UUcG6szLAa4jjELuJ9eQsmxDmEI+pCnbwYg1sjeWPxRHnZjqCEVRXnQqTBvRBLIvbjckiZKB/5+PyxWCMfLKg4jnVCCPjZI6l/dnUAjmdGTVwOibPGzJW5PQOxnvMzgNJmWE0hCrFOuekD2hQxDysbyu3hfOyjTegPLNX8+bAEw0KOugBtSz1whaXerNNuHOP7nPNRP/qPdY4H2p0+on8RkdhHGvJGLMPyJ149zzrrLFdmZvKk3ORDm3n3zOzOx3kQwRADaXPuGZyDdqcfvJUjZUEYQ+R78MEHnfjmrZB8vDTcf3EdJS3XBe1En7MwoQQTF9DenD9W3MsO6sEMp7169XJx+JjVVXG5hBBCCEE83p49e7r3iq5du7p3wexgoqTXX3/dunfv7kJbdO7c2b0jRbMrH//SHYlpQoiUQmJa8QNxBMGAOFMIaIgxrB9zzDFOzEB8wGKssEDgYUHw8qJHYYGAwjWKsMG5Y+OD8UKCEMJxCCcs8WKIsR+hBbGGfBIVWQDRCVdGxDiElrzEKEs21IPrg7+IpbvyPKbtEEwROhHGEMJyg+uPeGfELSMuCu1J2kSEJ9qfheuINLFlR9RFCMP9c8KECfbWW29tF+iiodycl7JzXvoynrCcF+hb7msIvwh4CHNCCCGEEBLTCg+5eSYRXrqxSkhGHBQhhCguYFWD5VI0iCPc74jthYiASxx/BwwY4IQFLJTOOeecQhfSAMGCcxa2kAaIJAgcWDPFE7EQZLA04xgEmuyELvIhD6yc8iKkAYHtcUnEBbOoPyZRD/oiO8uxvEB68kKUS0RIAyzgsDbjWvDtmagFF+3OuUgXr+wI9UOHDnVWkuedd547V7xykZZz+utiV4U0oGy41DJJQrR1pih+MFDZldl1hRBFBx8usDAW6QnP78KYsEmkLxLTkgjWCFhlMMgUQoh0AddEXBS5t/EXl0tiUH388cf22muv2bPPPusCsGOlg1BATKubbrrJDfYLW0gT5kQ6XFux3CxqMa2oIU4ZMc3yO4FGbuBqSmy4Cy64oFDbGkEWizRipRWFaCwSg6/5xErUYFyI1ASXfx+qQKQffOwg1IUQ+UVunkkEK42BAwe64MIMZoQQyUdunoVP37593cyHDOCZ1ZDZJkeNGuX6wrvCYZGLlRVB4RHSiFO1uws5QojdG8Q0ZvVlQgsEbiFEakFMTN59iP8q0o9x48a5GbuZJCmdkJtn4SExLYlITBOi4JGYVvggpjFbIXG4vvjiCxfzC/Es3sMVQQ1XNwlpQgiR5RLfv39/Z7ErhEgtJKalNxLTJKbtKhLTkojENCEKHolphQ9i2iGHHOJmQcQy7csvv3RB171lGg9Z7rOIaMRIu+2229zfogx8L4QQRQ0fHRjUMBFG48aNI1uFEKmCxLT0RmKaxLRdRWJaEpGYJkTBIzGt8EFMO/LII61Ro0b2119/2YoVK9zD9+eff7avvvrKxUpbs2aNO5Yg6/QHs0ji8ql4TkKI3RXENAYp7du3t/r160e2CiFSBYlp6Y3ENIlpu4rMBpIIg0am3k/GTF1CCFFcYHZIXiaxNEMsQ1Q79NBD3cvHLbfcYvfff78TKffff39nqcbLyZNPPums2BA/hRBid4SPufXq1XOzuAohUg/ECGaEFukJHhdMJCREfpGYlkQYbLZu3VpimhAirWAygdjZELnP8ZKJxdq5555rV155pV177bVOVDvmmGNszpw5NmDAACeoYc0mhBC7G4hpuLzzEUIIkXpgUVqrVq3Imkg3atas6QxhhMgvEtOSCJZpdevWVZwgIURaUbt2bStbtmxkbWf22GMPN1Pd2Wef7eKlYa12wQUX2JYtW2zu3Lm2dOlS27p1a+RoIYTYfahTp45CfwiRolSpUsVZL4n0hA/FfBgWIr9I9RFCCJE0EN2w0L311ltdXLtmzZq52T83bdoUOUIIIYQQQgghUhtNQCCESCl2ZQKCe++917kjagICIYQQQgghRLrx3nvvudjFmoCg4JGYJoRIKfIrpr322msuYD4xvsqXLx/ZK4QQQgghhBDpwfjx491MtMQ8lphWsEhMSyK4Mi1cuNCaNm2qSQiEKCDyK6a9+OKLbkYmAkHr9ymEEEIIIYRIN9atW2erV6+24447TmJaASMxLYmsWLHChg8fbmeeeaYLyC2ESD55FdN4SIwYMcIGDRoU2SLyyvz5851rbLly5SJbhBBC5AYDkHnz5lmNGjXcjO9CiNSCd8gSJUooPEiasnLlStu8eXPazth68MEHO6+cWHEsGolpu4bEtCSyZMkSGzhwoF1zzTWauUmIAiKvYhoPyeXLl7sBjcgfX331lbVq1crNSieEECIxwu/Y9sUXX7hnVM2aNSNbhRCpAu5yjOmYWEmkHzNmzLC1a9fa4YcfHtmSXlSvXt323nvvHGfkl5i2a0hMSyIS04QoePIqpoldp2/fvi7WXJMmTSJbhBBC5AZiGoOU9u3bW/369SNbhRCpAnGnsCpt165dZItIJ8aNG+es07De2l2RmLZrZET+CiGEEEIIIYQQQgghckFiWpLJyFCTCiHSC82ILIQQ+UP3TyFSF/1+0x/1sdgVpPwkEcyAiStEoEohhEgXMPfea6+9ImtCCCESgUFay5Yt3SzSQojUo169ela7du3Imkg3iGXZoEGDyJoQeUdiWhJBTCNAZWZmZmSLEEKkPs2bN7eKFStG1oQQQiSCF9PKly8f2SKESCWIdSgxLX2RmCZ2FYlpSQQRja+PMhcVQqQTDARLliwZWRNCCJEo3D/lsSBEalKmTBlNKpfG0Lc5zXQpRG5kduvW7cHI/9MWiVtCpA9btmyxKVOm2OjRo23jxo3OYqpatWpusMKsPB999JGb8RO3xOXLl9vw4cNt1KhRLi1foKZOnWpfffWV/fLLL1aqVKm46ZYtW2YjRoxw52AGm2SnGzt2rEu3fv36HNN9+eWXNnfu3Hyn4yUBkT8/6Yj/6OuXXbpatWrlO92PP/7o0v36669x01WqVMmlo/++++67fKUbM2bM9n7PLh0zMOc33YYNG7bXLz/pli5dmmM6XuJJ5/sv2eloT35LX3zxRb7TzZs3b3v98pOO53O8dMOGDXPp2E+6yZMnu/olKx39wP2Dfmcmq/ykYwZv6sd2X79kpqM8pNu0aVOBpKMf5s+f7/od8pOO3yX76Yfc6peXdNSD6/qHH35w6RYsWJDUdJUrV3bp6Hd+l/lJ9/3337t0NWrU2F6/ZKbz/bB48eICSccAknT0+6BBg/KV7uOPP8413eeff57ndL4fFi5c6OrHrKjx0g0dOnSX0nHfym+66tWr55qOfv/999/zle63335z7TJ+/HhXv+zS8XzclXSbN2/OMR39t2jRonyno9+3bduWp3TsI93WrVtdu3zyySdx60d78v43adKkAklXpUoVt4/+mzBhQqGmmzhxoktXtWrVHNvFtydtXRDp8LoiHf336aef5ikd7+uJpvvss892Sse2nNL59uQ3Rv2SnW7IkCEuHe/R+U1Hn+aWjmP4beYnHfdW6sex1C8/6XgH5v7GWKlt27Z20EEHufqKxJBlmhAiZWEQzCCSaa0ZsCAIINggXPFwWL16tc2cOdO9zPBQ4UWeAQ0Pq2nTpmWb7s8//3TpeOnKa7oZM2Zkm27VqlUuHWVOJB0Pubym44FIuunTp+fYLqSLbpfs0vFwJR2CRXQ6jvfpqF9e02XXnj5dbDnjpfPt4tMh6EWny60fcksH8dJxfLxyRqeLbhfS0Q7ZpfP94NOx7tuTdLm1Z37Txeu/7NKxP7t0sfXjL+tsj07nyxmdzrfnyJEjd0gXr10STcdx8dqT/dmVMz/pcuuHnNKxP7t07I+XjvyyS0c58pqO+pIuu3LGS0f7xEsX2w+k47jodL6c8dLRn/HS8Zd0bI9O58sZL52/Pn063y5cz/Hql2g6fhes8zthf3S7+HTR/ZBIuuh2SbScPh33G5+O+0l0Ot8u3LdIx30su3S+PSlnMtPRnrH1iy6nT0e7xKbLrT19Ot8u+U3H8TmVk+dmbDqek9HpfLvwPM4uHfUjXXS7ZJeO5zzpsmvPXUnHe01u5YxNR7vkNR2iiE+XU3tGtwtCnU+XXT8gOJGOj3jR6XJrl/ymy66c8dLNmTNnh3QrVqzINl10e0ano5w+XWw/IMbGSxfdLj4d78a+H6LT8eGXdAgrsekoJ+l8P8Smo11i0/n2zC6db0/SxeuH6HS5tUu8dLHt6esX256kQ7CLThevXXw6BCffD9HpsmvP/KaLbpd45YxOt2bNmh3S8WEqkX5INJ3IP4Fwo4ci/09b+OJRGHABc4H6r8NCiOTDQ6FPnz7Wo0cP69ixo3Xp0sV9SYkm/A4Rfok227rVbI89MOOO7Mgj4Z90+DeNNRz3Ecz9zUrk4K3DecPPUpcmM5M4ilnbwu8Ftm2bWalSWUuqwYshbp58LRNCCJE4un8KkbogkDCmU6iL9ASrLYTHPRgs7KYgpr3++uvWvXt3u/76661z585u4rFoaCMRH1mmJREG+ai8mDMLIYoOxK/vvw/a4MHbbPbs/D0AeG6sXRuyiROD9vkXQfv666AtW5ZzXvz0f/01ZJ9/jktD0K1TlvHjs8oya1ZqPoxmzZrlvqYJIYRIHAYgWK+sW7cuskUIkUrgfuctQkX6gZCEdZgQ+UViWhJBTMO0U2KaEEXLhg0h+/CjkD35dMiGDsufgDVjRsj+85+gdb09aE/0DNp/XwnavPmRndmAVdqEiSHr+VTIXusTckIaZRnoyzI8NcW02bNnO1NxIYQQiSMxTYjUhthSEtPSF8Q0XB+FyC8S05IIL024ecoUUoiipXTpgJ1+WsC63JBhRx21o8v1unUhW748ZH+uybIaiwc/4d9/N/t+QsgJZF3/kWEP/DvTWjQPONdP9HL+evh/1sI9wAwjLqzagLz++ju8LXy+DevdppQDNwfc2IUQQuQN3T+FSF0Ivi8jifSFvqWPhcgvEtOEEGkHz8WffjKbMCFkCxaEnPiFi+azzwXt0e5Zy8OPbLNnwusjR+4sfo8aFbIPBgZt8RKzTZvNxowN2bjvs/Ia9HE4/WNBe/+DrMERY6Tnng/agw8xG5eEdCGEEEIIIYRIdySmCSHSji1bQjZ5SsiGDAvZ7NlZEwD8+GPI3no7aFPC21lngoIli0O25I+dBTCs11avNtu6xSy4zZwl27KlbAvZ99+HbMD7/xPOENM+/yJk77wXtFnhcwkhhBBCCCGESG8kpiWREiVKWKVKlTSTpxDFjI0bQ7ZgYchWrjSrUiVgB7UJ2LFHB+yIwwPWuPHOv9cDDghYuyMDbhbQMmXNLrwgw84/P2C1a0eODf/ZnX7mFSpU0ExWQgiRDypWrKj7pxApyp577mllmMpdpCWlwy/69LEQ+UViWhIpW7astWrVyolqQojiAzHUGjYIWJ3auH+G7P0Pg/b550FbuDBkpeLMhl2nTvj4hmZ7hMc/zJZ96CEBO+CAjPCgKLwzSkQjHhoupOnu3Nm8eXPba6+9ImtCCCESgY+rLVu2tPLly0e2CCFSiXr16lmtWrUiayLdqFmzpjVo0CCyJkTekZiWRFC2EdMyMzMjW4QQxQHGMUcemWGPPZJhZ58ZsJo1zGbONnuxd8ieeTbxwNCByB0zFE6CiMayalXItqV57NJ9993XWVcIIYRIHMS0Fi1aSEwTIkVBTKtdu3ZkTaQbEtPEriIxTQiR9vz1l9n06UFbtChk7doF7IbrM+2IIwLOyGz9hiwLs0SoWCFge+4ZsA0bzX6eE7IBA7ZZj/9ss2XL0902TQghhBBCCCGER2KaECLtYXbP338369c/ZL2eClnPJ4M2fnzI6tUzO6pdIOH4Z7h87tfCrGVzs/kLzN54M2SbN4UTS0sTQgghhBBCiN2GzG7duj0Y+X/aogkBhEgftmzZYlOmTLHRo0dbkyZN7OCDD97JBJ/ffKVKAWt7UMDFOyMGWqlSZlWrBqzu3gGrXy9gB7cN2EntA3b4YVnHxlI6fHyjRgEntrVuleHSZ2RkuYw2aBCwFs2JoxawY47OsDZt+Bs+16EBa1A/YM33DdjRR2XYPvsELDPzf2U5LLx/+yQGQgghhBBCCFFE/PXXXzZ58mQbNWqUtW3b1g466KDweKlqZK/IjUAwGEx7m4rCEtM2b95sq1atsurVq4cH3TL6E6Ig+Pvvv61Pnz7Wo0cP69ixo3Xp0sXd/BMBd05cPrduDVmpUlmzdebnp4ql25YtWWkR2dKd5cuXu5g/zHokhBAicZYtW+ZiTpbaHR4WQqQZf/75p4uFrbiH6cm6devC7/RbrVKlSpEtux9//PGHvf7669a9e3e7/vrrrXPnzi5WcjShROPh7IZITEsi3HDHjx9vxx13nKZBF6KAyElM27TJbMzYkJsYoDjDmOqIw7Fai2wo5owcOdL22Wcfq1GjRmSLEP/f3nnAWVVd+3/Re++9dxEURBRsKHbRWGPDQkxiTIwvyUt5KZqYmMTEfzR5KSbP3htWBCwoRUF6r8PA0IY+FCnDAP7Pd91z4DLMDHeGO8Pcmd/387kM99xzz91nl3XW/u219xZCHAs6IJ9++qlvTqWRfiFSjzlz5vhAIj6QKHssW7bMI7NOOeWU8Ej5Q2La8SExLYlkZmbayJEjbcSIEYrgEKKYKEhM27zZ7JbbDrioVppp0sTsuacrpUxU2zPPPGODBg3yabVCCCESI/CxvZMydOhQa9euXXhUCJEqjB071mrVqmWDBw8Oj4iyxJQpU2zLli122WWXhUfKHxLTjg+JaUlEYpoQxc/xTPMURUNimhBCFB6JaUKkNhLTyjYS0ySmHS9a2EsIIYQQQgghhBBCiASRmCaEEEIIIYQQQgghRIJITEsi7NREGD+7vgghRFmhVatWVrNmzfCdEEKIRGCZkTZt2liNGjXCI0KIVIKNQ8rzTo9lnfr161vTpk3Dd0IUHolpSYQ59SeffLLENCFEmaJHjx7ucAghhEgcxLRevXpZnTp1wiNCiFSCIImWLVuG70RZo3nz5ta+ffvwnRCFR2JaEiEyrW3btlaxorJVCFF2UGSaEEIUjdatWysyTYgURZFpZRsGipuwxb4QRUSqjxBCCCGEEEIIIYQQCSIxTQghxAmD7baLsuV29L2DBw+Wii27C0rDiUhflD/xRO/jP4v+X9DrRFGa0pAMomsVps7m/v3ofe7vR+9zf5bXuUIIIYQQ4vipdP/99z8Q/r/MwpoVQoiyQU5Ojs2ePdsmTZpknTt3ttNOO03rWaQwI0eOtLffftuqVq3q06ESYd++ffb+++/bI488Yv/3f/9nM2fOtCFDhpywKfYzZsywOXPmWOXKlY+aDjJ16lSbO3euLwNQr1698GjxsnXrVhs/frw99dRTdt555/kzcMqUKbZu3TrLzs62VatW2fz5830tmJdfftkmTpxo06ZNy/M1ffp0LxvWFSkuDhw4YFu2bHHRhzVHo3JctGiR/fGPf/Q2z1Rj0lHSvP766/bee+/5b5OGosB97d271x577DF79NFH/ZrcE2usFsTGjRvtv//7v2337t2+QDLrsn766af29NNPe5lG67xMnjzZMjMz/TcyMjJs4cKF1rFjR//siSee8HysW7eu1j0UQgghxBF8+eWXNmvWLPcF+/fvb/369fPpzSIxFJmWRPbs2WNLlizxjoEQQpQVli9fbjt37gzfJRfWEmJx7ipVqoRHjg3iGWJR9erV7Rvf+IZdc801J3Styi+++MLeeecdz6fcIGLx2YoVK8IjxQ9C2bhx46xTp06HBpM+++wz+/zzz23p0qUu/o0ZM8afVenp6bZ48WJ/IVC/8sornl4EGI7xTMvKyvJrFBeIf7/4xS9s9OjR/v8IxElEIMr5RA2K8du1a9cuVP3Mza5du/zeyP8zzjjD7rzzThswYED4af4gGlMO69evdxEUyJ9ly5YdkU84wAhqUdmOHTv2UDQagum8efO8vYiSh3JIS0vzOiCESD0YhGJgQ5RNNm/ebGvXrg3fCVF4JKYlEZwlnFaJaUKIsgSiyvbt28N3yaVbt2525plnetQPHU9EO4QDomwQEdasWXOEkMegBZE3OEBEshGZyG55kZjGFDrEH763adOmo+wx1ybSh79cl47utm3b/P9cm+N8H5GJ49H3+RyHiwig/fv3+7EIzud4Xh1mRA+ccX4zgmOIaytXrvT/k+Z4yAeuSQQZ30VUiSf3PSCukFbStWPHDluwYIF/9+yzzz4kQhH5xYvzOXfDhg2eZ0OHDrWvfe1r/urbt68LWI0aNTp07KqrrnJRLoKIqtWrV3vaqRN5Pe9IP3lPlBSdEL6TH3yf9CACURaczz1wb4yMXnDBBdalSxcXsygfXtSN+DKK8i8qI+pN7jIC0sX3o/RTXrnzPjfsZIsAljsqjXvn/kgD95rfdbg/0orgClyPUV8izfj9+PwjfZQraYzekw/cC/8Hzqc+xN8fdSgqW36Lso3o06ePfxeBlbokSh7aI3VaCJF6RM9hUTbBX8AfEKKoaJpnEsG5ZkrMKaec4h0SIUTy0TTPkoeoF/K4YcOG4ZHkgYCCAMIUSKZCEhmFc4O4ggCBTeUcprghrnBs1KhRHgWGgIF9Zwpes2bNXFQgIosoHELW6cQiePAZEUaIR1yPCCFEEM7jd7g25xOFhXDI5xxnmiORUQhf5AF1jumciCfUPa7H7xMZhLON7e/evXt4ZzGYlofQRj1FkPnoo4/s448/9oEX0sd9IA4RQQR0uj/55BN/kSYik0gX00eJkGIaJOkiPXx3woQJnlY+o3y4X6LQEFBuvvnmQyIjv0layQt+gzy++uqrfQfqDh06+AtxB2GOtBDxx1RBjlM2iDrkGVFrRNuRT9wDaedzIgwpD8Qtyoc8YXorwifCJuknL3OD+MO5TKUkraQtEvoQ0GjrRC5S9uQl1yQ/4suI3ydtHOPeKSPEVkQ47pkXIhWCEhFi1CGuwbXIT65P3csLor0oP36D/CVfqTfkJxGSUfQe902dyA0iF+l+9913fSoFvgHpIb3kH9fk2oCIRv2gDMl3zn/ttddcLObFedQZXtEx4DvcBwIdfgiCJCIov0Pd5nzKgN/KK42i+KC+UCeZkqtptkKkHthP4Fkpyh48i/FDunbtGh4pf2ia5/GhyDQhhBAnDISNN99800ULHuiPP/64Pfnkky4QIKIhxrCuGmt7EY2DCIRYgHiBgIWgFEV3IVq88MIL7hAwmozYwbWY0si1gY7tv/71L3vxxRd9PTNEFz5DzPnPf/5jb731losciA/85rPPPuu/z7mIavz9+9//7v8vKOIqN6Qd0fBPf/qTi1HRfSDEIGBFIAjxuwh3nM9n5A8iIw4fnXPO4R5eeuklF5OieyBqifM5D1EvflAHYYkXa5/RsWe9LsSWRCGaizwiHYziIngh5LH+F2kg/xGsKLfnn3/e8x4RCsGK/OO7eUWLIdKRFwhJXJPyjMqU+yf/EUAR7VgnjzXyWGMPYYw0kQfPPfec/wbpoFzI33/84x+ezug3qV+ULWIg3yPvmQ756quvuiCWX2QZoiW/R75yDmLfv//9bxdtSR/CKumlzlA2uSHdnIeoRp0lffw+dZR84v8R5B9pRHgjXxKFckUko2wR4Xr37n1E2XIMsQ2RUQghhBBCJAeJaUIIIUoVCA+33XabL9j++9//3qf6IeIgMLA+2qWXXmqDBg2y4cOH269+9Ss799xzXdhC5CACikXb//d//9fuv/9+O+mkk1zAQtiJBBNEC6J4/vnPf/pvXHzxxR61w3FG5PguC9/fcccd9sYbb7hI9a1vfcvP/8EPfuDpQEzh/ERBVEHcQRi655577De/+Y09/PDD/js33nijCzFM3+MeiED6r//6L08393f99dd7OhFeInEo9z1cdNFFfu8IjESY5Z6WeMstt9hNN93k+XbllVfafffddyhq7Vhw/4iIH3zwgUezsYj+7373O/vJT37i4hJiJVMMEZa4HyKmfv7zn/v/WQuNPEWozGtaKBGP3B/RcEwrfeCBB/ye2TghL7hvovz+9re/2R/+8AcvIwQx8u/uu+92Ee373/++5zfRY5xPnpFGRLNbb73V/vKXv9iDDz7o9YTINwQzzj8WXAeRlRFc6uFvf/tbr59//vOf7Tvf+U6e4mSbNm28Lp911lme9z/96U/t29/+tvXs2TM84/jhnqhDXJ+ItHvvvTf8JAb1BDFNU1mEEEIIIZKHxLQkU5iRfiGEEEfDOl5E0zDNj2mJrKuGQIRYk1d0E8eIRCNCiPXXiMwBBCXEH6KSiA6Kon2YvohYk3vaId9D+GHKH1NHCXcnDYMHD/a1rhCfEKyIBEKYyL2WWUEQJcZ0QsQkoo+Yooi4xHGmSHKcNBJx1aJFC/8tovKI2mrSpIn/FtMRogg71jFjB1OuGQ+fIyzmvjfugxeiCr9ZmJ0xiagiSpBoMcRJRCnSxvXIK8RP0kYZEP1EXpEOzkFsY3ob5Uc5FCaaLy8oo1NPPdV/lxdlRF6xPhz1hPtDGKWMouhBIveIAKSeIG6RLl6IlpwfRQkeC34nmpJJBB7Rg9w7x2vWrOnHTwSUZUFly1RPfBPqmxBCCCGESA4S05IIzjSOfvzUGiGESHWYMhiJCCVB/O6JCAT8n8gjoofymkpHxBmCCSAusT4aICqw7gNCAkJQJKYhXuW1fhHf4zPgO3yfY4g2pCM6TnoQt6K0IKZwPC+hD5GM8xA0EJmIJCOtP/rRjzwijkg3or44D1GHv0RREW1GxBOvp59+2qdlko4I0plXmZAOyG/aYlEg6gxRjKgsIr+idPEizYiWlA1iJ7/PNFWi16JziGjj3smHvMqvMFAeUfnGlxF/ozKiPHgOU978HtNeiVBj7Rum6ManH6gjiaSL6zOVkqg8yoLItEsuucTXl2OKcWklureoboiSgzwnUjO36C2ESA1YK40BLlE2iZa+EKKoSExLInSW6PBEDr0QQpQFEEJKcvHsSJwC/kb/z0/w4HzSx3lEQEWiGVFJ0TpjRGpFETucx3dyE/9bEL3PfQzi08K1sftEKcXDOmBEaPFbREvRob7ssstcSGOKItMuWSfsqaeecnGOczj3/PPP92mDTPXkxXREpnwOHDjQhUYgHXk9a/gN7hMBLFkwUMTzjQ7FnXfeeShdvJiWyTGi/SgD8oXpmkxljc5haiNTbqlH8YJgPNxPfuUbD+fFlx3vo1c80fV4kSeIj4jCCF/x6UcQu/baa92hPhZcE5GOqMbvfe979tBDD/n0X34D8RDBLpF7AMqOV3x0I3X3eCP38oLrkq6SbMMiBnUGMS2vzTeEEKUfliDQJldlF4lp4niRmJZEcLKJFMjt1AshRCpDRzCKFCuNIEoQHdW6dWufZshi8YgHCFVMx8NRQgjKT8g5Xrg+Yg3robE2G79NZBhrcTH1kd/GYWO6JJFnrJeFIMM0TQQOplACDjvTNzmPaKu+ffv6NMY+ffr4s4VyOFbkM7+D+JXMrfz5bToUiH1cl6meTIclbRwnXXxG/jO9kumqTE1ld1POQUTjGrzyEjE5xmeIkQiQiQpSidKoUSNPJ3WYCDvyk3TxomxIfxTtVhCUHRGORCCy4P8555zjwmc0dTSKQkwERFFET74HfJfNOJiammyYwsr1yQNR8iTSboUQpROep1HEuih78OxnsFCIoiIxTQghRLFA1A2L5iNqxUfgJBvEGDqsLKyPmMVOnSx4/+yzz/raZESAIZrkFcmVDIg8QThiyiO7bD7xxBM+nZN0IJqwnhfRUazpRrrYYZRdR9lNkig6xB2EPs4hSoq1rdhwgeswxZPvsGslItuxQORhXTfWJ0tWnpM2hD0W/ifN3OMzzzzjO2vyFxGRMkDIY0MA1idjp0ruk6g7/rKLZn5iEx0VFuhHSCLPKDcW+U8WXJ8yYLoOu4qyYyw7gLLZA39ZAy4REYz0U78oO8qG744aNcrFqtNPP93FukQH0xBgieZjCiz5w/W452RGFAKiLuv78ZfIeSGEEEIIkRwq3X///Q+E/y+zKFJMiLID06DYgY/FvxEO6OArBL/0QNQOUysRRlhMn8gsRAYisPKKbkNo4zjRWkQzITghTCE0RIu6E03EeaxPhWjGmmN8hyiuKDwfO8//iRxCSCLih3QQFXXXXXf5tRF8uA7iEAJY/NQ+0snaWUwFjNbQIkoK8QShJ6pjrA3Gb/BdRDBGNYmqIjKLz1j/jEgzBCU+Y+dRopf4P1Fd7777rn+OwEEEF9FCbJKA0APcE9chuo41vljYnxf3x0YICG6IdnndA5BnGRkZnvcDBgxwYS3RZyD5zFRF0kQZxH+P+2MzCNI8bdo0/w3yGeGPtFN+3CN/yR/yn88pT9ZaY+QXQYsyyJ0eRE7ugzrDdygjfouIL6LVWIuUDSnIP3ampIyINovKiONcOyojjlH2CKhRGXF9hE3SPXPmTP9LGZHXXI+6k1c+RfWFekSaEDQR0Lg/0su9Uf4333yz26O8rkGb4DrUK+6FtkBauC5lzLVID3nHfXXt2tXtGvdHPeEeqBeULXmLDaTsE4k0o62MHj3ao+CoZ9QfIYQQQghgORIG8yZOnOgR+8w8wF8RiVHh4MGDyZ1PUQpJtCNxvDDySyQAjrsQonhg/R+iXX7/+9/7Au533323G39RfBA9xTSl/CK7sH2cwwOZReiZaski+ogcw4cPt4suushFkJKCdCCoICAgdJQUiB88AxBOEI8Q/nILiEQ3IXAg4iBs5DcFjOsgbnEfiC+FEUEmTJjgkWCIM0SKJfMZGAlYlHN0j9FadPFQHxC0qBuUQWmZRkH+Y0MoA/I1v/wvCO4JUQvhkec9gmVeQvGxiOoLgi1iJXmU7OhJpjl/+OGHLgbefvvt4VFRktAWqB8IyUKI1ILBC56hmqpdNmGwi2dxUZ7hZQUGaImQj9aBZQCaQcZ4yCORN3qyJxEc9Llz5+a5o5sQQqQqixYt8gik/EBcIVoJgfPGG2+0H/7wh/bJJ5/YN7/5TV9wvySFNCDqh0i0khTSAIebaCMitYgwyss5QywhwomoIgSU/Bx0BCpGBonOKmw0EVMyieKL1o5LJtwjEVKkn/TlJaQB+UA0GNFipUVIA/IfAY3Ix4LyvyAQRbh3ypm6XVQnPKovRMWRpmQLaUD0HFGGQ4cODY+IkoT2R5QowrgQIvUgapiBQVE2QUjiOSlEUZGYlkQYpZ43b56PfAshRFmBNaVyi2lE1GDv/vznP9utt95qP/vZzzwChmgkRJRHHnnEF9kvaUFLxMTEM844w3cNVTRM+eb66693QRsBV5Q8iGlM4032WnhCiJKBJSAkppVdENNYTkGIoiIvO4kw9YOpOwqFFEKUJZimxCABAhrrfbEA+w9+8AN78MEH7Y033vBpnYzeIrgRZXPffff5TpVMfyuOaBtRMAhoRI8RHSfKN4jZRDZqitKJA/uJfyiESD2Y5qkZR2UXypYyFqKoaM20JMK6JyNHjrQRI0Zo3TQhigmtmVbysGMj0+JYfJ4FSpk+SFg84hoiGx1FBhGi6W8DBw70aZZCCFGeiSLTfvWrX/l0WyFEasEO1ixVwAZAouwxZcoU3+iICO7yitZMOz4UmSaEEOKY8CDlhXCGgBaJaJGQFsHgRXSuXnrppVd5fwkhhBCibKLItCSyceNGXzPo2muv9UWFhRDJR5FpJQ8Rt2yV3aJFC5/OOXnyZH9h81hrglE9wuSJTOvUqZNH51566aW+W6KmeQohyisMNrz++us2aNAga9WqVXhUCJEqEI1fo0YN+ZlllNmzZ9u2bdvs3HPPDY+UPxSZdnwoMi2JEAbcu3dvrU0ihChT9OjRw9deYufGLl262PDhw+2xxx6zBx54wK6++mo7+eSTD+3amJ6ebo8++qjv5slmBHQmhRCiPMJgbs+ePX23ViFE6sGuzfg3omzChlnsTi5EUZGYlkToSNKpVCSGEKIsgZhGlFk8CGsMHvzP//yPvfjii/bwww/b0KFDfbFzRrnYSRJBjRE/IYQojyCmnXTSSW4XhRCpB0KLxLSyC2Jahw4dwndCFB6JaUIIIYoMnUV2jjz99NPtl7/8pb366qsurPH+8ccft1GjRvl0UCGEEEIIIYQoK0hME0IIcVywVhqCWtOmTa1bt26+lt3Pf/5z+8lPfuLTm4hU2717d3i2EEIIIYQQQqQ2EtOEEEIkDdaMbNSokU95P+ecc+zUU0+1Zs2aaS1JIYQQQgghRJlBu3kmEXaz27p1qzVp0sQjNYQQySd+N8/TTjvNbrjhBl/gWRQf5Dk7FEsQE0KIxGEHNOxn9erVZT+FSEH27t3r/Uh8IFH2yM7O9o2y2LG1vMKO/G+++aY98cQTdvfdd2s3z0IiMS2JsND2tGnTfHvdKlWqhEeFEMkkXkxjUedevXq5gC2KDx60tWvXljMphBCFgA4I9pPp7mzaIoRILXbs2OEBEvhAouxBn2L//v2+Y315hWVYFi9ebLNmzbJ7771XYlohkZiWRDIzM23kyJE2YsQIH4UUQiQfjP4rr7xif/nLX7zNieKHkTuiKrRTsRBCFA4iWxDSNGNBiNRj37593o9UkETZBCGNyDQNdsS455577NZbb7VOnTqFR2JITMsfiWlJRGKaEMXPgQMHbN26dfbxxx/b9u3bw6OiOCHilq3DGzduHB4RQghxLOiATJ061bp27WoNGjQIjwohUoUlS5a40IIPJMoeGRkZHp2m5WJiMLuuc+fOVqtWrfBIDIlp+SMxLYlITBOiZGAkiYcfo0mi+HnppZds4MCBciaFEKIQ0AF5/vnnvYPSpk2b8KgQIlUYN26c71aODyTKHtOnT/f1zi+88MLwSPmGuk4UZu5Iaolp+SMxLYlITBNClEWeeeYZGzRokI9WCSGESAwGfJ588kkbOnSotWvXLjwqhEgVxo4d61E6gwcPDo+IssSUKVN8XcvLLrssPCLyQmJa/mgBhyTC4txt27bVukJCiDJFy5YtfbRKCCFE4jCY27p163K9U5wQqQzLW9SvXz98J8oabDygTczE8aDItCTCIrMbNmzwUH4tNCuEKCusWbPG1/vJvYaCEEKIglm1apV31iSoCZF6bNq0yYMkGjZsGB4RZYmsrCzLycmxpk2bhkdEXigyLX8kpgkhhBBCCCGEEEKII5CYlj8KnxJCCCGEEEIIIYQQIkEkpgkhhBBCCCGEEEIIkSAS04QQQgghhBBCCCGESBCJaUlkz549tnTpUjtw4EB4RAghUp/09HTbuXNn+E4IIUQisM5MWlqa7dq1KzwihEglMjMzfRMCUTbZvHmzrV27NnwnROGRmJZEcJbmzZsnMU0IUaZYvHixbd++PXwnhBAiURYuXKjBCCFSFHbjXbduXfhOlDXWr19vK1euDN8JUXgkpiURttalUR48eDA8IoQQqQ+jsnv37g3fCSGESAQi0zZu3GjZ2dnhESFEKrFt2zaJ4WWYL7/80stYiKIiMU0IIYQQQgghhBBCiASRmCaEEEIIIYQQQgghRIJITBNCCCGEEEIIIYQQIkEkpiWRmjVrWu/eva1SpUrhESGESH26detm9erVC98JIYRIhAoVKliPHj2sTp064REhRCrRtm1ba9GiRfhOlDWaNWtm7dq1C98JUXgqHDx48Kvw/2UWnJmSYP/+/b6QIZ3OkvpNIYQobtjJk8GCKlWqhEeEEEIkguynEKnLrl27rGLFilajRo3wiChL7NmzxzcOrFWrVnhE5AWb6Yi8kZgmhBBJgIdxRsYqW716teXk7A+PilSgWrWq1r17N2vUqJGeF6Jcc+DAAZs9e47t2LFTO5OLUk2VKpWtTZvWHlWC2CGKFzrTmzdvtiVLllp29r7wqCjL0MbatWsbtLM2hW5j69dvsJUrV/pOqBUrasbW8VKrVg1r2bKlR0qeCCSm5Y/ENCGEOE7odC5evMQyMtbY7t17gyOyOanFV1avXm3r1q2LtW7dSs8MUe7AUd69e7fNnDnLtmzZbgcOyHEWpZ2vrGbN6kFnv7UPhkhQKz7wcdauXWtLlqTZ9u1fBkf0jCwffOUiTvv2baxr1y4Jt7GsrG22aNESW7lytVWuXEXLHyWBgwf3W+PGDax3717B38bh0ZJDYlr+SEwTQojjZN26dfbpp5MCp6NB4NT38ik9InXYsWOHTZ8+xVq0aGT9+vX1CDUhyhNMdUlLS7cxYz62s88+35o0aappiaJUg/i7ZMlC+/LLLDv33EEetSGKhy1bttiMGbNsw4as4Bk5UGsAlhNoY4sXz7e9e3cGz4UzE147bvr0mbZmzYbAl2pu7dt3CI+K42HDhkzLzFxt9erVCMrirPBoySExLX/K/TBOTk6Or3WWVyVhJGbfvn2a6iCEKJBJkz6z5s3bWI8eJ0lIS0Hq1q1rp512RuA47rP58xeER4UoP2zatCnoAM2woUMvs2bNmktIE6UenrUMXjVv3tomTpwUHhXFwfz5CCr7JaSVM2hjPXr0tsaNm9vnn38eHj02q1evDf6taO3aSUhLFs2atQh81QY+6CVKF+VaTGNtkIyMDFuzhqlZu8OjMRDXiFZYunSpZWVlhUeFEOJo2HikevXqWqA2haGDQBTz3r1M0xWifMGgItFpRGVqSo5IFXjm8mKReFF87NmzN3g+VpSQVg6hfVWvXrQ2polhyUX5WTop12IajuNvfvMbe/TRR23ZsmXh0RhErKHCf/e737VPP/3UhTchhMgbnnB6ygkhUhnZMCGEEHmh54MQeVGuxTSmb65fv96nN2RnZ4dHYxCZRrQJO/OxE4nmCgshRHlADqMQQgghhBCiYMr9mmmFgUg2pn0+99xzHs3217/+1Z555hmbOXPmUVODVqxYYW+//bb9/e9/9xf/Z5HyaP011h/47LPPbNq0afbhhx/6OS+//LJt3brVPxdCCCGEEEIIIYQQpQ+JaQlCZFpaWpq98MIL9sknn/i0UIS16dOn+/+jueRMB+U9wtiYMWNs7ty5LpwhmCG8EQnH2iSIaC+99JK/+GzBggX+vdwRckIIIYQQQgghhBCi9CAxLUHY1ZMItNdff9169+5tt99+u9122202ZMgQ3yq4YsVYVhKh9sorr9jYsWOtSZMmdu2119p1113n5yDETZw40aePZmZm+ppss2fPtqZNm9oNN9xgF154oe8qJ4QQQgghhBBCCCFKJxLTEoQpntu3b7eqVavaeeedZx07drRevXrZsGHD7Oyzz7YGDRr4FE7Oefrpp61///521VVX2WmnnWannnqqXXbZZXbKKae4GLd582a/JjukDBo0yH74wx/aOeecY6effrrVqlXLPxNCCCGEEEIIIYQQpQ+JaQlCxFi7du08Qu2WW26xhx56yKPPmLYZrYNGVBprpW3ZssVWrlzpwhnrqvEiKm3Dhg22fPnyQ+urtWrVykW5CtrrVgghhBBCCCGEECIlKNdiGiJWzZo1XSBjHbN4WCNt9+7dPn2zcuXK/iJ67J///KdP22SaJoLajTfeaP/617984wBENYQy/lavXt2j2KpUqeLfrVevng0cONCuueYaa9iwof9GtWrVPDpNCFE+YIr32rWrbfPmTUftEJyTk+NRq+npaYENiX22bVuWrVu3Ns+NSVifce3aNfbFF5Pt008/spkzp/vOxBxPRTZu3GBvvvmaffjhaM8nmDdvjr377ps2Y8Y0fy+EOPFkZWXZypUrbOnSxbZs2RL/P1H50cBieSctbam9885I+/zzieGR4gG/NSNjpU2ePCl8BkwL7OjGE/YMmDVrhr333ls2e/bM8Igob1An16/PDOzCUrcPaWnL/H3uTdomTPjE3n//HT+vNMP9YN9oy59++nFQx2N+1omydTNmTPU2Nnfu7PBI6oHvu2XLZq8fBb2WL09Lal7jcsc2Esz79+JfbBg4adJ4z2v8UCEKotL999//QPj/Mkt+kV90XidPnmyrVq2yAQMGWOfOncNPYmukjR492iPNLrjgAuvZs6eLX6xvxnl9+/a1fv36+edEnHGcKDMa6rPPPmtDhw61iy66yKd5Mh30pJNOsj59+virWbNm/rtEsHXt2tU/E0KkLrNmzbbGjZtbvXr1wyN5M2fOTHv11RddTOvV6+RDay3Cpk0b7eOPx9oLLzxtQ4YMdSGeDtJHH412Yb9btx7hmWZLlizy815//UWbNm2yO6Q4We+//3bg+KUHNqaFNWgQE+2TCYLdZ59NsC+/3GmtWrUJjyaHzMx1Lpzt2LHdevfuYzVr1grubYpNn/6FVa5cJciv3uGZxUdm5prgtyoGNr5TeESI8gECWVpaemBneoVH8uejj8bYK688553hzz+f4HYK2zN//lyrX7+BvxhELOswMEIeMKjRqlVrt9mwaNEC73wfPHgg8BVP9WPJhM7oqlUZ9vTTj/sAxOzZM/yZgKg2evS7wecH/RnAYHFJMnXq5KDjOdtq1Kh+xPOquNmxY1vwTF3vS6mI4iEtbXlQnytY8+atwiN5k5W1NbANz9tLLz1rEyd+Grw+8QEy/iKqderUOWgnVW3MmPdcdG7UqLG1a9ch/HbpAQEHofqJJ/5pb7/9hgvEixcv9Db2wQejgjO+CvKiRYkHRPD7CxbM87bdtWv38Gjxs317VlC2m7wPmwiLFy8N+t6VrGXL1uGRw+zff8DGjh1ljz/+Nxs/fpy/xo370P3fCRPGudDKsZkzpwb99H2BLenuPuDxQpmuWJFuDz7480O/+8knHwW/+0HwDPvQ62t0nOchA9v4pSy/1KVLt/AqJ5Zt27ba1q2bAlvXNzwiSgPlOjINx2fw4MHBg3hH4ARMDRpOuo/oIYgtWrQoaFDjXexq3ry5H2NKJyp5+/btfU001k5DGGMnT66B88h7Hujs/Llz507feKBLly7+nTp16vj1c0ekCCHKBziaixbNDzpCK4+yA3v37vEO0qxZ0w5FFqxfv847SZmZa/09xznnueeetLlzZwX2pVVgh4ba+edfaGeffV7g6PSzNWtWBY7PtmKxM6R7xowvAodkeXgkeTC4kZW1xdMejUTu2bPb82zXrlikmhDixIM9whbUqVPXzj33/MCPOsd69jzJhe933nnTOyHlAWwTkcFELjAAG9GmTTs755whgT0uHnEH+/jmm696B79ly1Y++DJkyIVeFn36nGrVqlUPzyxZENDOOuvcwG8uOSFNlC6ys/fa8uXLbN26NW4TqJP9+59ulSpVcqF31Kh3/Bz6TNu2bTsqYq20sH9/jr3xxkseAda6dRtvX+eff1HQrs+33r37WtWq1cIzS5YePXp5Gyst4k5RqFixgnXo0Cm0W0PdViKqEuXctGmzQ8cHDz7XOnfuGtSd5AzMEFjDLLHo+rxIx9atW7wfH3+8d++TbeDAQZ7XpEGIgijXkWlEhTDlcuHChS6kZWRk+N9p06bZuHHjPOqMXTaJLqNjym6e773HaEqai20IcPPnzw8aYwffhADhDIGOhwbH16xZEzicq2zx4sWBkzndr8uDo23btv6eKV2KTBMi9Uk0Mg0nkyiCpk2b26BB57itiGBKJyOOiG3Dh3/DI2E5F/GMKDAcUsQlIhHGjHnXzjhjsF1//c2B7RkSOK29/XXSSSf7NXEQ6tat57aPgYD09OU2Z04seoFpo0Qu1KhR0wcAELEYcSXaDKcCh2bhwnk+Ioceh/PBdfjepEmfBrZtnnfmGF0mbbVr13HHkmmaRGjgJPNd0r5hQ6Z/zugtx9PSlnh0HulglJrfZ0o8aSZab8qUz6xWrdp2+uln+l/SQae9RYuWdsop/cKcMk8nofjz58/x0W2i+mrUqOV5FkX7cQ7TM7gvPscpXrt2laebgY28UGSaKK8UJjKNKFja1KBBZ9ntt3/TBRw6zlH0BvYnippgmhTiG4JTNJCATapevYa31wgEc+wjbZpr0HY3bdrggl3VqlUCG1TRp38TeTtnzqzgWgvcJtHesSFRJFx2dvYhe8ZUImzN8uVLXaSPOvp03OIj5+hIZWSs8OsR0ctAKIIg9pjv8xkdf9bO5XvYQ+w1kbpEUnBd7Bw2DRCz8AWxnfHPBGzc4sWLPHoLO0seEoHLkiCR3dq5c4enkTRx/oIFcwNbt8jvhU4lv4PN/sMfHvCoj+uuu9GGDr3E859oZ17NmsWeRdE9MlCzevWqsHwWeEQdAzOUQRRNh4+LTSWfWFaA+yet2FGeF6QJmxxfZgiIRHqQb9wHnWTsK79NOiNiU7q47znBfS8Ofn+tR5yQPxUrxp6BlBdlTtmSRuoMn8WXbX4oMq34STQyjfpLVCZ15q67vut1k0hzfATsBm1x6NBLfbokbR6holOnLm4naA8882nbtA/8CEQtbEDkK9EmsAHUPXyceKjX+CBEhEbthHoUq1PYngy3D9R72lwEg4NclzZNNBptjuv85z9/t44du7ifdcEFF3kbw8eijTVp0szreZQubNrq1RlxbYx0xJb8idoY77EnsTa2xdsU7xHlaY9MicU3iRfqSC/3izhZq1Ydtz2kPdbGaodnxfKFa2E/yTvaJPfPeYdtC21suQ/EYiPJX2wK9upYbSyZkWmkJ+bT9fcX4iT2jrRff/0tdtNNtx06jpAZ5TH5hL8XsyNL3OeMniPRPeIjH10OX3k5kG/Ui+h3eXEMG9a8eUv72c8eOHS8Y8fOXg7xeU0ZYce2b9/h5UdaeEaQ1zyjatasHfz2Sr+PWLlmed4SRRgPbYQ6F18O5H/MFy64HBSZVjop12Iax3mYN2rUyKdqzpo1KzD2M4LKvdidNnbgvPrqq10kw6AtXbrUPvjgAxfC+D+CWevWre2KK65wwY0Gz6t79+5uNBHcuN68efP8mjQshDOmgxLhRiPlXKLWhBCpS0mIaf36DfCp4X/4w68DR66p3Xzz7YE96XPIicCe8R06sZEAtnv3ruChvtDeeus1mzr1c782jirXIXQdh5BzXnjhKXfkeMDjeOL0ch7Obdeu3dyp4LtM8cSBwHHEIeR+OnXq6vdNVMq4cR94J4wO0+TJn3lnuGPHTu5M4jwzKj19+hR3crg+znT9+vW9A0uHKxExjbRPmvSJr1/CGkHcH84QDgqdSERC8oTrjxr1tqeHdH7xxWfuWHFOflNUJaaJ8kphxbQ1a1b79Ky+fft5e6Pd0e7pREQdzn37sl3EGT2a6aCTDnX0iLiNTZNq6bYBIWfq1CluP7744nPvYCC8I65gX+g0Y3PmzZvlU0ynTOGc+d6uEX7oIDG1FHuKXXr++Sd9AIHPsTuIRNg5OuAvvviMnXpqf/9OZDvpfL311uveYWU6Ob+LrcNmYJOjdXS4R/xFOj3cP6IBU5FIGy9Et7p1GwR5uSX4/nj3I4kkATpfTF9i2j4iXGQDDxzY73YYMQqbjb0bOfIVt8XYNewla5ExlR/RjjxHtHrqqX+7aEl6EQfphHE/pI17izrH3DdpZ1oV6eV3uRadb+x648YxYZEyePnl5/x+ETwYfEBUYNo9gyFM3SPijmdPlG90bpnORxl36NAxOH++T/XE/6UzyjWx69hqplPF7DXi5EpPV7duPd0PxnbTsaRsifTjWUPZcX2EFJ4v8c/K3EhMK34KK6YhjhLFRX1BYM3JyQ4F2gUuACN2xItpLGVB/WDKOANu2ADqLT4IdYDnNtA233//XW/nnTt3CeruYTGYZSIQWvAd+F3OJRpu8uSJge2Z57aHAT6Eea4XiVx8j3ZMnaPOxwYC13t6YgJ1b2vYsNERbQzRK6qT1GXSy/RPpmHSrvGTaGPVqtU4JN4jbr300jOeB/hb+FoLF873PCMttD/ygt+K2hjth7bHjAPaFO0EXyvw+LzNcd/8zieffOjtjJkNtLFo0KJ7955+bQYzuS/aGG2UNNLOsfsx0b9egW0smWJabhCpSA/3he8X2cx4sAXkLffJ8we/j/qEfaKssZ/cL9eJLwfuccuWTUGZHS6HeMgn6iK+88UXXx4ejcGaaazXi11u377joecHglpMDJvteUmdoT5S7/Bhqf+kkfRRPpRplLekF3v+8cexcojVhaU+WIOdO5atk5hWOom11nLOWWedZX/+858Dg/WKPf300/bMM88EzsxI+9GPfhQYgpbekBo0aOCbB7z22mu+M+cjjzwSNKoX7bHHHvM11SKjzLkY2uHDh9sTTzxhzz33nD3++OOBc8caAi/5Neg83nTTTfbTn/7Uzj33XP+eEEIUBCO3dBxx+BCWcCCOBQ/z11570deiQLy7+eY73HkdN25s4Lg97w4KDh5OB4Ibjiid18sv/1rQyWoS2Linfd0ynJTWrdsGnam2LgQyxeC88y7wF51LHv5EZbAuCh1nHIOrrrrGp6A2bNjEHUDSwd/zz7/Yo1lwZll3acyYUYEjsj1MccEEfomvbcF6cTgvOD/XXHNjkKZmgQ3/rXfEcEyBziudYTqmCJLnnntBYKsv9pFOIcTxgWDCICOdZtoc7Y1IfER6OhXA0hgjR74a+FX/CTojHeyGG252m0B7fPLJx71zC1yHqevYoYEDB9sdd3zLvva1670DA0S5EM31yisvuD0aPPhsu/POuwM72N9GjXrL1y2LosIQ8BCE3njjZf8O9u7SS4dZ//4Dgw5wPRd16FgTCQHRAuMffPC+d7aIhsIu0rkkrbfccoddeOGl3mH961//FKR5sd87HV46t40bN3XbyFRX7CEzFcgPOlyITBHjx3/sa1yST6Tn6qu/7kLSo4/+0TuRRFQA30VswzauWJHm+XHRRZf559gyOm6IYHTQECfpQHM/CJQ8HziPDlwEi3i//vrLvkbVgAFn2K23jvCoZgZXsMmUGfAdyuPdd0e6gMc6wJdffpX/fsuWbVzkxH4z6AN0gBkUZioc94EPTBrIH4QIIJ/Gjn3fy5rvEZF0yy13+pIElBOCKiAqULZ0QM8665ygbL/tIu27777hZRtdT6QORAMRfUjbpk7iE/DMZuAsEoriIQJt8+aN7n/Q9m+88Tb3M2jv//nP/7qfAi1atPJoM4QIRFmguiNoffDBaG+niMlECxHFj6/AAOPXv36rTznFf3r22f8LfKNl/l1AtMYPIfIe4XjYsGtcCOzR4yQX9mhj2BTqN7YhdxtbunRJ0MZecqEKMei2274RtJszXZDHDkV2gPawZMliX4MN8Y5BQtrY6acPCvyhljZlyiRvY5E/RBuj7uObkS7aGPcei8qKtQnyZfTo97yNId5feOFl7ufh75H3EQwqYFOwibQ/fLCTTz4lyKNX3DYQUFKamThxvAtZiKFEO95ww63+fPjHP/7ia51hX7C5r732kg/KkP+33XaX2zz80pEjX/YBkMJAHcKeMSgMRDxSfu+884bbXuz/ZZddGfTpGwZ2/GH7+9//4iLbaacN9GcHAuRTTz3udZKyh5htf96/z/RW0kg58GxgwINoO5F6SEwLwbgz5ZPNBYgUw3AhjOUGY0akGtMzGdHDicgPlG7OJRKtSZMmeT5AhBAiERgVY4SNjmXjxs18pK0geHgvWrTQR93onF533U3e4bvnnv8KnMqhHo1BBy+C6I+bbro9eA13kQqHlsgBHEIcVRbYbtUKMa2ZO7k4m7xiURGxkbTKlataz54n2y9/+TtfX+TMM8/ywQNELiLKcBy+9rXr3OH88Y9/aazxRucQx/JY4LviXL766gvuHHMtOqU4JLfeeqcNGXJR0FH+4IgOLCPJjIz++td/dKd10CCm4xc8si6EODaIPozav/TScx4l9cADP/OoqwEDzvTpUHSmmZ7ElPS77rrHRamzzjrPrrjia3bttV93n+i99970TinRF4hMTBelTffrd5q36zvv/JZHxlapUs2nU/KbCC3XXnujn8N0IDozRJQhxMRDpMKIEd+x4cNH+Lo3bASAb0fa6LTSwQE6q0RCIaoh9OP70dlkahd2kM4YYtaDD/7Jz2WAAgERUYDIkEaNmrhAj23BHtLBy+0XYrcQlRo0aORi0uWXX+nrXGKX2CiACAgiVSKwpw0bNrbvf//Hnl/Dhl3t+cL3uU98yXvv/W8fkHjmmf8Eneergs7l5UEZ/NQX02bwA3gGEAXB/Y0YcbfdeONwt73kH4IBYsf48R/5uRFE3zFA8c1vfteXEOjff4AvTUK+RZHCQOeVjn9W1na386QtHsqVZ9YLLzzpkT2UG/fBOkTcC3WCaWsHDhz05xDiJudcc83XPQqbyOtLLhnmETlECInUgbLHZyACEqEUkQvhlsE6RAYCDnJDZCk+CoI77fWMMwYFz/gRQV250sVinutEceJPEC1GlGYsQismciD2btmy0dftQ2jmt/EHqGfUJXwf6vzVV9/gkW5Et8XpYUF/rbqLvbSraB3In/zkV+7fsAnBTTddaV//+jD7zW9+7oJ8JFTRxmiTREAh8CPaYTO4F+o7whsiXTy0seuvv9W+8Y3vuK3BlrVt2y5oY71d7GI5CkC44z3RTIMHn+d5FA/5zBRuxEHs24gR33J7gViOXRwx4ttBXtf0NobAlJOz331B8uC00053v+mSS65wO41oWFphw4K33no18OVaBXXim+7LUT6IlhdccImXPYMG06Z9YRkZ6V4OiG0DBgx0O37FFVe7fSFaOBnUq9fAbWjs+XOV21UGXxBbOX7lldf4X+ou9WTu3Jn+fKEciEijvt5xx7fdx0Z4oxwuvvgKf7ZQ3iL1kLoTB+JZ9CqIRM+DwpwrhBAFE7MjOJXxI6N5wfoYjPTSMTv11NM8vJ1OGFMu2rVr5+Hk8cITAhkDCpzPeTh8RCcg4OEIxNsyXpzDK962EaXG1IsqVWK/xYsRaTquOLB0yKLrE13BuXyfCJZjwT3TsWLaB2tM0Ll+/vmnPKLljTdecbEORwonPoIRan6zWrXYWpa50yuEKBpEFrFGEVOH6EwiUBEFxjpqCNhffrnDp1XTXlevXu0RarRXXpMmTfAReAR9QJBiCiFi3O9+9yuP8iBKDWivXAMhixedc6JNomsxFYx0YKfiYXoTMwqids8L8YaoBkRAfh8bytRMOjF0RiP7hxhFtMMjj/zefvCD79h3vnOH/exn99nWrZtd+KNjRrqOfB1tDyOI4EIsJF8Q24h+43cQFZiqT8ROFPEFDMRyHEGQ83hhP7FnTCHlN7p37xF07B+2f/zjKfvpTx/wzjaRFOTfv/71mOc9nXE6eNwr+RSfb3Se+YyIvvhnCdEWDJhEz4vYq5ILa0TwEVWIUEq0BoMgp502wM+PZmdEEDHD84X7JsKHqfXxZcH/ySquEyvbzKPKlulPsbLdHF5VpALUJ57V//733+z3v7/fpzYirH7jG3f7gB31OjcIzvgKRCj++tc/s3vvvcu+//1vuRiL6EtdRYyg7hOZzzWwPbRVfAMEu7ZtOxhTn1mbmggu7AbiL9FKUZ1i+h9RXWvWYHsO13ui7hkwjOo9f5lu+NvfPuJt7Mc//pWdeebZXv8feuj+oI391f0Q6nfUxph6GF9/EUY4h7od764RfcdgQnwbw2dCjEcExF7Sxrgu7ZT1cqPz4yFPaWPYBARGBgrzamPcb9TGENfj04gIRcQW91EaQaxksCTy+9g9mvTj9zG7gvuijPH9sGVE2DHlNv4eiQKjPpAPx3CbE4I6Fpv2i22OTftlZ1cGn7HTHKesiNJmrbUtW7b6fcTKYIOnkwGC2H3E0khEG22mtJaDKBiJaccJxp+NCd55593AARwZGO3Y6+233w0M6XzbsWNneKYQorwTe/hWPiL8PoLRNzogfJ7baQKiHaJpSHQujrULFp1dzsGpQjiLOnn8QSjjN+J3yWRqVnyHKLaYdBVP07GEuwhGd5lKFQ9pIC0s0EpnMIJ0RO8ZXT0WROQRERJN94jtCLbdX3yfLff79z/DI0YiSD+jiHR0hRDJg0hWooyIfvj2t++1H/3oFy66Ex2AALJvX45HZdCJwJYQVRa1VzofCCxEomGXqlWr6qPzjOjTZon8ePjhB+0Xv/hvj9hiTSzaOzaATjfXQIDiL0IOUwJZS+wwFTyKI7fAQ+eGCNY9e3YF12X9pPXeiaHTGr+GJdMpmT7KbxIlRcQK0VSIcdwX95ko2E4EfuwWUW814xaj5t6JaEAs4BWBzWazAzpqEbFnR6VD9g9bS+ef9JG222+/y775zXu8Q8e0LzqgCA3YRvKNdMTnG88EFvgmkid6NgCdQa4dD5+zsx5/mSZH5My6det8vSciQ+gwxl8D+E2eL+QV60tVr354UfV4qCOxsv3KRZH4NBJ5d3TZitIOdQFhhyjM++77sX3vez+yu+76jkcU5TdLB7GEadQszcAagmeeeY5HhFK/ac/U5cgP6dy5W1AnOrofxPRFBAqmJiNAt2vXPqhzOUGbi9ke0hJve2h/RIAxtS6+zuL/4BfFg51q04bNnwZ4pBdtDEEQMey9995y+xFrY3v9t3K3MXyRk0/ua126dA9+K7xoAG0bwTwe/D4EawQ+otzWrYttpsD6Z+wkSrpztzF+E2GfNla79tHtNoK8wAcjfeRNfBpZtxJxksi40ghpxo5Edo/7IN28OM7yAdQR7j87O7J1B4+4R6JmKW/qTa4sLBIIufHPFsqF6GmeidEzBGKCJmvlxWw7tu5wOcRsHc82/kYbMrBkgEg91MMoAjQEoj4mT54cGH4MeVbQUawTNOZGgdPQ0F9VqtS2jAzWEPo8MPIzgvMPd1qFEOUTpmbisEVREfHwoMXpwwHjgZzbcUL8InIiWiuHEX2cqdzQ2eTaOFY4gzhPRCjE/x4OGA91OpcRiHS5fxMnNv57fB47J29xLRoNjYcOJFFoe/dmB/d35NpoOBFcv0aNvJ3AeBDEcFbIB5xtnCNC/ZkSwpQwHHU64zglEaS1cuX8F3MVQhQN7AvRHES9MnXw0kuv8M4AaxyxMDM2Iup0EDGC8Ba1V3bGY+oNaxgC7ZQd/xCFrrrq2qATfalvYsDC4UzNyc7e5zaE9o/4E12HF1MxmU6FMBSBicrLhpIWOl9EX9FJZd0l1kuiY8uUIKDjydT24CouIJFG1kLj3hjQiNncyP4RoYuNDN/mAWlAbIoNXuzyVzzYZtJFxPBhuO6Rdiu6ldzPDewrgiJT35kyRHkQgYGPyn3Fnjm1/LkRn2+sA0cZUC7xkG/cUzzcA1NZyTei34juYd0mni1cK68lB0h/tJg2awchOuQFO+BRtoiKCIFHl+01QV3oHZ4tUgHqC+VJRBXRVkyBRjhHYMvdJgFhAWGKNaMQumLrm17kAnf79p2COn/wiHaHOMv0b4Rf1vti0XfaRc+evXwNQ+o9vg31CiGWaY+Hbc/FXu9Z6iIefJe8RD7AZ0PYxfbQxhB4EeARcyI/CzEOkS2vNhbZloiYbTryt/ht7Gn79p09QokNnBhI4L7IB+4lN1wnEnB27MjKd1CStGG7aI/du/c6Io2XXBJrYwxulEaoL5Qz9pPBZATTKP1MkUXkvPLKa71s2OyBeyVCOv4eeZ5QDtTHZEBZ5a7HvI8dDw+E8D6y2bE6GSsHoh6PLIcrwnLo6eeK1EJiWiHB6BOyP3PmrMDgbQgchANBB7d5YNh7Wa9efYJXX3+xI1bdug0DxyzH0tOZCjE3+N6W4IFQgNclhCjTsKg/05lYWJp1bBDQeNCy0xKjkYSix+/QGU/MqajjTgHn0eGjQxN1UrBNhI+zGxZ/6WSxHg/OHp3SaKQWIY+oDM5nxLQwRKOpROQyGktnKnfnLjekmbUuEO+YYkAUAjDqyuKupLNNm2PvaIzDyKYLOMc4jTiXXbv2cMcWYS2anpR7vSIhRPGCvaLDg20iuoipSUSaIGwT+UCUFH8RyGivTL0mEiJaAwg7iKhEFCnrDbEBCtcKrJ5PwySqlRF72jznduzYxa/DCxGJTnr8wEB+YEOxYXSumRrEpgN0iukERzv8YhcRfxDAmJLJ9B2iC5gamlsQooNHB47pn6SL6Im8Bji4T67PbzEVjOlZnIuQx5Qk0k/ETqIwYEJ6uIfIrmOLmSrK1H7KgjzjL1NL6byxax/CBLaSfGMaLJFtRHQkAoIfu6ASHfzhh6P9Pui0Ik6SD7khz7gnhFSm7DJlMxYlF5sCSv3gPlgDi7IlsoP8jS9bnk/UobymBYqyAz4EfgE2AEEJ24BwwnsiIfPyMah7TLdjOvb777/tfhO+FcIW4hf2Bn8AX4g2wOfUKUQjzqPeFQR1lDXZmIoea2NsqBBrY0wpR8SiTdSti3/T2tsakVDxbQxxONbGDkfkFwTXIwqO36CN4achghNth/+TG9odS3HgE82bNzfIqzT3y6I2Fi18z3T31q3bBedXcT+Max5uY93CNnZkVF5pAZtNXWjblojD/cGzppLbBdKOQMu9UM741lFes4EDdYPPY+XQo1DlUFzwHMDWxcphnz93jiyHFl53ReohMa0QYJRopLNnz7GlS9MDJ+6kwLkY4B1FjGA8dOhozCzG27Jlu8BhSrOZM+f4qGRezpYQouxDpwlniU4ia4Mwnenzzyf5LlCIYyxMyihaftFUPGhZtJQoDCJA2K0K8YxIARaxZpSW9UFYRwNHC4eTxZ9j26Z/5Au1sjsaURnYLR7ihYGdPHEiEfFYs2zChE99jQc6RfmBbezT5xQXwkjH+PHjPCKEHZGIciCNdOyOBU4VwhvTihDzWFCXhau5FiPT48Z96GuoIEwKIUoe1h1j7R7WIKMt0slk0wEW4KZz+NlnE729Yqt4sY4XIPRg/2I2arJ3Yoluo2NMR5HOYGzdoKZud7CX2D/sGfaE/7OeTqKcccZZtmfPXp9SRieeqLNoAIMoKzZa4XrsAkd6iY7j/zk5TM8/HHpAB5r0seYQa/lMmPCJscMgHdl48AeJQmC6D/fItbhfppMyBRQ7zG8mQqyjvN93+HvnnZFuUyP7T77MmPGF5xUDKeQfwiWdSfIN8ZB7ZidP0ordXLVqRXjlY9O3b3+356yRx4AOa0jl1ckHotsQOIkuQ9BgY4Tx48nPz/2ZR+QNyx0gbhLtw3qbEyZ87DtPHy7bj/3/fF+UXaIIK0Q06jL1khdC2eLFC/IcXEScRoAgApP6yBRJNu0A6mjHjp2MnWixPaynxoBizPZ86m0VcTc/YuJetq/FShuL+VgT/bvUz9mzp3s0LvYIe0FULaIO7Ro7R93lRZvjb7Q2ZCKwGQGCEe2Y2QfYqvzbWEUXiNiog6n1pI12HWtjE4M8/NxtDm2M9BItSJuiLU6bxsyqWBvD3hIZWBqJ/D42rqBMIl+WssSW4UMz1Rc7il8cE1g/8TI/XA6f+N/YOnknDuwxdZIBZu4hZuti5cCOsSyRwGC3SD0q3X///Q+E/y+z0BiTAdsOL126LDCk84MO7zAf0TvWtfkcNZoRV5yHBg3qB6/YiIYQomwwa9Zsa9y4uUcAFARODR1DRtrp2Iwd+55PbcCBxGG6/PKrPWw9cp4QrRidZVSOtTdiESB1fJSV0Uucu1Gj3vZrjRs31kcmmVLBGhKMvGJ7WCiVSBG2aMcRoZOLeHXVVdf5XzqTdGCbNWvmHa9ozTGmnLIYLo4l18Rpi63vk+POKzvxffDBKF9vA5Ft9eqVtnXrVo/myC2OMXLIaBzrmpAOhC+mqrJoNlO7GHllVJcIBn6/X7/+nkesZ0TUB44znXSgY0gacKRYtwSHBAeWLcfp2OLUkkcIdaSJTipiXiLPgczMNUE6K1rnzp3CI0KUDxC00tLSPar+WBCVhKBNW4/aJWCfEPGxW0RyIKQRjUankDXIorZKZ4fIJNoyEaVbt2b5Lr3YBnY7oxM6ffpUj4S6+eY73H4wok+Hm0iumA35wO0nHREi1hDlmYpFFAkCDAMX/HZum4wdINJh3rxZLpjRAWNHNtYxAmwvHWR2GWYHTjo5CxbM8d3WiKZF+CIaDiGNzhF2loXG2TwBe4iNJMqDDVGaN2/uQh0gFBDVhYj29ttveB6QT+w6N2TI0OD5ERMCWAdq8WIGO1p6ZEUUDcy6UKxVhkBFB5sNH9iJk+cHL/JjwYJ5Xh6sYUfZUBZ0+Js3b+Wi2SuvPBfczzg/n842USpEeZC32HlsKnmM/SbPc1O/fkO3yez+x3duuGG4P88iiK5m6j67fzKdjKlsTGdigINn1ejR73g6uXci6ZhiygAR1yI/8ypbyoKy5RmTH6w7tHnz+iCvTwmPiGSTlrY8aNMVvC4VBKLG/PlzvT4httLW8oI2w+AhZRvVVXwM/BlENOoAbZHnOVGfbGzCVGMiHoHPCE5YuXK5T7e8776feCRk9Jyn3RMltnFjZtDeXncBKWZ7YgOA3bp1d+EF8Im4XpcuXT0yDhggpI3R/qmLMR/rA6+jRJ7dffd9HuHG96ibvGgb2DEEqphfN9GjqRD98GGI2qVO045oF7TN3LC+F0IfEbmsC8euoPFRdNgMBER8HewnNhe/jWha7Obo0e96OmODsweDMhjsNoS0MgWSHXkR8fHBuK+pU6e4r0U55JWeCK6flbUpsEl9wiMFs3jx0qAsKvmAyrEgndwv9oPIZNKSG9Y7o04hMiJwUp7YW3xR6iT1BLvMPTDzg3JAsIr8a8ozVg5HpodNGSg37Da7uMazdOkir1tE13JtyhJfGZ+aCEei4QCbh/+Jn840ZaKagecL94SNZcMY6jizMHg+LFw41zflicqBZxbfO1Y5bNu2Nai/mwJbd3hZA3HiqRBU4oLn6JQBEulEJcL8+fMDh2CyXXjhsKBRVC3UdTEWdE7ZpWrEiOFBgyr4gSSESB2efPLp4GHZ1x+UxwKHgAc7Yd4IPkx9qVu3vq+HxggczlkE52E7GOWPnEiIrkHHEbENBxbnEceV7/OK7BPfp9O0ceNGd8JwBHDOcLBwxLgWHRs6PvHfi36DvzgBHA/+G1zvwKHjwMAA1zmc1qPXTQO+t3v3nqATvck7lUzDYIpE9P1YOmK7hkbpiP3W0dfEKSWyBPGOa+GE4NgQAXL4u7HFyvNLT17MnDkl6LxVsosuOnI9FSHKOunp6TZmzEd2xRXXh0fyh/aH65jbLkGs3bFAP+sVxj7jPevGIqAFliWwVQww1g/afmVvm1HbR6BjkID32Ck6OJHtAa5NdALiDOuC0QnE5iEwcZ3DduRoe5YbBHmuxzm5z+M4HXVsK7aTdZgQ6LmP2O8cPj+638iVjkUVx+wP50R5ANwjNhihjYgRooPpWMXf45F2kON+2K+HPQQGJrhHNkMgv/AtuQaROdH6bPH3wzV53mArEeWYAkqnnXviXPINyJPY7+afb6QNu8rn2O7482LPBe77SJvLdxiMRsQgPxnkodzi08n9xcp2uz+ratWq6fdD2ZKnudeYimfNmpW2aNEsu/POO8IjItmMGTM2qB8VrG9fIuvzh7pGe+Av9bSgeoQtoC1F9Y9jtG2mJ9IuGFjjmU6d4lrReREIU//4x6Muxv3wh/9zSBCPiNoS9Z46RVpiwQ0xuxLV0bzSAlEbww5wDdJABCWiVO42Rv2lTWPniPLCv8KnQyAsahvjO7l/p+A2ttN9Ito6Ijc29Og2tte2b9/htpi2RTuM2aCC29iqVem2fPkCGz781vBIwbz55rvB9apav36JrVPGffHinuLvKx4+x1/Oytrmg6+kH+GJvI7y83A5xGxdrBwaHbKLuesQ53NdsojyjSevvM6r/GL17OhnTnRtfjP+ng6Xw3b3h2Pl0CQohxrHLIcVK5ZZWtrCwNbdFh4pObhPkTcS0xKESr9o0ZLAoKyzgQPPKdI1cRQYGenfv0/Q8SZ6IqZeCyFSm8KIaRGRo8eDlQdt/EM4UbgGD+vYNXhgH9mxjeAZiIPLuZFDkQy7WFji7zlyjouajMP3jrNC/uE0hh8WEYlporxSGDGtKNDmY53WWFRJfOcigvbMC/Lq+ADtPrpW1EnJ67zjJbIvdKawLcn6DdIeu25MbMi92H9hOGwDY8LdsfIilm9RZzB595QI8fedX/kXtWwlphU/YxIU046X3OWfl5+C4Eo0EVFYTOF76KH/58tZ5DfjJ7om5Ff38qMobQzBJRpoKP1tjDQe2wYVt5iWKFF58Ip83rzqyOFyKL5nxPFQ1HKQmFY6KV21qxSzdu1aV8M7d2aL46I5Pxh6pmqlp2fY5s1bwqNCiPIIdgSbwMhZ7tHHROE7fDcWkZW3kAZcmvPiR/BOBPH3jCN0PMk4fO9R/oUfCCFKHXQYsFNR9GhecDw6J7/OD+2e87Ah2JLi6iRF9oVdNpP5G1yLdMfu8fiM1mEbWDWhvOBz7GWy7ykR4u87v/IvqbIVpZdYHa0aPtPzbh8ffTTWnnjiX7ZqVYYvi8EUPM7Pj+iaBdW9/ChKG4vV31RpY6nlOEXlQfoZjMivjhwuh9JpR1K9HMSR6EmVIISMMq2IUMyiQoNu0aKVsTYJ07OEEEIIIYQQQhwb1lhlQ49hw2JrzDJNMT9RRQghihuJaQkSC/ONzak/HlCgo5BhIYQQQgghhBDHhg2Wrr/+Zt8plvXShBDiRCIx7QSgacdCCCGEEEIIIYQQqYnEtAQhhDh6HQ8s4MfcaIUkCyGEEEIIIYQQQqQeEtMShAUPWTA7Jyc7PFJ4ENJYK60oi2AKIYQQQgghhBBCiBOPxLQEad26tTVqVN+WLFkQHik8bIE7a9Z069y5ozVpUvSNDIQQpYuDB2PbkQshRCoS26r/QPhOiFRCMz2KG9Z5/uorrfUsEiM2+0rtsjjQxLbSh8S0BGnUqJHVrl3LMjPXBO8K/0DBUc3J2WerVqVby5bNrV69OuEnQohUB/uwcWOmbd68MTwiUo1Vq1Z65HH9+nXDI0KUH6pWrWZ16tSxBQvm2r59+8KjQpRuNm/e5M9eDVAXL3Xr1rXs7D22enVGeESUF/Brt2zZaI0bNw6PHBtmciG+6lmSPAjI4cVMOVG6qHCQLSrLOMlan2zdunU2Z85cO3Cgop100qmBsUi8Qu/cucPmzZtl1atXsnPOGRx02OqHnwghUp0VK1YEr9W2Y8cu00a9qQkz75s1a2QdO7a3pk2bhkeFKB98+eUuS09Pt5Ur1wY+zldBRyj8QIhSTKVKFaxevVrWoUNba9euXXhUJJvMzMzANqyyTZuyZB/KEXSfWee7QYPa1r59W2vbtm34ScEsXrw08IlX2e7d+4LvI6ypwhwP6BjkYbVqlaxVq2bWt2+f8JOSQ2WYPxLTCkFOTo6tXbvWJk363Jo358Hd0apXrxF8kv/1qXzbt28LHkLLbcuW9XbJJRd6FEvlylozTYiyxNq164J2nhG086zwiEglWrVqEXTI2lvDhg3CI0KUL4giWLEiI3itDP6fEx4VovSCve7YsZ21bNkyPCKKi61bs9w2rFuXKTGtnED3uVGjhoFv1M5atGgRHj02PD8YnElPXxGKr6owxwPlQLRf8+bNrVevHlatWrXwk5JDZZg/EtMKyd69e4MO80qbMmWqtW/fxerVa2g1a9Z2UQ31PYL1BXbt+tJfhKBnZW20gQNP984aDUIIIYQQQgghhBCitCIxLX8kphUBhLItW7bYmDFjbd++/da2bUdr2bKtz2Pev/+A/83O3mvp6cts7doMa9asiQ0Zcq41bNgwvIIQQgghhBBCCCFE6UViWv5ITCsiVKoDBw7Yhg0bbN68+ZaWlmbbtm231atXW8eOHa1mzRp28sknW48e3X1aJ1FrxZEOIYQQQgghhBBCiGQjMS1/JKYdJ+yssWfPHsvOzrb169fbmDFj7IYbvm7Vq1e3GjV41bBKrGwthBBCCCGEEEIIkSJITMsfLd51nDClk+3k2TKYCDTEsyZNGvurdu3aEtKEEEIIIYQQQgghyhAS04QQQgghhBBCCCGESBCJaUIIIYQQQgghhBBCJIjENCGEEEIIIYQQQgghEkRimhBCCCGEEEIIIYQQCSIxTQghhBBCCCGEEEKIBJGYJoQQQgghhBBCCCFEglQ4ePDgV+H/yywVKlQI/3dsNm3aZIsWLbLt27eHRxInKyvLpk6dakOGDLEqVaqERxOjYsWKVr9+fevTp4/Vrl07PCqEEEIIIYQQQghR8nz1VZmXi4qMxLRcIKKtXr3adu/eHR5JnM2bN9uECRPs8ssvt6pVq4ZHE4M01qpVyzp27GjVq1cPjwohhBBCCCGEEEKUPBLT8kdiWhLJzMy0kSNH2ogRIySICSGEEEIIIYQQImWRmJY/WjNNCCGEEEIIIYQQQogEkZgmhBBCCCGEEEIIIUSCSEwTQgghhBBCCCGEECJBJKYJIYQQQgghhBBCCJEgEtOEEEIIIYQQQgghhEgQiWlCCCGEEEIIIYQQQiSIxDQhhBBCCCGEEEIIIRJEYpoQQgghhBBCCCGEEAkiMU0IIYQQQgghhBBCiASRmCaEEEIIIYQQQgghRIJITBNCCCGEEEIIIYQQIkEkpgkhhBBCCCGEEEIIkSAS04QQQgghhBBCCCGESBCJaUIIIYQQQgghhBBCJIjENCGEEEIIIYQQQgghEkRimhBCCCGEEEIIIYQQCSIxTQghhBBCCCGEEEKIBJGYJoQQQgghhBBCCCFEgkhME0IIIYQQQgghhBAiQSSmJYmDBw/a7t27LTMz07Kzs+2rr74KPxFCCCGEEEIIIYQQZQWJaUli69attmLFCqtfv77Nnz/fdu3aFX4ihBBCCCGEEEIIIcoKEtOSwI4dO2zZsmW2fv16GzZsmM2bN8+FNSLVhBBCCCGEEEIIIUTZQWLacZKTk+Pi2bp16+y8886zzp0728UXX2yzZs2y9PR0279/f3imEEIIIYQQQgghhEh1JKYdJ9OnT7dt27ZZr169rEWLFlaxYkVr27at9e7d25YvX26LFy8OzxRCCCGEEEIIIYQQqY7EtOOAiDTWSmvVqpW1b9/ehTTgb/fu3a1x48YesZaWlubHhRBCCCGEEEIIIURqIzGtCLBz5+rVqz3yrHnz5taxY0erXr16+GmMGjVquKDGX85jPTUhhBBCCCGEEEIIkdpITCskBw4c8Gg0pnc2adLEOnToYHXr1g0/PZJGjRpZp06drFq1ajZnzhzbuXOnffXVV+GnQgghhBBCCCGEECLVkJhWCIhI2759u82ePdsqVKhgPXv2tIYNG4af5k3Lli1dUMvOzvZNCfbu3StBTQghhBBCCCGEECJFkZiWIAhgRJYtW7bMMjIybOjQoVa/fv3w04Jp3bq19evXz5YsWeLrpyGoCSGEEEIIIYQQQojUQ2Jaguzbt8/FsLlz59oNN9xgNWvW9Oi0ROA81la76qqrbMyYMb7eWk5OTvipEEIIIYQQQgghhEgVJKYlyIwZM2zFihV2ySWXWK1atRIW0iIqVarkU0Kvu+46mzhxonb4FEIIIYQQQgghhEhBJKYlwNSpU32ttN69e1uzZs0KLaRFIKi1atXK+vbt6zt8Llq0KPxECCGEEEIIIYQQQqQCEtOOwcKFC333TkS0du3aWZUqVcJPigbf79q1q6+3tnbtWktPTw8/EUIIIYQQQgghhBClHYlp+cDOnZHYxfTMDh06+PTOZFCnTh3r0qWLVa1a1aeObtiwIfxECCGEEEIIIYQQQpRmJKblwYEDB2zbtm02Z84cq127tgtpDRo0CD9NDkS6tW/f3v/PdM8vv/zSdwwVQgghhBBCCCGEEKUXiWm5ICJt586dPr1zx44dvk5akyZNwk+TS9u2ba1jx462ZcsWF9Sys7MlqAkhhBBCCCGEEEKUYiSm5WLv3r2WkZFh06dPt2HDhlmjRo3CT4oHotNOP/10mzRpkmVmZlpOTk74iRBCCCGEEEIIIYQobVQ4ePBgmQ+FKszum6xhRlTaoEGDrF69ekXeubMw7N+/36PTxo8fb+eff36xC3hCCCGEEEIIIYQQBaGZc/kjMS0XTLXcs2eP1a1b1ypWLLnAvWidNgS8ypUrh0eFEEIIIYQQQgghSh6JafkjMU0IIYQQQgghhBBCHIHEtPzRmmlCCCGEEEIIIYQQQiSIxDQhhBBCCCGEEEIIIRJEYpoQQgghhBBCCCGEEAlh9v8BK9CuJxpJznwAAAAASUVORK5CYII=;" vertex="1" parent="1">
          <mxGeometry x="430" y="670" width="1235" height="773" as="geometry" />
        </mxCell>
      </root>
    </mxGraphModel>
  </diagram>
</mxfile>
